<svg width="32" height="32" viewBox="0 0 32 32" fill="none" xmlns="http://www.w3.org/2000/svg">
<path d="M22.9453 20.992C22.9453 22.5618 22.3067 24.0429 21.1471 25.1625C20.1357 26.1389 18.8484 26.7261 17.4766 26.8471V28.9062C17.4766 29.5103 16.9869 30 16.3828 30C15.7787 30 15.2891 29.5103 15.2891 28.9062V26.748C13.7262 26.5456 11.7268 26.0884 9.85318 25.3423C9.29198 25.1189 9.01821 24.4827 9.24166 23.9215C9.46517 23.3603 10.1011 23.0866 10.6624 23.31C13.1929 24.3176 15.8059 24.6834 16.9448 24.6834C19.0117 24.6834 20.7578 22.9929 20.7578 20.992C20.7578 18.9706 18.7973 17.3262 16.3876 17.3262C14.4653 17.3262 12.6996 16.733 11.4156 15.656C10.1047 14.5564 9.38281 13.0526 9.38281 11.4217C9.38281 8.18002 12.0251 5.54277 15.2731 5.54277C15.2783 5.54277 15.2838 5.54282 15.2891 5.54282V3.09375C15.2891 2.48967 15.7787 2 16.3828 2C16.9869 2 17.4766 2.48967 17.4766 3.09375V5.69945C18.6323 5.8693 20.0487 6.21416 21.8111 6.90077C22.374 7.12006 22.6525 7.75411 22.4332 8.31695C22.2139 8.8798 21.5799 9.15832 21.017 8.93902C18.283 7.87382 16.5793 7.73021 15.2731 7.73021C13.2314 7.73021 11.5704 9.38615 11.5704 11.4216C11.5704 13.5406 13.6413 15.1386 16.3877 15.1386C18.1156 15.1386 19.7437 15.7272 20.972 16.796C22.2445 17.9033 22.9453 19.3935 22.9453 20.992ZM6.59714 8.58831C7.02666 8.16361 7.03065 7.4711 6.60589 7.04153C6.18124 6.61202 5.48863 6.60797 5.05916 7.03273L2.9922 9.0764C2.35235 9.70897 2 10.551 2 11.4473C2 12.3435 2.35235 13.1856 2.9922 13.8181L5.05916 15.8618C5.27234 16.0726 5.5502 16.1778 5.82812 16.1778C6.11009 16.1778 6.39206 16.0694 6.60595 15.8531C7.0307 15.4235 7.02671 14.731 6.5972 14.3063L4.53023 12.2626C4.30918 12.0441 4.1875 11.7546 4.1875 11.4473C4.1875 11.14 4.30918 10.8505 4.53017 10.632L6.59714 8.58831ZM29.0078 18.6467L26.9408 16.603C26.5113 16.1783 25.8187 16.1823 25.3941 16.6118C24.9694 17.0414 24.9733 17.7339 25.4029 18.1586L27.4698 20.2023C27.6908 20.4208 27.8125 20.7103 27.8125 21.0176C27.8125 21.3248 27.6908 21.6144 27.4698 21.8329L25.4029 23.8765C24.9733 24.3012 24.9694 24.9937 25.3941 25.4233C25.608 25.6397 25.8899 25.748 26.1719 25.748C26.4497 25.748 26.7277 25.6428 26.9409 25.4321L29.0079 23.3884C29.6476 22.7559 30 21.9139 30 21.0176C30 20.1213 29.6476 19.2793 29.0078 18.6467Z" fill="#0F2B4D"/>
</svg>
