<svg width="40" height="40" viewBox="0 0 40 40" fill="none" xmlns="http://www.w3.org/2000/svg">
<rect x="9" y="10" width="22" height="15" fill="white"/>
<rect x="9" y="10" width="22" height="15" fill="#1E7784" fill-opacity="0.3"/>
<path d="M30.5 11.8333C30.5 11.1889 29.9777 10.6666 29.3333 10.6666H10.6667C10.0223 10.6666 9.49999 11.1889 9.49999 11.8333V23.4999C9.49999 24.1443 10.0223 24.6666 10.6667 24.6666H29.3333C29.9777 24.6666 30.5 24.1443 30.5 23.4999V11.8333ZM32.8333 23.4999C32.8333 25.4329 31.2663 26.9999 29.3333 26.9999H10.6667C8.73366 26.9999 7.16666 25.4329 7.16666 23.4999V11.8333C7.16666 9.90026 8.73366 8.33325 10.6667 8.33325H29.3333C31.2663 8.33325 32.8333 9.90026 32.8333 11.8333V23.4999Z" fill="#0F2B4D"/>
<path d="M24.6667 29.3333C25.311 29.3333 25.8333 29.8556 25.8333 30.4999C25.8333 31.1443 25.311 31.6666 24.6667 31.6666H15.3333C14.689 31.6666 14.1667 31.1443 14.1667 30.4999C14.1667 29.8556 14.689 29.3333 15.3333 29.3333H24.6667Z" fill="#0F2B4D"/>
<path d="M18.8333 30.4999V25.8333C18.8333 25.1889 19.3557 24.6666 20 24.6666C20.6443 24.6666 21.1667 25.1889 21.1667 25.8333V30.4999C21.1667 31.1443 20.6443 31.6666 20 31.6666C19.3557 31.6666 18.8333 31.1443 18.8333 30.4999Z" fill="#0F2B4D"/>
</svg>
