<svg width="32" height="32" viewBox="0 0 32 32" fill="none" xmlns="http://www.w3.org/2000/svg">
<path fill-rule="evenodd" clip-rule="evenodd" d="M7.66954 1.66455C8.38991 1.66455 8.97423 2.24887 8.97423 2.96924C8.97417 3.68956 8.38987 4.27393 7.66954 4.27393H5.60997C5.58236 5.92386 5.53175 7.40991 5.63731 8.85889C5.76606 10.6248 6.13089 12.079 6.97911 13.2681C8.94994 16.0303 10.8868 17.3011 13.2486 17.3013C15.6531 17.3011 17.8702 15.9816 19.8063 13.2681C20.6547 12.0789 21.0213 10.6251 21.15 8.85889C21.2556 7.40991 21.205 5.92384 21.1774 4.27393H19.1149C18.3948 4.27356 17.8112 3.68933 17.8111 2.96924C17.8111 2.2491 18.3948 1.66491 19.1149 1.66455H22.4625C23.1828 1.66465 23.7672 2.24893 23.7672 2.96924C23.7672 4.9259 23.8927 7.10985 23.7516 9.04736C23.6065 11.039 23.1744 13.0398 21.9313 14.7827C20.0012 17.4879 17.5744 19.3251 14.7037 19.7915C14.6823 21.2631 14.683 23.0282 15.108 24.5933C15.3733 25.5699 15.7767 26.3386 16.3443 26.8589C16.8851 27.3544 17.6845 27.7261 18.9635 27.7261C19.5427 27.726 20.3454 27.4695 21.1188 26.9907C21.4943 26.7582 21.812 26.5032 22.0641 26.2544C21.5304 25.5857 21.2106 24.7388 21.2106 23.8169C21.2111 21.658 22.9608 19.9082 25.1197 19.9077C27.2791 19.9077 29.0303 21.6577 29.0309 23.8169C29.0309 25.9766 27.2794 27.728 25.1197 27.728C24.8466 27.728 24.5802 27.6994 24.3229 27.646C23.8115 28.261 23.1584 28.7952 22.4908 29.2085C21.4603 29.8464 20.1827 30.3354 18.9635 30.3354C17.1221 30.3354 15.6661 29.7764 14.5817 28.7827C13.5246 27.814 12.9328 26.5335 12.5914 25.2769C12.0874 23.4209 12.0705 21.3281 12.0924 19.8335C9.11279 19.4423 6.82235 17.5387 4.85606 14.7827C3.61256 13.0397 3.1799 11.0393 3.03478 9.04736C2.89366 7.10983 3.02012 4.92593 3.02013 2.96924C3.02013 2.6234 3.15748 2.29195 3.40196 2.04736C3.64647 1.80306 3.97819 1.66463 4.32384 1.66455H7.66954ZM25.1197 22.5161C24.4015 22.5166 23.8195 23.0987 23.819 23.8169C23.819 24.5356 24.4012 25.1192 25.1197 25.1196C25.8387 25.1196 26.4225 24.5358 26.4225 23.8169C26.4219 23.0984 25.8383 22.5161 25.1197 22.5161Z" fill="#0F2B4D"/>
</svg>
