<svg width="40" height="40" viewBox="0 0 40 40" fill="none" xmlns="http://www.w3.org/2000/svg">
<path d="M6.46002 15.3862L10.5094 11.9627L10.5094 18.8097L6.46002 15.3862Z" fill="white"/>
<path d="M6.46002 15.3862L10.5094 11.9627L10.5094 18.8097L6.46002 15.3862Z" fill="#1E7784" fill-opacity="0.3"/>
<path d="M33.5064 25.0352L29.457 28.4587L29.457 21.6117L33.5064 25.0352Z" fill="white"/>
<path d="M33.5064 25.0352L29.457 28.4587L29.457 21.6117L33.5064 25.0352Z" fill="#1E7784" fill-opacity="0.3"/>
<path d="M26.9453 24.992C26.9453 26.5618 26.3067 28.0429 25.1471 29.1625C24.1357 30.1389 22.8484 30.7261 21.4766 30.8471V32.9062C21.4766 33.5103 20.9869 34 20.3828 34C19.7787 34 19.2891 33.5103 19.2891 32.9062V30.748C17.7262 30.5456 15.7268 30.0884 13.8532 29.3423C13.292 29.1189 13.0182 28.4827 13.2417 27.9215C13.4652 27.3603 14.1011 27.0866 14.6624 27.31C17.1929 28.3176 19.8059 28.6834 20.9448 28.6834C23.0117 28.6834 24.7578 26.9929 24.7578 24.992C24.7578 22.9706 22.7973 21.3262 20.3876 21.3262C18.4653 21.3262 16.6996 20.733 15.4156 19.656C14.1047 18.5564 13.3828 17.0526 13.3828 15.4217C13.3828 12.18 16.0251 9.54277 19.2731 9.54277C19.2783 9.54277 19.2838 9.54282 19.2891 9.54282V7.09375C19.2891 6.48967 19.7787 6 20.3828 6C20.9869 6 21.4766 6.48967 21.4766 7.09375V9.69945C22.6323 9.8693 24.0487 10.2142 25.8111 10.9008C26.374 11.1201 26.6525 11.7541 26.4332 12.317C26.2139 12.8798 25.5799 13.1583 25.017 12.939C22.283 11.8738 20.5792 11.7302 19.2731 11.7302C17.2314 11.7302 15.5704 13.3861 15.5704 15.4216C15.5704 17.5406 17.6413 19.1386 20.3877 19.1386C22.1156 19.1386 23.7437 19.7272 24.972 20.796C26.2445 21.9033 26.9453 23.3935 26.9453 24.992V24.992ZM10.5971 12.5883C11.0267 12.1636 11.0306 11.4711 10.6059 11.0415C10.1812 10.612 9.48862 10.608 9.05916 11.0327L6.9922 13.0764C6.35235 13.709 6 14.551 6 15.4473C6 16.3435 6.35235 17.1856 6.9922 17.8181L9.05916 19.8618C9.27234 20.0726 9.5502 20.1778 9.82812 20.1778C10.1101 20.1778 10.3921 20.0694 10.6059 19.8531C11.0307 19.4235 11.0267 18.731 10.5972 18.3063L8.53023 16.2626C8.30918 16.0441 8.1875 15.7546 8.1875 15.4473C8.1875 15.14 8.30918 14.8505 8.53017 14.632L10.5971 12.5883ZM33.0078 22.6467L30.9408 20.603C30.5113 20.1783 29.8187 20.1823 29.3941 20.6118C28.9694 21.0414 28.9733 21.7339 29.4029 22.1586L31.4698 24.2023C31.6908 24.4208 31.8125 24.7103 31.8125 25.0176C31.8125 25.3248 31.6908 25.6144 31.4698 25.8329L29.4029 27.8765C28.9733 28.3012 28.9694 28.9937 29.3941 29.4233C29.608 29.6397 29.8899 29.748 30.1719 29.748C30.4497 29.748 30.7277 29.6428 30.9409 29.4321L33.0079 27.3884C33.6476 26.7559 34 25.9139 34 25.0176C34 24.1213 33.6476 23.2793 33.0078 22.6467V22.6467Z" fill="#0F2B4D"/>
</svg>
