<svg width="40" height="40" viewBox="0 0 40 40" fill="none" xmlns="http://www.w3.org/2000/svg">
<path d="M6 10C6 7.79086 7.79086 6 10 6H30C32.2091 6 34 7.79086 34 10V30C34 32.2091 32.2091 34 30 34H10C7.79086 34 6 32.2091 6 30V10Z" fill="white"/>
<path d="M6 10C6 7.79086 7.79086 6 10 6H30C32.2091 6 34 7.79086 34 10V30C34 32.2091 32.2091 34 30 34H10C7.79086 34 6 32.2091 6 30V10Z" fill="#1E7784" fill-opacity="0.3"/>
<path d="M30 32V34H10V32H30ZM32 30V10C32 8.89543 31.1046 8 30 8H10C8.89543 8 8 8.89543 8 10V30C8 31.1046 8.89543 32 10 32V34L9.79395 33.9951C7.7488 33.8913 6.10865 32.2512 6.00488 30.2061L6 30V10C6 7.79086 7.79086 6 10 6H30C32.2091 6 34 7.79086 34 10V30C34 32.14 32.3194 33.8879 30.2061 33.9951L30 34V32C31.1046 32 32 31.1046 32 30Z" fill="#0F2B4D"/>
<path d="M16 25.4433V15H19.3838C20.6661 15 21.5019 15.0524 21.8913 15.1567C22.4897 15.3135 22.9907 15.6542 23.3944 16.179C23.798 16.7038 23.9999 17.3818 23.9999 18.2128C23.9999 18.854 23.8834 19.3931 23.6509 19.8299C23.4181 20.2668 23.1225 20.6099 22.7639 20.8594C22.4053 21.1086 22.0409 21.2737 21.6704 21.3544C21.167 21.4542 20.438 21.504 19.4834 21.504H18.1086V25.4434H16V25.4433ZM18.1086 16.7667V19.7302H19.2626C20.0936 19.7302 20.6493 19.6756 20.9296 19.5664C21.2099 19.4572 21.4295 19.2862 21.5886 19.0535C21.7477 18.8209 21.8273 18.5502 21.8273 18.2413C21.8273 17.8614 21.7156 17.5479 21.4925 17.301C21.2693 17.0541 20.9868 16.8997 20.6448 16.838C20.393 16.7906 19.8872 16.7667 19.1275 16.7667H18.1088H18.1086Z" fill="#0F2B4D"/>
</svg>
