<svg width="40" height="40" viewBox="0 0 40 40" fill="none" xmlns="http://www.w3.org/2000/svg">
<path d="M19.8896 5.2207C22.3552 5.22071 25.6922 5.59034 27.9609 5.88477C29.4259 6.07501 30.5 7.33133 30.5 8.80859V28.5488C30.5 30.1131 29.2994 31.414 27.7383 31.5137C25.5821 31.6511 22.5695 31.8105 20.2305 31.8105C17.8343 31.8105 14.5741 31.6435 12.2783 31.5039C10.7104 31.4086 9.5 30.104 9.5 28.5332V8.79492C9.5 7.32367 10.567 6.06987 12.0254 5.87598C14.2292 5.58299 17.4476 5.2207 19.8896 5.2207ZM13.0166 10.3652C11.912 10.3652 11.0166 11.2607 11.0166 12.3652V19.2959C11.0166 20.4005 11.912 21.2959 13.0166 21.2959H26.9199C28.0244 21.2958 28.9199 20.4004 28.9199 19.2959V12.3652C28.9199 11.2607 28.0244 10.3653 26.9199 10.3652H13.0166Z" fill="#1E7784" fill-opacity="0.3"/>
<path d="M16.0195 28.0215H12.8574V26.0215H16.0195V28.0215Z" fill="#0F2B4D"/>
<path d="M27.6484 28.0215H24.4863V26.0215H27.6484V28.0215Z" fill="#0F2B4D"/>
<path fill-rule="evenodd" clip-rule="evenodd" d="M27.124 10.376C28.1326 10.4783 28.9199 11.3296 28.9199 12.3652V19.2959L28.9092 19.501C28.8134 20.4422 28.0653 21.1907 27.124 21.2861L26.9199 21.2959H13.0166L12.8125 21.2861C11.8038 21.1839 11.0166 20.3316 11.0166 19.2959V12.3652C11.0166 11.3296 11.8038 10.4782 12.8125 10.376L13.0166 10.3652H26.9199L27.124 10.376ZM21.0635 19.2959H26.9199V12.3652H21.0635V19.2959ZM13.0166 19.2959H19.0635V12.3652H13.0166V19.2959Z" fill="#0F2B4D"/>
<path d="M22.7725 8.93945H16.666V7.93945H22.7725V8.93945Z" fill="#0F2B4D"/>
<path fill-rule="evenodd" clip-rule="evenodd" d="M19.8896 4.2207C22.4256 4.22071 25.8184 4.59892 28.0889 4.89355C30.0661 5.15018 31.4998 6.84315 31.5 8.80859V9.04297L33.3604 10.6953C33.7873 11.0747 34.0321 11.6192 34.0322 12.1904V15.8311H32.0322V12.1904L31.5 11.7178V28.5498C31.4997 29.9766 30.7472 31.244 29.5996 31.9443V33.5889L29.5889 33.793C29.4935 34.7344 28.7451 35.4825 27.8037 35.5781L27.5996 35.5889H25.0732L24.8691 35.5781C23.8606 35.4758 23.0732 34.6244 23.0732 33.5889V32.7529C22.0865 32.7882 21.1125 32.8115 20.2305 32.8115C19.4089 32.8115 18.4893 32.7899 17.543 32.7588V33.5889L17.5322 33.793C17.4368 34.7344 16.6884 35.4824 15.7471 35.5781L15.543 35.5889H13.0166L12.8125 35.5781C11.8038 35.4759 11.0166 34.6245 11.0166 33.5889V32.2363C9.53046 31.6546 8.50026 30.2047 8.5 28.5342V11.71L7.9043 12.2393V15.8799H5.9043V12.2393C5.90442 11.6678 6.14892 11.1236 6.57617 10.7441L8.5 9.03516V8.79492C8.50007 6.83732 9.9236 5.14768 11.8936 4.88574C14.1009 4.59229 17.376 4.2207 19.8896 4.2207ZM13.0166 33.5889H15.543V32.6777C14.6616 32.6371 13.8003 32.5921 13.0166 32.5469V33.5889ZM27.5996 32.5234C26.8356 32.5714 25.9722 32.6193 25.0732 32.6641V33.5889H27.5996V32.5234ZM19.8896 6.22168C17.5191 6.22168 14.3576 6.57564 12.1572 6.86816C11.2105 6.99406 10.5001 7.81018 10.5 8.79492V28.5342C10.5003 29.5837 11.3066 30.4431 12.3389 30.5059C14.6337 30.6454 17.8674 30.8115 20.2305 30.8115C22.5355 30.8115 25.5205 30.6529 27.6738 30.5156C28.6993 30.4503 29.4995 29.5952 29.5 28.5498V8.80859C29.4998 7.81973 28.7845 7.00063 27.832 6.87695C25.565 6.58275 22.2846 6.22168 19.8896 6.22168Z" fill="#0F2B4D"/>
</svg>
