<svg width="32" height="32" viewBox="0 0 32 32" fill="none" xmlns="http://www.w3.org/2000/svg">
<path d="M26.5 7.8335C26.5 7.18916 25.9776 6.66683 25.3333 6.66683H6.66663C6.02229 6.66683 5.49996 7.18916 5.49996 7.8335V19.5002C5.49996 20.1445 6.02229 20.6668 6.66663 20.6668H25.3333C25.9776 20.6668 26.5 20.1445 26.5 19.5002V7.8335ZM28.8333 19.5002C28.8333 21.4332 27.2663 23.0002 25.3333 23.0002H6.66663C4.73363 23.0002 3.16663 21.4332 3.16663 19.5002V7.8335C3.16663 5.9005 4.73363 4.3335 6.66663 4.3335H25.3333C27.2663 4.3335 28.8333 5.9005 28.8333 7.8335V19.5002Z" fill="#0F2B4D"/>
<path d="M20.6666 25.3335C21.311 25.3335 21.8333 25.8558 21.8333 26.5002C21.8333 27.1445 21.311 27.6668 20.6666 27.6668H11.3333C10.689 27.6668 10.1666 27.1445 10.1666 26.5002C10.1666 25.8558 10.689 25.3335 11.3333 25.3335H20.6666Z" fill="#0F2B4D"/>
<path d="M14.8333 26.5002V21.8335C14.8333 21.1892 15.3556 20.6668 16 20.6668C16.6443 20.6668 17.1666 21.1892 17.1666 21.8335V26.5002C17.1666 27.1445 16.6443 27.6668 16 27.6668C15.3556 27.6668 14.8333 27.1445 14.8333 26.5002Z" fill="#0F2B4D"/>
</svg>
