<svg width="32" height="32" viewBox="0 0 32 32" fill="none" xmlns="http://www.w3.org/2000/svg">
<path d="M26.9432 11.7837C26.9432 11.1051 26.8094 10.4331 26.5497 9.80615C26.2899 9.17921 25.9095 8.60916 25.4296 8.12939L25.4286 8.12842C24.949 7.64866 24.3795 7.26803 23.7528 7.0083C23.1258 6.7485 22.453 6.61475 21.7743 6.61475C21.0957 6.6148 20.4236 6.74855 19.7968 7.0083C19.1698 7.2681 18.5998 7.64844 18.12 8.12842V8.12939L16.8837 9.36572C16.3956 9.85384 15.6043 9.85376 15.1161 9.36572L13.8788 8.12939C12.9096 7.16019 11.5952 6.61572 10.2245 6.61572C8.85388 6.61578 7.53936 7.16022 6.57019 8.12939C5.60108 9.0986 5.05652 10.4131 5.05652 11.7837C5.05656 13.1543 5.60102 14.4688 6.57019 15.438L15.9999 24.8677L25.4296 15.438L25.6044 15.2534C26.0024 14.8144 26.3224 14.3098 26.5497 13.7612C26.8095 13.1343 26.9432 12.4623 26.9432 11.7837ZM29.4432 11.7837C29.4432 12.7907 29.2447 13.7879 28.8593 14.7183C28.4738 15.6484 27.9092 16.4937 27.1971 17.2056L16.8837 27.519C16.6493 27.7534 16.3313 27.8852 15.9999 27.8853C15.6684 27.8853 15.3505 27.7534 15.1161 27.519L4.80261 17.2056C3.3646 15.7675 2.55656 13.8174 2.55652 11.7837C2.55652 9.74997 3.36455 7.7989 4.80261 6.36084C6.2406 4.92302 8.19098 4.11578 10.2245 4.11572C12.2582 4.11572 14.2093 4.9228 15.6473 6.36084L15.9999 6.71338L16.3524 6.36084C17.0642 5.6488 17.9096 5.08416 18.8397 4.69873C19.77 4.31327 20.7673 4.1148 21.7743 4.11475C22.7814 4.11475 23.7794 4.31322 24.7098 4.69873C25.6397 5.08409 26.4845 5.64902 27.1962 6.36084H27.1971C27.9094 7.07279 28.4738 7.91876 28.8593 8.84912C29.2447 9.77947 29.4432 10.7766 29.4432 11.7837Z" fill="#0F2B4D"/>
</svg>
