<svg width="32" height="32" viewBox="0 0 32 32" fill="none" xmlns="http://www.w3.org/2000/svg">
<path d="M12.0513 24.1162H8.88916V22.1162H12.0513V24.1162Z" fill="#0F2B4D"/>
<path d="M23.6802 24.1162H20.5181V22.1162H23.6802V24.1162Z" fill="#0F2B4D"/>
<path fill-rule="evenodd" clip-rule="evenodd" d="M23.1558 6.4707C24.1644 6.57305 24.9517 7.42437 24.9517 8.45996V15.3906L24.9409 15.5957C24.8452 16.5369 24.097 17.2854 23.1558 17.3809L22.9517 17.3906H9.04834L8.84424 17.3809C7.83553 17.2786 7.04834 16.4263 7.04834 15.3906V8.45996C7.04834 7.42431 7.83556 6.57297 8.84424 6.4707L9.04834 6.45996H22.9517L23.1558 6.4707ZM17.0952 15.3906H22.9517V8.45996H17.0952V15.3906ZM9.04834 15.3906H15.0952V8.45996H9.04834V15.3906Z" fill="#0F2B4D"/>
<path d="M18.8042 5.03418H12.6978V4.03418H18.8042V5.03418Z" fill="#0F2B4D"/>
<path fill-rule="evenodd" clip-rule="evenodd" d="M15.9214 0.316406C18.4574 0.316408 21.8501 0.693642 24.1206 0.988281C26.0979 1.24491 27.5316 2.93787 27.5317 4.90332V5.1377L29.3921 6.79004C29.8191 7.16948 30.0638 7.71393 30.064 8.28516V11.9258H28.064V8.28516L27.5317 7.8125V24.6445C27.5314 26.0714 26.7791 27.3396 25.6313 28.04V29.6836L25.6206 29.8877C25.5252 30.8291 24.7768 31.5772 23.8354 31.6729L23.6313 31.6836H21.105L20.9009 31.6729C19.8923 31.5705 19.105 30.7192 19.105 29.6836V28.8477C18.1183 28.8829 17.1442 28.9062 16.2622 28.9062C15.4406 28.9062 14.521 28.8846 13.5747 28.8535V29.6836L13.564 29.8877C13.4686 30.8291 12.7201 31.5772 11.7788 31.6729L11.5747 31.6836H9.04834L8.84424 31.6729C7.83556 31.5706 7.04834 30.7192 7.04834 29.6836V28.3311C5.5622 27.7493 4.532 26.2994 4.53174 24.6289V7.80469L3.93604 8.33398V11.9746H1.93604V8.33398C1.93616 7.76257 2.18066 7.21832 2.60791 6.83887L4.53174 5.12988V4.88965C4.53181 2.93204 5.95533 1.2424 7.92529 0.980469C10.1326 0.687014 13.4077 0.316406 15.9214 0.316406ZM9.04834 29.6836H11.5747V27.3457H9.04834V29.6836ZM21.105 29.6836H23.6313V27.3457H21.105V29.6836ZM15.9214 2.31641C13.5509 2.31641 10.3893 2.67036 8.18896 2.96289C7.24224 3.08879 6.53181 3.90491 6.53174 4.88965V24.6289C6.53194 25.3017 6.86466 25.8944 7.37451 26.251C7.37154 26.2555 7.36866 26.2601 7.36572 26.2646C7.68689 25.7661 8.22364 25.4194 8.84424 25.3564L9.04834 25.3457H11.5747L11.7788 25.3564C12.6205 25.442 13.3058 26.05 13.5103 26.8506C14.4831 26.8836 15.427 26.9062 16.2622 26.9062C17.1581 26.9062 18.1568 26.8811 19.1694 26.8438C19.1645 26.8628 19.1611 26.8822 19.1567 26.9014C19.3444 26.0756 20.0413 25.4437 20.9009 25.3564L21.105 25.3457H23.6313L23.8354 25.3564C24.3091 25.4046 24.7328 25.6195 25.0503 25.9395C25.3496 25.5931 25.5315 25.1409 25.5317 24.6445V4.90332C25.5316 3.91446 24.8163 3.09535 23.8638 2.97168C21.5967 2.67748 18.3164 2.31641 15.9214 2.31641Z" fill="#0F2B4D"/>
</svg>
