<svg width="32" height="32" viewBox="0 0 32 32" fill="none" xmlns="http://www.w3.org/2000/svg">
<path d="M26 28V30H6V28H26ZM28 26V6C28 4.89543 27.1046 4 26 4H6C4.89543 4 4 4.89543 4 6V26C4 27.1046 4.89543 28 6 28V30L5.79395 29.9951C3.7488 29.8913 2.10865 28.2512 2.00488 26.2061L2 26V6C2 3.79086 3.79086 2 6 2H26C28.2091 2 30 3.79086 30 6V26C30 28.14 28.3194 29.8879 26.2061 29.9951L26 30V28C27.1046 28 28 27.1046 28 26Z" fill="#0F2B4D"/>
<path d="M12 21.4433V11H15.3838C16.6661 11 17.5019 11.0524 17.8913 11.1567C18.4897 11.3135 18.9907 11.6542 19.3944 12.179C19.798 12.7038 19.9999 13.3818 19.9999 14.2128C19.9999 14.854 19.8834 15.3931 19.6509 15.8299C19.4181 16.2668 19.1225 16.6099 18.7639 16.8594C18.4053 17.1086 18.0409 17.2737 17.6704 17.3544C17.167 17.4542 16.438 17.504 15.4834 17.504H14.1086V21.4434L12 21.4433ZM14.1086 12.7667V15.7302H15.2626C16.0936 15.7302 16.6493 15.6756 16.9296 15.5664C17.2099 15.4572 17.4295 15.2862 17.5886 15.0535C17.7477 14.8209 17.8273 14.5502 17.8273 14.2413C17.8273 13.8614 17.7156 13.5479 17.4925 13.301C17.2693 13.0541 16.9868 12.8997 16.6448 12.838C16.393 12.7906 15.8872 12.7667 15.1275 12.7667H14.1086Z" fill="#0F2B4D"/>
</svg>
