<svg width="32" height="32" viewBox="0 0 32 32" fill="none" xmlns="http://www.w3.org/2000/svg">
<path d="M14.8333 28.8333V3.16667C14.8333 2.52233 15.3556 2 16 2C16.6443 2 17.1666 2.52233 17.1666 3.16667V28.8333C17.1666 29.4777 16.6443 30 16 30C15.3556 30 14.8333 29.4777 14.8333 28.8333Z" fill="#0F2B4D"/>
<path d="M21.8333 20.0833C21.8333 19.3098 21.5258 18.5681 20.9788 18.0212C20.4318 17.4742 19.6902 17.1667 18.9166 17.1667H13.0833C11.6909 17.1667 10.356 16.6131 9.3714 15.6286C8.38683 14.644 7.83331 13.3091 7.83331 11.9167C7.83331 10.5243 8.38683 9.18932 9.3714 8.20475C10.356 7.22019 11.6909 6.66667 13.0833 6.66667H21.8333C22.4776 6.66667 23 7.189 23 7.83333C23 8.47767 22.4776 9 21.8333 9H13.0833C12.3098 9 11.5681 9.30751 11.0211 9.85449C10.4742 10.4015 10.1666 11.1431 10.1666 11.9167C10.1666 12.6902 10.4742 13.4319 11.0211 13.9788C11.5681 14.5258 12.3098 14.8333 13.0833 14.8333H18.9166C20.309 14.8333 21.644 15.3869 22.6286 16.3714C23.6131 17.356 24.1666 18.6909 24.1666 20.0833C24.1666 21.4757 23.6131 22.8107 22.6286 23.7952C21.644 24.7798 20.309 25.3333 18.9166 25.3333H8.99998C8.35565 25.3333 7.83331 24.811 7.83331 24.1667C7.83331 23.5223 8.35565 23 8.99998 23H18.9166C19.6902 23 20.4318 22.6925 20.9788 22.1455C21.5258 21.5985 21.8333 20.8569 21.8333 20.0833Z" fill="#0F2B4D"/>
</svg>
