<svg width="32" height="32" viewBox="0 0 32 32" fill="none" xmlns="http://www.w3.org/2000/svg">
<path d="M4.61698 13.592C4.9955 13.6024 5.35174 13.7795 5.58797 14.0754L7.64297 16.6546C8.08475 17.2097 7.99361 18.0181 7.43893 18.4606C7.02783 18.7881 6.47747 18.8227 6.03999 18.5935C6.32989 19.6299 6.7823 20.6197 7.38661 21.5242C8.51209 23.2086 10.1126 24.521 11.9842 25.2963C13.8554 26.0712 15.9137 26.2741 17.9001 25.8791C19.8869 25.4839 21.713 24.5094 23.1454 23.077C23.6475 22.575 24.4618 22.575 24.9639 23.077C25.4657 23.579 25.4655 24.3924 24.9639 24.8945C23.1718 26.6866 20.8881 27.9084 18.4024 28.4028C15.9169 28.8971 13.3409 28.6422 10.9996 27.6725C8.6581 26.7026 6.65701 25.0598 5.24896 22.9525C4.28971 21.5168 3.63516 19.9095 3.31535 18.2293L3.2442 18.3099C2.77178 18.8396 1.95986 18.8876 1.42986 18.4156C0.899815 17.943 0.853722 17.1292 1.32627 16.5992L3.62297 14.0221C3.87486 13.7396 4.23869 13.582 4.61698 13.592Z" fill="#0F2B4D"/>
<path fill-rule="evenodd" clip-rule="evenodd" d="M16.2679 7.87905C16.978 7.87905 17.5538 8.45487 17.5538 9.16499V10.3651H19.3755C20.0852 10.3653 20.6601 10.9403 20.6604 11.65C20.6604 12.36 20.0854 12.9357 19.3755 12.936H17.5538V14.7147H17.8217C18.7394 14.7148 19.6201 15.0797 20.269 15.7286C20.918 16.3777 21.2819 17.2592 21.2819 18.177C21.2816 19.0943 20.9175 19.9735 20.269 20.6223C19.62 21.2713 18.7395 21.6372 17.8217 21.6372H17.5538V22.8363C17.5538 23.5464 16.978 24.1223 16.2679 24.1223C15.5579 24.1221 14.9819 23.5463 14.9819 22.8363V21.6372H12.5398C11.8298 21.6372 11.254 21.0613 11.2538 20.3513C11.2539 19.6412 11.8297 19.0654 12.5398 19.0654H14.9819V17.2856H14.7141C13.7963 17.2854 12.9156 16.9216 12.2667 16.2727C11.6179 15.6237 11.2539 14.743 11.2538 13.8253C11.2539 12.9076 11.6178 12.0269 12.2667 11.378C12.9156 10.729 13.7963 10.3653 14.7141 10.3651H14.9819V9.16499C14.9819 8.45495 15.5579 7.87918 16.2679 7.87905ZM17.5538 19.0654H17.8217C18.0572 19.0653 18.2838 18.9713 18.4505 18.8048C18.6168 18.6383 18.7097 18.4123 18.71 18.177C18.71 17.9412 18.6172 17.7139 18.4505 17.5471C18.2838 17.3805 18.0574 17.2856 17.8217 17.2856H17.5538V19.0654ZM14.7141 12.936C14.4784 12.9361 14.2529 13.0309 14.0863 13.1975C13.9196 13.3642 13.8248 13.5896 13.8247 13.8253C13.8247 14.0612 13.9195 14.2885 14.0863 14.4552C14.2529 14.6215 14.4787 14.7146 14.7141 14.7147H14.9819V12.936H14.7141Z" fill="#0F2B4D"/>
<path d="M13.5987 3.59747C16.0843 3.10307 18.6611 3.35798 21.0025 4.32781C23.3438 5.29768 25.3452 6.93963 26.7531 9.04675C27.7649 10.561 28.4352 12.267 28.7338 14.0472L28.7558 14.0231C29.2282 13.4932 30.0401 13.4454 30.5701 13.9174C31.1002 14.39 31.1463 15.2038 30.6737 15.7338L28.377 18.3099C28.1251 18.5925 27.7615 18.7511 27.383 18.741C27.0043 18.7306 26.6483 18.5528 26.412 18.2565L24.3581 15.6784C23.9158 15.1231 24.007 14.315 24.5621 13.8724C25.0062 13.5187 25.6112 13.5071 26.0626 13.8002C25.7826 12.6207 25.296 11.4935 24.6155 10.475C23.49 8.79064 21.8895 7.47821 20.0179 6.70298C18.1466 5.92795 16.0875 5.72512 14.1009 6.12017C12.1141 6.51543 10.2881 7.49087 8.85566 8.92329C8.3536 9.42497 7.54021 9.42503 7.03819 8.92329C6.5361 8.42119 6.53617 7.6069 7.03819 7.10477C8.83017 5.31286 11.1132 4.09193 13.5987 3.59747Z" fill="#0F2B4D"/>
</svg>
