<svg width="40" height="40" viewBox="0 0 40 40" fill="none" xmlns="http://www.w3.org/2000/svg">
<path d="M30.0672 11.6366C29.4714 11.0404 28.7639 10.5675 27.9851 10.2448C27.2064 9.92218 26.3718 9.7561 25.5289 9.7561C24.686 9.7561 23.8514 9.92218 23.0727 10.2448C22.294 10.5675 21.5865 11.0404 20.9906 11.6366L19.7539 12.8732L18.5172 11.6366C17.3136 10.4329 15.6811 9.75673 13.9789 9.75673C12.2767 9.75673 10.6442 10.4329 9.44057 11.6366C8.23693 12.8402 7.56073 14.4727 7.56073 16.1749C7.56073 17.8771 8.23693 19.5096 9.44057 20.7132L10.6772 21.9499L19.7539 31.0266L28.8306 21.9499L30.0672 20.7132C30.6634 20.1174 31.1363 19.4099 31.459 18.6311C31.7816 17.8524 31.9477 17.0178 31.9477 16.1749C31.9477 15.332 31.7816 14.4974 31.459 13.7187C31.1363 12.94 30.6634 12.2324 30.0672 11.6366V11.6366Z" fill="white"/>
<path d="M30.0672 11.6366C29.4714 11.0404 28.7639 10.5675 27.9851 10.2448C27.2064 9.92218 26.3718 9.7561 25.5289 9.7561C24.686 9.7561 23.8514 9.92218 23.0727 10.2448C22.294 10.5675 21.5865 11.0404 20.9906 11.6366L19.7539 12.8732L18.5172 11.6366C17.3136 10.4329 15.6811 9.75673 13.9789 9.75673C12.2767 9.75673 10.6442 10.4329 9.44057 11.6366C8.23693 12.8402 7.56073 14.4727 7.56073 16.1749C7.56073 17.8771 8.23693 19.5096 9.44057 20.7132L10.6772 21.9499L19.7539 31.0266L28.8306 21.9499L30.0672 20.7132C30.6634 20.1174 31.1363 19.4099 31.459 18.6311C31.7816 17.8524 31.9477 17.0178 31.9477 16.1749C31.9477 15.332 31.7816 14.4974 31.459 13.7187C31.1363 12.94 30.6634 12.2324 30.0672 11.6366V11.6366Z" fill="#1E7784" fill-opacity="0.3"/>
<path d="M30.9474 16.175C30.9474 15.4636 30.8076 14.759 30.5353 14.1018C30.263 13.4445 29.8637 12.847 29.3605 12.344C28.8576 11.8408 28.26 11.4406 27.6027 11.1682C26.9454 10.8958 26.24 10.7561 25.5285 10.7561C24.8171 10.7562 24.1125 10.8959 23.4553 11.1682C22.7979 11.4406 22.2005 11.8407 21.6974 12.344L20.4611 13.5803C20.0706 13.9708 19.4376 13.9707 19.0471 13.5803L17.8098 12.344C16.7937 11.3279 15.4157 10.7571 13.9787 10.7571C12.5418 10.7571 11.1637 11.3279 10.1476 12.344C9.13165 13.3601 8.56073 14.7381 8.56073 16.175C8.56077 17.612 9.13159 18.99 10.1476 20.0061L19.7531 29.6116L29.3605 20.0061L29.5441 19.8127C29.9613 19.3525 30.297 18.8234 30.5353 18.2483C30.8077 17.591 30.9474 16.8865 30.9474 16.175ZM32.9474 16.175C32.9474 17.1492 32.7559 18.1139 32.383 19.0139C32.0101 19.9138 31.4635 20.7315 30.7746 21.4202L20.4611 31.7336C20.2736 31.9211 20.0192 32.0266 19.7541 32.0266C19.4889 32.0266 19.2346 31.9211 19.0471 31.7336L8.73358 21.4202C7.34246 20.029 6.56077 18.1424 6.56073 16.175C6.56073 14.2077 7.34251 12.3211 8.73358 10.9299C10.1247 9.5388 12.0114 8.75713 13.9787 8.75708C15.9461 8.75708 17.8336 9.53875 19.2248 10.9299L19.7541 11.4592L20.2834 10.9299L20.5471 10.678C21.1773 10.1065 21.902 9.64692 22.6896 9.32056C23.5896 8.94767 24.5544 8.75616 25.5285 8.7561C26.5028 8.7561 27.4683 8.94762 28.3683 9.32056C29.268 9.69335 30.0851 10.2403 30.7736 10.929C31.4627 11.6177 32.0101 12.4361 32.383 13.3362C32.7558 14.2361 32.9474 15.2009 32.9474 16.175Z" fill="#0F2B4D"/>
</svg>
