<svg width="40" height="40" viewBox="0 0 40 40" fill="none" xmlns="http://www.w3.org/2000/svg">
<ellipse cx="20" cy="13.2599" rx="6.22279" ry="6.2228" fill="white"/>
<ellipse cx="20" cy="13.2599" rx="6.22279" ry="6.2228" fill="#1E7784" fill-opacity="0.3"/>
<path d="M10.1569 19.5635C11.6201 19.5635 12.8697 20.2739 14.193 21.0254C16.1618 22.1434 18.3934 23.4101 22.1413 22.9004C22.7097 22.8231 23.2507 22.8552 23.7487 22.9941C24.723 23.2659 25.4985 23.9462 25.8756 24.8604C26.1342 25.4872 26.1984 26.1469 26.069 26.7695C27.4716 26.3828 28.7602 25.8932 29.8141 25.4932C31.3254 24.9197 32.9496 25.5157 33.6627 26.8857C34.4196 28.34 33.8601 30.1497 32.4167 30.9209C30.5441 31.9213 26.6473 34.0029 20.7731 34.0029C16.1467 34.0029 11.946 32.2502 9.23696 30.7803C8.22777 30.2328 7.54232 30.281 7.3815 30.3027C7.28987 30.3276 7.19387 30.3427 7.09439 30.3428C6.49025 30.3428 6.00064 29.8522 6.00064 29.248C6.00085 28.7413 6.34625 28.3163 6.81411 28.1924L6.81216 28.1875C6.96541 28.1466 8.36552 27.8182 10.2809 28.8574C12.7673 30.2065 16.6058 31.8144 20.7731 31.8145C25.4542 31.8145 28.6402 30.4577 31.3854 28.9912C31.7763 28.7823 31.9275 28.2917 31.7223 27.8975C31.4931 27.4569 30.9707 27.3948 30.5905 27.5391C28.3224 28.4 24.7596 29.7167 20.6032 29.7354C19.409 29.7354 18.144 29.5922 17.0983 29.3174C16.5141 29.1638 16.1645 28.5657 16.318 27.9814C16.4717 27.3975 17.0699 27.0488 17.654 27.2021C18.5469 27.4368 19.5633 27.5565 20.6032 27.5488C21.5728 27.5382 22.423 27.4212 23.0221 27.2021C23.4369 27.0504 23.7384 26.8015 23.8708 26.501C23.9786 26.2558 23.9728 25.9843 23.8532 25.6943C23.6989 25.3205 23.3914 25.1649 23.1608 25.1006C22.9543 25.043 22.7035 25.032 22.4362 25.0684C21.7536 25.1612 21.1095 25.2031 20.5016 25.2031C17.1204 25.2032 14.8454 23.9115 13.1129 22.9277C11.9559 22.2707 11.0422 21.751 10.1569 21.751C8.51613 21.751 7.42056 22.248 7.42056 22.248C6.84396 22.4285 6.23089 22.1077 6.05044 21.5312C5.87001 20.9547 6.19069 20.3406 6.76724 20.1602C6.76724 20.1602 8.29736 19.5635 10.1569 19.5635Z" fill="#0F2B4D"/>
<path d="M20.111 9.62988C20.52 9.62988 20.852 9.95469 20.8522 10.3555V10.4893C21.0425 10.5384 21.2536 10.6049 21.4909 10.6953C21.8721 10.8406 22.061 11.262 21.9127 11.6357C21.7644 12.0092 21.335 12.1941 20.9538 12.0488C20.3982 11.8371 20.0782 11.8076 19.8151 11.8076C19.6109 11.8076 19.445 11.9707 19.445 12.1709C19.445 12.3778 19.7151 12.5341 20.0739 12.5342C20.5946 12.5342 21.0872 12.7117 21.4596 13.0352C21.8504 13.3747 22.0738 13.8537 22.0739 14.3486C22.0739 15.1284 21.565 15.7954 20.8522 16.0518V16.1641C20.8521 16.5649 20.52 16.8896 20.111 16.8896C19.7021 16.8895 19.3709 16.5648 19.3708 16.1641V16.0693C19.0689 16.0093 18.7322 15.9182 18.3932 15.7861C18.013 15.638 17.8271 15.2154 17.9782 14.8428C18.1293 14.4703 18.5601 14.2886 18.9401 14.4365C19.5199 14.6623 20.0489 14.7119 20.2038 14.7119C20.4145 14.7119 20.5924 14.5454 20.5924 14.3486C20.5923 14.152 20.3549 13.9863 20.0739 13.9863C18.8705 13.9862 17.9626 13.2055 17.9626 12.1709C17.9626 11.3203 18.5636 10.6048 19.3708 10.4092V10.3555C19.371 9.95477 19.7021 9.63001 20.111 9.62988Z" fill="#0F2B4D"/>
<path fill-rule="evenodd" clip-rule="evenodd" d="M20.0016 6C24.0728 6.00011 27.3844 9.3126 27.3844 13.3838C27.3843 17.4548 24.0727 20.7665 20.0016 20.7666C15.9304 20.7666 12.618 17.4549 12.6178 13.3838C12.6178 9.31253 15.9304 6 20.0016 6ZM20.0016 8.1875C17.1367 8.1875 14.8053 10.5188 14.8053 13.3838C14.8055 16.2486 17.1368 18.5791 20.0016 18.5791C22.8664 18.579 25.1968 16.2485 25.1969 13.3838C25.1969 10.5189 22.8665 8.18761 20.0016 8.1875Z" fill="#0F2B4D"/>
</svg>
