<svg width="32" height="32" viewBox="0 0 32 32" fill="none" xmlns="http://www.w3.org/2000/svg">
<path d="M16.0014 16.7658C20.0727 16.7658 23.3849 13.4535 23.3849 9.38228C23.3849 5.31102 20.0727 1.99878 16.0014 1.99878C11.9302 1.99878 8.61792 5.31102 8.61792 9.38228C8.61792 13.4535 11.9301 16.7658 16.0014 16.7658ZM16.0014 4.18648C18.8664 4.18648 21.1972 6.51731 21.1972 9.38228C21.1972 12.2472 18.8664 14.5781 16.0014 14.5781C13.1365 14.5781 10.8056 12.2472 10.8056 9.38228C10.8056 6.51731 13.1365 4.18648 16.0014 4.18648Z" fill="#0F2B4D"/>
<path d="M29.6623 22.8845C28.9492 21.5145 27.3257 20.9189 25.8144 21.4924C24.7605 21.8924 23.4718 22.3813 22.0692 22.7681C22.1986 22.1453 22.134 21.4857 21.8753 20.8587C21.4982 19.9444 20.723 19.2642 19.7487 18.9925C19.2506 18.8536 18.71 18.8223 18.1415 18.8995C14.3936 19.4093 12.1623 18.142 10.1934 17.0239C8.87006 16.2724 7.62017 15.5625 6.15692 15.5625C4.29738 15.5625 2.76741 16.1594 2.76741 16.1594C2.19084 16.3398 1.86979 16.9535 2.05023 17.53C2.23066 18.1066 2.8442 18.4278 3.42087 18.2472C3.42087 18.2472 4.51615 17.7502 6.15692 17.7502C7.04229 17.7502 7.95609 18.2692 9.11311 18.9262C10.8455 19.91 13.1202 21.202 16.5014 21.2019C17.1094 21.2019 17.7536 21.1601 18.4363 21.0673C18.7038 21.0309 18.9544 21.0421 19.1609 21.0997C19.3915 21.164 19.6987 21.3192 19.853 21.693C19.9727 21.983 19.9787 22.2543 19.8707 22.4995C19.7384 22.8003 19.4369 23.0495 19.0218 23.2013C18.4227 23.4203 17.5728 23.537 16.6032 23.5477C15.5633 23.5553 14.5473 23.4354 13.6543 23.2007C13.0701 23.0472 12.4719 23.3964 12.3184 23.9807C12.1648 24.565 12.5141 25.1631 13.0983 25.3166C14.144 25.5914 15.409 25.7354 16.6032 25.7354C20.7597 25.7168 24.3226 24.3987 26.5906 23.5378C26.9708 23.3935 27.4934 23.4556 27.7226 23.8962C27.9278 24.2904 27.7767 24.781 27.3858 24.9899C24.6405 26.4565 21.4548 27.8137 16.7734 27.8137C12.6059 27.8137 8.76712 26.2054 6.28069 24.8563C4.36531 23.8171 2.96561 24.1453 2.81237 24.1862L2.81368 24.1911C2.34567 24.3151 2.00024 24.7403 2.00024 25.2473C2.00024 25.8515 2.48995 26.3412 3.09409 26.3412C3.19368 26.3412 3.28972 26.3267 3.38144 26.3017C3.54213 26.28 4.22781 26.2314 5.23738 26.7792C7.94646 28.2491 12.1469 30.0014 16.7734 30.0014C22.6478 30.0014 26.5442 27.9198 28.4167 26.9194C29.8602 26.1482 30.4194 24.3388 29.6623 22.8845Z" fill="#0F2B4D"/>
<path d="M16.2038 10.7107C16.049 10.7107 15.5202 10.6612 14.9403 10.4354C14.5603 10.2873 14.1294 10.4692 13.9783 10.8418C13.8272 11.2145 14.0129 11.6366 14.3931 11.7847C14.7321 11.9167 15.0685 12.008 15.3705 12.0681V12.1627C15.3705 12.5637 15.7021 12.8887 16.1112 12.8887C16.5204 12.8887 16.852 12.5637 16.852 12.1627V12.0502C17.5649 11.7938 18.0743 11.1275 18.0743 10.3477C18.0743 9.85268 17.8501 9.374 17.4591 9.03438C17.0867 8.71088 16.5949 8.53272 16.0742 8.53272C15.7152 8.53272 15.4445 8.37667 15.4445 8.16972C15.4445 7.96957 15.6107 7.80673 15.8149 7.80673C16.078 7.80673 16.3981 7.83591 16.9539 8.04775C17.3352 8.19303 17.7645 8.00793 17.9128 7.63426C18.061 7.26056 17.8721 6.83981 17.4909 6.6945C17.2535 6.60404 17.0423 6.53751 16.852 6.48832V6.35474C16.852 5.95377 16.5203 5.62875 16.1112 5.62875C15.7021 5.62875 15.3704 5.95377 15.3704 6.35474V6.40795C14.5633 6.60361 13.963 7.31911 13.963 8.16972C13.963 9.20444 14.8706 9.9847 16.0742 9.9847C16.3553 9.9847 16.5927 10.151 16.5927 10.3477C16.5927 10.5444 16.4146 10.7107 16.2038 10.7107Z" fill="#0F2B4D"/>
</svg>
