<svg width="40" height="40" viewBox="0 0 40 40" fill="none" xmlns="http://www.w3.org/2000/svg">
<circle cx="20" cy="20.0001" r="13.5948" fill="white"/>
<circle cx="20" cy="20.0001" r="13.5948" fill="#1E7784" fill-opacity="0.3"/>
<path d="M5.99548 17.5326C6.32489 17.5419 6.63368 17.6959 6.83923 17.9535L9.307 21.0492C9.69224 21.5325 9.61309 22.2368 9.13024 22.6224C8.64672 23.0075 7.94138 22.9281 7.55602 22.4447L6.97887 21.7211C7.25914 23.5557 7.93827 25.3155 8.9779 26.8715C10.3763 28.9643 12.3644 30.5956 14.6898 31.559C17.0152 32.5222 19.5747 32.7744 22.0433 32.2836C24.512 31.7925 26.78 30.5799 28.5599 28.8002C28.9971 28.363 29.7066 28.3632 30.1439 28.8002C30.5811 29.2374 30.5812 29.9469 30.1439 30.3842C28.0508 32.477 25.3829 33.9024 22.4799 34.4799C19.5769 35.0571 16.5669 34.761 13.8324 33.6283C11.0979 32.4954 8.76002 30.5766 7.11559 28.1156C5.83087 26.1927 5.01596 24.0051 4.72009 21.7289L4.0404 22.4926C3.62889 22.9536 2.92077 22.9945 2.45934 22.5834C1.99804 22.1721 1.95766 21.4639 2.36852 21.0023L5.12829 17.9066C5.3478 17.6606 5.66589 17.5236 5.99548 17.5326Z" fill="#0F2B4D"/>
<path fill-rule="evenodd" clip-rule="evenodd" d="M20.0004 10.6683C20.6184 10.6686 21.1203 11.1704 21.1205 11.7885V13.6547H23.7318C24.3501 13.6547 24.8517 14.1566 24.8519 14.7748C24.8517 15.3929 24.35 15.8949 23.7318 15.8949H21.1205V18.8803H21.8656C22.8554 18.8803 23.8053 19.2742 24.5052 19.974C25.2048 20.6738 25.5979 21.6232 25.598 22.6127C25.5979 23.6021 25.2047 24.5516 24.5052 25.2513C23.8053 25.951 22.8553 26.3451 21.8656 26.3451H21.1205V28.2103C21.1205 28.8286 20.6186 29.3302 20.0004 29.3304C19.382 29.3304 18.8802 28.8287 18.8802 28.2103V26.3451H15.5209C14.9028 26.3449 14.401 25.843 14.4008 25.225C14.4011 24.607 14.9029 24.1061 15.5209 24.1058H18.8802V21.1195H18.1332C17.1437 21.1193 16.1943 20.7264 15.4945 20.0267C14.7948 19.3269 14.4009 18.3767 14.4008 17.3871C14.4009 16.3977 14.795 15.4482 15.4945 14.7484C16.1943 14.0487 17.1436 13.6549 18.1332 13.6547H18.8802V11.7885C18.8805 11.1703 19.3821 10.6684 20.0004 10.6683ZM21.1205 24.1058H21.8656C22.2613 24.1058 22.6413 23.948 22.9213 23.6683C23.201 23.3885 23.3586 23.0084 23.3588 22.6127C23.3587 22.2169 23.2011 21.8369 22.9213 21.557C22.6413 21.2773 22.2614 21.1195 21.8656 21.1195H21.1205V24.1058ZM18.1332 15.8949C17.7376 15.8951 17.3573 16.0517 17.0775 16.3314C16.7979 16.6112 16.6412 16.9916 16.641 17.3871C16.6411 17.7826 16.798 18.1629 17.0775 18.4428C17.3573 18.7225 17.7375 18.8801 18.1332 18.8803H18.8802V15.8949H18.1332Z" fill="#0F2B4D"/>
<path d="M16.8773 5.5199C19.7802 4.94261 22.7903 5.2389 25.5248 6.37146C28.2592 7.50426 30.5971 9.42327 32.2416 11.8842C33.5918 13.9052 34.4242 16.2189 34.6791 18.6205L35.3158 17.9066C35.7272 17.4452 36.4353 17.4046 36.8968 17.8158C37.358 18.2273 37.3988 18.9354 36.9877 19.3969L34.2279 22.4926C34.0084 22.7386 33.6903 22.8755 33.3607 22.8666C33.0315 22.8572 32.7225 22.703 32.517 22.4457L30.0492 19.35C29.664 18.8667 29.7431 18.1623 30.2259 17.7767C30.7095 17.3913 31.4147 17.471 31.8002 17.9545L32.4418 18.7592C32.2129 16.7519 31.5092 14.8195 30.3793 13.1283C28.9808 11.0356 26.9926 9.40408 24.6674 8.4408C22.3419 7.47768 19.7825 7.22522 17.3138 7.71619C14.8451 8.20732 12.5771 9.41971 10.7972 11.1996C10.3601 11.6367 9.65053 11.6364 9.21325 11.1996C8.77644 10.7623 8.77619 10.0527 9.21325 9.6156C11.3063 7.52254 13.9742 6.09744 16.8773 5.5199Z" fill="#0F2B4D"/>
</svg>
