<svg width="40" height="40" viewBox="0 0 40 40" fill="none" xmlns="http://www.w3.org/2000/svg">
<path d="M10.05 19.922H7.62469V13.5676H32.7512V19.922H30.0833V32.6308H10.05V19.922Z" fill="white"/>
<path d="M10.05 19.922H7.62469V13.5676H32.7512V19.922H30.0833V32.6308H10.05V19.922Z" fill="#1E7784" fill-opacity="0.3"/>
<path fill-rule="evenodd" clip-rule="evenodd" d="M25.625 6.5C26.719 6.5 27.7684 6.93442 28.542 7.70801C29.3156 8.4816 29.75 9.53098 29.75 10.625C29.75 11.3798 29.5435 12.1136 29.1611 12.75H32.5C33.0523 12.75 33.5 13.1977 33.5 13.75V20C33.5 20.5523 33.0523 21 32.5 21H31V32.5C31 33.0523 30.5523 33.5 30 33.5H10C9.44772 33.5 9 33.0523 9 32.5V21H7.5C6.94772 21 6.5 20.5523 6.5 20V13.75C6.5 13.1977 6.94772 12.75 7.5 12.75H10.8389C10.4565 12.1136 10.25 11.3798 10.25 10.625C10.25 9.53098 10.6844 8.4816 11.458 7.70801C12.2316 6.93442 13.281 6.5 14.375 6.5C17.1186 6.5 18.7862 8.47463 19.7041 10.1436C19.8107 10.3375 19.9088 10.5312 20 10.7217C20.0912 10.5312 20.1893 10.3374 20.2959 10.1436C21.2138 8.47463 22.8814 6.5 25.625 6.5ZM11 31.5H19V21H11V31.5ZM21 31.5H29V21H21V31.5ZM8.5 19H19V14.75H8.5V19ZM21 19H31.5V14.75H21V19ZM14.375 8.5C13.8114 8.5 13.2706 8.72356 12.8721 9.12207C12.4736 9.52059 12.25 10.0614 12.25 10.625C12.25 11.1886 12.4736 11.7294 12.8721 12.1279C13.2706 12.5264 13.8114 12.75 14.375 12.75H18.6729C18.5025 12.2606 18.2676 11.6799 17.9521 11.1064C17.1513 9.65049 16.0063 8.5 14.375 8.5ZM25.625 8.5C23.9937 8.5 22.8487 9.6505 22.0479 11.1064C21.7324 11.6799 21.4975 12.2606 21.3271 12.75H25.625C26.1886 12.75 26.7294 12.5264 27.1279 12.1279C27.5264 11.7294 27.75 11.1886 27.75 10.625C27.75 10.0614 27.5264 9.52058 27.1279 9.12207C26.7294 8.72356 26.1886 8.5 25.625 8.5Z" fill="#0F2B4D"/>
</svg>
