<svg width="40" height="40" viewBox="0 0 40 40" fill="none" xmlns="http://www.w3.org/2000/svg">
<path d="M28.3653 14.1663C28.3653 21.5301 23.5897 27.4997 17.6987 27.4997C11.8076 27.4997 7.03201 21.5301 7.03201 14.1663C7.03201 6.80254 11.8076 0.833008 17.6987 0.833008C23.5897 0.833008 28.3653 6.80254 28.3653 14.1663Z" fill="white"/>
<path d="M28.3653 14.1663C28.3653 21.5301 23.5897 27.4997 17.6987 27.4997C11.8076 27.4997 7.03201 21.5301 7.03201 14.1663C7.03201 6.80254 11.8076 0.833008 17.6987 0.833008C23.5897 0.833008 28.3653 6.80254 28.3653 14.1663Z" fill="#1E7784" fill-opacity="0.3"/>
<path fill-rule="evenodd" clip-rule="evenodd" d="M11.3839 10.5C11.9361 10.5001 12.3839 10.9478 12.3839 11.5C12.3838 12.0521 11.936 12.4999 11.3839 12.5H8.68273C8.65562 14.3135 8.57653 15.9571 8.70128 17.5449C8.8448 19.3707 9.2539 20.9195 10.2423 22.2041C12.4436 25.065 14.6992 26.5 17.5402 26.5C20.4131 26.4998 22.9805 25.0306 25.1554 22.2041C26.1438 20.9195 26.5529 19.3707 26.6964 17.5449C26.8211 15.9571 26.743 14.3135 26.7159 12.5H24.0138C23.4616 12.5 23.0139 12.0522 23.0138 11.5C23.0138 10.9477 23.4615 10.5 24.0138 10.5H27.7071C28.2592 10.5002 28.7071 10.9479 28.7071 11.5C28.7072 13.5252 28.8454 15.7301 28.6905 17.7012C28.5318 19.7209 28.0615 21.7081 26.7413 23.4238C24.5641 26.2535 21.8615 28.0702 18.7101 28.4316C18.6848 29.9863 18.656 31.9688 19.13 33.7139C19.4112 34.7492 19.8486 35.6014 20.4923 36.1914C21.1153 36.7623 22.0179 37.1669 23.3986 37.167C24.0732 37.1669 24.9553 36.8744 25.7794 36.3643C26.2889 36.0488 26.7132 35.6874 27.0216 35.3359C26.4086 34.6807 26.0324 33.8011 26.0323 32.833C26.0325 30.8081 27.6744 29.166 29.6993 29.166C31.7241 29.1663 33.3652 30.8082 33.3653 32.833C33.3652 34.8578 31.7241 36.4988 29.6993 36.499C29.3732 36.499 29.057 36.4559 28.756 36.376C28.2481 37.0353 27.5551 37.6168 26.8321 38.0645C25.8108 38.6967 24.5639 39.1669 23.3986 39.167C21.5868 39.1669 20.1815 38.6187 19.1417 37.666C18.1227 36.7322 17.5399 35.4883 17.2003 34.2383C16.6619 32.256 16.6799 30.0041 16.7071 28.4639C13.4274 28.1936 10.8879 26.3228 8.65734 23.4238C7.33721 21.7081 6.86684 19.7209 6.70812 17.7012C6.55326 15.7301 6.69151 13.5252 6.69152 11.5C6.69152 11.2348 6.79696 10.9805 6.98449 10.793C7.17201 10.6055 7.42638 10.5 7.69152 10.5H11.3839ZM29.6993 31.166C28.7789 31.166 28.0325 31.9126 28.0323 32.833C28.0325 33.7533 28.779 34.499 29.6993 34.499C30.6195 34.4988 31.3652 33.7532 31.3653 32.833C31.3652 31.9128 30.6195 31.1663 29.6993 31.166Z" fill="#0F2B4D"/>
</svg>
