<svg width="32" height="32" viewBox="0 0 32 32" fill="none" xmlns="http://www.w3.org/2000/svg">
<path fill-rule="evenodd" clip-rule="evenodd" d="M21.625 2.5C22.719 2.5 23.7684 2.93442 24.542 3.70801C25.3156 4.4816 25.75 5.53098 25.75 6.625C25.75 7.37984 25.5435 8.11359 25.1611 8.75H28.5C29.0523 8.75 29.5 9.19772 29.5 9.75V16C29.5 16.5523 29.0523 17 28.5 17H27V28.5C27 29.0523 26.5523 29.5 26 29.5H6C5.44772 29.5 5 29.0523 5 28.5V17H3.5C2.94772 17 2.5 16.5523 2.5 16V9.75C2.5 9.19772 2.94772 8.75 3.5 8.75H6.83887C6.45654 8.11359 6.25 7.37984 6.25 6.625C6.25 5.53098 6.68442 4.4816 7.45801 3.70801C8.2316 2.93442 9.28098 2.5 10.375 2.5C13.1186 2.5 14.7862 4.47463 15.7041 6.14355C15.8107 6.33745 15.9088 6.53119 16 6.72168C16.0912 6.53119 16.1893 6.33745 16.2959 6.14355C17.2138 4.47463 18.8814 2.5 21.625 2.5ZM7 27.5H15V17H7V27.5ZM17 27.5H25V17H17V27.5ZM4.5 15H15V10.75H4.5V15ZM17 15H27.5V10.75H17V15ZM10.375 4.5C9.81141 4.5 9.27059 4.72356 8.87207 5.12207C8.47356 5.52059 8.25 6.06141 8.25 6.625C8.25 7.18858 8.47356 7.72941 8.87207 8.12793C9.27059 8.52644 9.81141 8.75 10.375 8.75H14.6729C14.5025 8.2606 14.2676 7.67991 13.9521 7.10645C13.1513 5.65049 12.0063 4.5 10.375 4.5ZM21.625 4.5C19.9937 4.5 18.8487 5.6505 18.0479 7.10645C17.7324 7.67991 17.4975 8.2606 17.3271 8.75H21.625C22.1886 8.75 22.7294 8.52644 23.1279 8.12793C23.5264 7.72941 23.75 7.18858 23.75 6.625C23.75 6.06142 23.5264 5.52058 23.1279 5.12207C22.7294 4.72356 22.1886 4.5 21.625 4.5Z" fill="#0F2B4D"/>
</svg>
