<svg width="100" height="100" viewBox="0 0 100 100" fill="none" xmlns="http://www.w3.org/2000/svg">
<g clip-path="url(#clip0_7087_5255)">
<circle cx="50" cy="50" r="50" fill="#CBE4E7"/>
</g>
<g clip-path="url(#clip1_7087_5255)">
<path d="M34.6483 24.6467L32.9596 25.6601L32.284 28.8688L34.6483 33.8509L37.6039 37.6507L34.6483 40.5217L28.6531 45.5882L24.7687 51.2458L23.7554 63.7432L26.0355 71.6807L30.5953 74.805L35.324 75.8183H71.4523V66.5738V60.9303V57.8746L75.425 53.9019L73.0738 50.4156L63.2741 40.5217L60.4876 37.6507L65.8918 28.8688L64.7941 25.6601L62.4297 24.6467H34.6483Z" fill="white"/>
<path d="M67.0625 60.3906C60.9293 60.3906 56.125 57.0276 56.125 52.7344C56.125 48.4412 60.9293 45.0781 67.0625 45.0781C73.1957 45.0781 78 48.4412 78 52.7344C78 57.0276 73.1957 60.3906 67.0625 60.3906ZM67.0625 49.4531C65.1578 49.4531 63.3254 49.9157 62.0348 50.7223C61.0593 51.332 60.5 52.0653 60.5 52.7344C60.5 53.4034 61.0593 54.1368 62.0348 54.7464C63.3254 55.5531 65.1578 56.0156 67.0625 56.0156C68.9672 56.0156 70.7996 55.5531 72.0902 54.7464C73.0657 54.1368 73.625 53.4034 73.625 52.7344C73.625 52.0653 73.0657 51.332 72.0902 50.7223C70.7996 49.9157 68.9672 49.4531 67.0625 49.4531ZM76.9862 74.9592C77.9647 74.2505 78.1833 72.8828 77.4747 71.9043C76.766 70.9258 75.3982 70.7071 74.4199 71.4157C70.3724 74.3473 63.5337 74.3473 59.4862 71.4157C58.5078 70.7071 57.14 70.9258 56.4315 71.9043C55.7228 72.8827 55.9416 74.2504 56.9199 74.9592C59.6274 76.92 63.1906 78 66.9531 78C70.7156 78 74.2788 76.92 76.9862 74.9592ZM76.9862 66.0998C77.9647 65.3911 78.1833 64.0234 77.4747 63.0449C76.766 62.0665 75.3982 61.8477 74.4199 62.5564C70.3724 65.4879 63.5337 65.4879 59.4862 62.5564C58.5078 61.8477 57.14 62.0665 56.4315 63.0449C55.7228 64.0233 55.9416 65.391 56.9199 66.0998C59.6274 68.0607 63.1906 69.1406 66.9531 69.1406C70.7156 69.1406 74.2788 68.0607 76.9862 66.0998ZM52.2969 75.8125C52.2969 74.6043 51.3175 73.625 50.1094 73.625H35.125C30.3003 73.625 26.375 69.6997 26.375 64.875V56.5329C26.375 52.2913 28.2863 48.3537 31.6188 45.7298L39.4314 39.5781C40.3156 38.8818 40.5274 37.6282 39.9205 36.6802L34.4797 28.1788C34.1417 27.6508 34.3385 27.1676 34.4388 26.9844C34.5391 26.8011 34.84 26.375 35.4669 26.375H62.6056C63.2305 26.375 63.5317 26.7992 63.6322 26.9815C63.7327 27.1638 63.9302 27.645 63.5963 28.1732L58.2133 36.6907C57.6198 37.6298 57.8245 38.8647 58.6893 39.5621L61.8612 42.1201C62.8016 42.8785 64.1787 42.7309 64.9372 41.7904C65.6956 40.85 65.548 39.4729 64.6077 38.7145L62.9532 37.3802L67.2947 30.5106C68.3747 28.8019 68.4395 26.6406 67.4641 24.8702C66.4887 23.0999 64.6269 22 62.6056 22H35.4669C33.439 22 31.5745 23.1051 30.6008 24.8841C29.6273 26.6631 29.7015 28.8292 30.7947 30.5373L35.1663 37.3678L28.9123 42.2923C26.7707 43.9786 25.0097 46.1661 23.8195 48.6182C22.6291 51.0703 22 53.8072 22 56.5329V64.875C22 72.1121 27.8879 78 35.125 78H50.1094C51.3175 78 52.2969 77.0207 52.2969 75.8125V75.8125ZM54.1562 37.8594C54.1562 36.6512 53.1769 35.6719 51.9688 35.6719H46.1719C44.9637 35.6719 43.9844 36.6512 43.9844 37.8594C43.9844 39.0675 44.9637 40.0469 46.1719 40.0469H51.9688C53.1769 40.0469 54.1562 39.0675 54.1562 37.8594Z" fill="#0F2B4D"/>
</g>
<defs>
<clipPath id="clip0_7087_5255">
<rect width="100" height="100" fill="white"/>
</clipPath>
<clipPath id="clip1_7087_5255">
<rect width="56" height="56" fill="white" transform="translate(22 22)"/>
</clipPath>
</defs>
</svg>
