<svg width="100" height="100" viewBox="0 0 100 100" fill="none" xmlns="http://www.w3.org/2000/svg">
<g clip-path="url(#clip0_7087_4026)">
<path d="M11.6924 23.4424C11.6924 12.3967 20.6467 3.44238 31.6924 3.44238H67.5601C78.6058 3.44238 87.5601 12.3967 87.5601 23.4424V76.766C87.5601 87.8117 78.6058 96.766 67.5601 96.766H31.6924C20.6467 96.766 11.6924 87.8117 11.6924 76.766V23.4424Z" fill="white"/>
<path fill-rule="evenodd" clip-rule="evenodd" d="M32.7129 54C33.3036 54 33.9662 54.0716 34.7002 54.2148C35.4341 54.3402 36.1326 54.5994 36.7949 54.9932C37.475 55.387 38.0294 55.9782 38.459 56.7656C38.8886 57.5533 39.1035 58.592 39.1035 59.8809C39.1035 60.919 38.9423 61.7873 38.6201 62.4854C38.2979 63.1834 37.8775 63.7566 37.3584 64.2041C36.8572 64.6337 36.3198 64.9646 35.7471 65.1973C35.1923 65.412 34.6642 65.5638 34.1631 65.6533C33.6619 65.7249 33.2679 65.7607 32.9814 65.7607H30.1348V71.9912C30.1345 72.5637 29.598 72.8495 28.5244 72.8496H27.6113C26.5375 72.8496 26.0003 72.5637 26 71.9912V55.0742C26 54.3582 26.3582 54 27.0742 54H32.7129ZM30.1348 62.2168H32.5254C32.7759 62.2168 33.0353 62.1894 33.3037 62.1357C33.59 62.0642 33.8494 61.9481 34.082 61.7871C34.3147 61.6082 34.5033 61.3667 34.6465 61.0625C34.7897 60.7582 34.8613 60.3641 34.8613 59.8809C34.8613 59.2364 34.736 58.7434 34.4854 58.4033C34.2348 58.0633 33.9302 57.8304 33.5723 57.7051C33.2144 57.5798 32.8654 57.5176 32.5254 57.5176H30.1348V62.2168Z" fill="#0F2B4D"/>
<path d="M73.8398 54C74.3769 54 74.6455 54.4477 74.6455 55.3428V56.1748C74.6455 57.0699 74.3769 57.5176 73.8398 57.5176H68.0664V62.2432H73.6523C74.1891 62.2434 74.458 62.6912 74.458 63.5859V64.4189C74.4579 65.3135 74.189 65.7605 73.6523 65.7607H68.0664V71.9912C68.0661 72.5637 67.5296 72.8495 66.4561 72.8496H65.543C64.4692 72.8496 63.9319 72.5637 63.9316 71.9912V55.0742C63.9316 54.3582 64.2898 54 65.0059 54H73.8398Z" fill="#0F2B4D"/>
<path fill-rule="evenodd" clip-rule="evenodd" d="M50.2021 54C52.0458 54 53.6031 54.3668 54.874 55.1006C56.1629 55.8166 57.1384 56.8732 57.8008 58.2695C58.4631 59.6658 58.7949 61.3756 58.7949 63.3984C58.7949 64.9199 58.6063 66.2623 58.2305 67.4258C57.8545 68.5894 57.2994 69.5743 56.5654 70.3799C55.8315 71.1674 54.9274 71.767 53.8535 72.1787C52.7975 72.5904 51.5804 72.7959 50.2021 72.7959H44.4561C43.7402 72.7959 43.382 72.4384 43.3818 71.7227V55.0742C43.3818 54.3582 43.74 54 44.4561 54H50.2021ZM47.5439 69.2783H50.2021C51.1686 69.2783 51.9738 69.0548 52.6182 68.6074C53.2626 68.1599 53.7461 67.4973 54.0684 66.6201C54.3905 65.743 54.5517 64.6692 54.5518 63.3984C54.5518 62.1274 54.3906 61.0529 54.0684 60.1758C53.7461 59.2987 53.2626 58.636 52.6182 58.1885C51.9739 57.7412 51.1685 57.5176 50.2021 57.5176H47.5439V69.2783Z" fill="#0F2B4D"/>
<path d="M55.2734 15.625C57.4309 15.625 59.1797 17.3738 59.1797 19.5312V26.1719C59.1797 29.4027 61.8082 32.0312 65.0391 32.0312H71.6797C73.8371 32.0312 75.5859 33.7801 75.5859 35.9375C75.5859 38.0949 73.8371 39.8438 71.6797 39.8438H65.0391C57.5004 39.8438 51.3672 33.7105 51.3672 26.1719V19.5312C51.3672 17.3738 53.116 15.625 55.2734 15.625Z" fill="#0F2B4D"/>
<path fill-rule="evenodd" clip-rule="evenodd" d="M67.9688 0C80.8922 0 91.4062 10.5141 91.4062 23.4375V76.5625C91.4062 89.4859 80.8922 100 67.9688 100H32.0312C19.1078 100 8.59375 89.4859 8.59375 76.5625V23.4375C8.59375 10.5141 19.1078 0 32.0312 0H67.9688ZM32.0312 7.8125C23.4156 7.8125 16.4062 14.8219 16.4062 23.4375V76.5625C16.4062 85.1781 23.4156 92.1875 32.0312 92.1875H67.9688C76.5844 92.1875 83.5938 85.1781 83.5938 76.5625V23.4375C83.5938 14.8219 76.5844 7.8125 67.9688 7.8125H32.0312Z" fill="#0F2B4D"/>
</g>
<defs>
<clipPath id="clip0_7087_4026">
<rect width="100" height="100" fill="white"/>
</clipPath>
</defs>
</svg>
