<svg width="100" height="100" viewBox="0 0 100 100" fill="none" xmlns="http://www.w3.org/2000/svg">
<g clip-path="url(#clip0_7087_4049)">
<path d="M81.999 37.1786C81.999 56.028 66.7186 71.3084 47.8691 71.3084C29.0197 71.3084 13.7393 56.028 13.7393 37.1786C13.7393 18.3291 29.0197 3.04867 47.8691 3.04867C66.7186 3.04867 81.999 18.3291 81.999 37.1786Z" fill="white"/>
<path d="M19.6767 56.7061L16.4594 47.8201C39.7978 41.4365 86.1468 33.0799 80.1575 48.2665C73.0461 66.2984 62.4961 72.7201 58.5197 76.6222L56.2195 77.6476H39.9796L35.1506 75.0908L30.4012 69.1158L19.6767 56.7061Z" fill="white"/>
<path d="M53.8975 88.667C54.5585 86.6179 56.7548 85.4923 58.8047 86.1533C60.8539 86.8144 61.9793 89.0115 61.3184 91.0605L59.3682 97.1035C58.8486 98.7137 57.3501 99.8047 55.6582 99.8047H39.8691C38.1772 99.8047 36.6777 98.714 36.1582 97.1035L34.209 91.0605C33.5482 89.0115 34.6735 86.8144 36.7227 86.1533C38.7714 85.4919 40.9689 86.6175 41.6299 88.667L42.708 92.0078H52.8193L53.8975 88.667Z" fill="#0F2B4D"/>
<path d="M79.623 57.4775C81.7764 57.4778 83.5215 59.2235 83.5215 61.377V62.0938C84.5234 62.3579 85.6353 62.7153 86.8848 63.2012C88.8917 63.9816 89.8861 66.2419 89.1055 68.249C88.325 70.2557 86.0656 71.2501 84.0586 70.4697C81.133 69.3321 79.4475 69.1748 78.0625 69.1748C76.9876 69.175 76.1133 70.0501 76.1133 71.125C76.1135 72.2364 77.5385 73.0742 79.4277 73.0742C82.1685 73.0742 84.7574 74.0311 86.7178 75.7686C88.7755 77.5926 89.9559 80.1635 89.9561 82.8223C89.9561 87.0103 87.2738 90.5898 83.5215 91.9668V92.5713C83.5213 94.7245 81.7763 96.4695 79.623 96.4697C77.4696 96.4697 75.7238 94.7247 75.7236 92.5713V92.0625C74.1346 91.7403 72.3635 91.2502 70.5791 90.541C68.5778 89.7456 67.6002 87.4779 68.3955 85.4766C69.191 83.4755 71.4578 82.4981 73.459 83.293C76.5115 84.5062 79.2954 84.7725 80.1104 84.7725C81.2197 84.7723 82.1572 83.8791 82.1572 82.8223C82.1569 81.7656 80.9071 80.8731 79.4277 80.873C73.0924 80.873 68.3146 76.6824 68.3145 71.125C68.3145 66.5562 71.475 62.7128 75.7236 61.6621V61.377C75.7236 59.2234 77.4695 57.4775 79.623 57.4775Z" fill="#0F2B4D"/>
<path d="M47.8613 0C57.9567 0.0636102 67.5066 3.59767 74.4512 9.96484C81.6906 16.6028 85.6777 25.8019 85.6777 35.8672C85.6777 39.7868 85.0556 43.7824 83.8291 47.7422C83.1923 49.799 81.0076 50.9492 78.9521 50.3125C76.8955 49.6755 75.7439 47.4924 76.3809 45.4355C77.3755 42.2238 77.8808 39.0048 77.8809 35.8682C77.8809 19.9106 64.9586 7.86543 47.8613 7.79785C30.7635 7.8651 17.8418 19.9103 17.8418 35.8682C17.8421 54.3199 34.9712 69.1123 39.2451 72.5146H57.6074C59.7605 72.5146 61.5057 74.26 61.5059 76.4131C61.5059 78.5663 59.7606 80.3115 57.6074 80.3115H37.9199C37.1026 80.3115 36.3057 80.0553 35.6426 79.5781C35.3812 79.3902 29.1716 74.8872 22.9307 67.3652C14.5003 57.2045 10.0441 46.3128 10.0439 35.8682C10.0439 25.8025 14.0319 16.6028 21.2715 9.96484C28.2161 3.59769 37.7661 0.0635471 47.8613 0Z" fill="#0F2B4D"/>
<path d="M47.5371 27.876C53.4182 27.912 58.1045 30.8428 59.4014 31.7393C60.5433 32.4192 61.3115 33.6624 61.3115 35.0879C61.3115 37.241 59.5661 38.9861 57.4131 38.9863C56.5332 38.9863 55.7231 38.6912 55.0703 38.1992L55.0576 38.2168L55.0752 38.2295C55.0524 38.2127 53.5452 37.1327 51.3701 36.3818V57.1152C51.37 59.2683 49.6238 61.0137 47.4707 61.0137C45.3178 61.0135 43.5724 59.2682 43.5723 57.1152V36.3682C41.3857 37.1157 39.8779 38.2 39.8555 38.2168C39.157 38.7359 38.3413 38.9862 37.5332 38.9863C36.3425 38.9865 35.1667 38.4431 34.4014 37.4141C33.1168 35.6862 33.4762 33.2438 35.2041 31.959C35.7649 31.5422 40.8326 27.9158 47.377 27.876H47.5371Z" fill="#0F2B4D"/>
</g>
<defs>
<clipPath id="clip0_7087_4049">
<rect width="100" height="100" fill="white"/>
</clipPath>
</defs>
</svg>
