<svg width="100" height="100" viewBox="0 0 100 100" fill="none" xmlns="http://www.w3.org/2000/svg">
<g clip-path="url(#clip0_7087_5258)">
<circle cx="50" cy="50" r="50" fill="#FFF4E5"/>
</g>
<g clip-path="url(#clip1_7087_5258)">
<path d="M53.251 66.2177C53.251 62.5064 56.2596 59.4977 59.971 59.4977H66.7358C70.4472 59.4977 73.4558 62.5064 73.4558 66.2177V68.986C73.4558 72.6974 70.4472 75.706 66.7358 75.706H59.971C56.2596 75.706 53.251 72.6974 53.251 68.986V66.2177Z" fill="white"/>
<circle cx="45.727" cy="37.0758" r="12.289" fill="white"/>
<path d="M69.8516 58.0239V55.1406C69.8516 51.5221 66.9076 48.5781 63.2891 48.5781C59.6705 48.5781 56.7266 51.5221 56.7266 55.1406V57.9868C53.2373 59.1378 50.7109 62.427 50.7109 66.2969V69.25C50.7109 74.0747 54.6362 78 59.4609 78H67.0078C71.8326 78 75.7578 74.0747 75.7578 69.25V66.2969C75.7578 62.4675 73.2841 59.2072 69.8516 58.0239ZM63.2891 52.9531C64.4952 52.9531 65.4766 53.9344 65.4766 55.1406V57.5469H61.1016V55.1406C61.1016 53.9344 62.0829 52.9531 63.2891 52.9531ZM71.3828 69.25C71.3828 71.6624 69.4202 73.625 67.0078 73.625H59.4609C57.0486 73.625 55.0859 71.6624 55.0859 69.25V66.2969C55.0859 63.8845 57.0486 61.9219 59.4609 61.9219H67.0078C69.4202 61.9219 71.3828 63.8845 71.3828 66.2969V69.25ZM45.5703 51.5312C53.7121 51.5312 60.3359 44.9074 60.3359 36.7656C60.3359 28.6239 53.7121 22 45.5703 22C37.4285 22 30.8047 28.6239 30.8047 36.7656C30.8047 44.9074 37.4285 51.5312 45.5703 51.5312ZM45.5703 26.375C51.2997 26.375 55.9609 31.0362 55.9609 36.7656C55.9609 42.495 51.2997 47.1562 45.5703 47.1562C39.8409 47.1562 35.1797 42.495 35.1797 36.7656C35.1797 31.0362 39.8409 26.375 45.5703 26.375ZM66.0964 67.7188C66.0964 69.2289 64.8722 70.4531 63.362 70.4531C61.8519 70.4531 60.6276 69.2289 60.6276 67.7188C60.6276 66.2086 61.8519 64.9844 63.362 64.9844C64.8722 64.9844 66.0964 66.2086 66.0964 67.7188ZM48.5234 58.0938C48.5234 59.3019 47.5441 60.2812 46.3359 60.2812H44.1484C35.5845 60.2812 28.6172 67.2485 28.6172 75.8125C28.6172 77.0207 27.6378 78 26.4297 78C25.2215 78 24.2422 77.0207 24.2422 75.8125C24.2422 64.8362 33.1721 55.9062 44.1484 55.9062H46.3359C47.5441 55.9062 48.5234 56.8856 48.5234 58.0938Z" fill="#0F2B4D"/>
</g>
<defs>
<clipPath id="clip0_7087_5258">
<rect width="100" height="100" fill="white"/>
</clipPath>
<clipPath id="clip1_7087_5258">
<rect width="56" height="56" fill="white" transform="translate(22 22)"/>
</clipPath>
</defs>
</svg>
