<svg width="100" height="100" viewBox="0 0 100 100" fill="none" xmlns="http://www.w3.org/2000/svg">
<g clip-path="url(#clip0_7087_5231)">
<circle cx="50" cy="50" r="50" fill="#E9F6ED"/>
</g>
<path d="M69.5869 27.6295C72.061 27.6297 74.0669 29.6354 74.0669 32.1095V56.8179C74.0668 57.9286 73.6611 58.9439 72.9917 59.7267V69.7537H55.5305V61.2979H29.98C27.5058 61.2979 25.5001 59.292 25.5 56.8179V32.1095C25.5 29.6353 27.5058 27.6295 29.98 27.6295H69.5869Z" fill="white"/>
<path d="M64 50C70.8041 50 76.3203 55.5162 76.3203 62.3203C76.3201 69.1243 70.804 74.6396 64 74.6396C57.196 74.6396 51.6799 69.1243 51.6797 62.3203C51.6797 55.5162 57.1959 50 64 50ZM71.1455 59.0732C70.3119 58.245 68.9641 58.2495 68.1357 59.083L68.0986 59.1201C68.074 59.1449 68.0381 59.1813 67.9912 59.2285C67.8977 59.3227 67.7615 59.4601 67.5918 59.6309C67.2521 59.9727 66.7765 60.4505 66.2363 60.9941C65.2045 62.0326 63.9338 63.3115 62.9082 64.3438L60.2822 61.9043C59.4212 61.1046 58.0743 61.1538 57.2744 62.0146C56.4747 62.8757 56.5248 64.2226 57.3857 65.0225L60.0898 67.5342C60.7887 68.2165 61.7352 68.7355 62.8584 68.7529C64.0194 68.7707 65.0247 68.2477 65.7793 67.4932L65.7842 67.4883C66.8329 66.4328 68.1754 65.0816 69.2559 63.9941C69.7962 63.4504 70.2707 62.9717 70.6104 62.6299C70.7802 62.459 70.9171 62.3227 71.0107 62.2285C71.0572 62.1817 71.0928 62.1447 71.1172 62.1201L71.1553 62.083L71.2305 62.0029C71.9824 61.1652 71.953 59.8757 71.1455 59.0732Z" fill="#27A74A"/>
<path d="M71.9798 46.64V31.52C71.9798 30.5148 71.1649 29.7 70.1598 29.7H29.2798C28.2746 29.7 27.4598 30.5148 27.4598 31.52V57.28C27.4598 58.2852 28.2746 59.1 29.2798 59.1H45.5198C46.6796 59.1 47.6198 60.0402 47.6198 61.2C47.6198 62.3598 46.6796 63.3 45.5198 63.3H29.2798C25.955 63.3 23.2598 60.6048 23.2598 57.28V31.52C23.2598 28.1952 25.955 25.5 29.2798 25.5H70.1598C73.4845 25.5 76.1798 28.1952 76.1798 31.52V46.64C76.1798 47.7998 75.2396 48.74 74.0798 48.74C72.92 48.74 71.9798 47.7998 71.9798 46.64Z" fill="#0F2B4D"/>
<path d="M30.3998 38.8C30.3998 38.1814 30.9012 37.68 31.5198 37.68H40.4798C41.0983 37.68 41.5998 38.1814 41.5998 38.8V43.84C41.5998 44.4586 41.0983 44.96 40.4798 44.96H31.5198C30.9012 44.96 30.3998 44.4586 30.3998 43.84V38.8Z" fill="#0F2B4D"/>
<path d="M30.3998 52.8C30.3998 52.1814 30.9012 51.68 31.5198 51.68H33.1998C33.8183 51.68 34.3198 52.1814 34.3198 52.8V54.48C34.3198 55.0986 33.8183 55.6 33.1998 55.6H31.5198C30.9012 55.6 30.3998 55.0986 30.3998 54.48V52.8Z" fill="#0F2B4D"/>
<path d="M37.1198 52.8C37.1198 52.1814 37.6212 51.68 38.2398 51.68H48.3198C48.9383 51.68 49.4398 52.1814 49.4398 52.8V54.48C49.4398 55.0986 48.9383 55.6 48.3198 55.6H38.2398C37.6212 55.6 37.1198 55.0986 37.1198 54.48V52.8Z" fill="#0F2B4D"/>
<path d="M44.3998 42.16C44.3998 41.5414 44.9012 41.04 45.5198 41.04H65.6798C66.2983 41.04 66.7998 41.5414 66.7998 42.16V43.84C66.7998 44.4586 66.2983 44.96 65.6798 44.96H45.5198C44.9012 44.96 44.3998 44.4586 44.3998 43.84V42.16Z" fill="#0F2B4D"/>
<defs>
<clipPath id="clip0_7087_5231">
<rect width="100" height="100" fill="white"/>
</clipPath>
</defs>
</svg>
