<svg width="100" height="100" viewBox="0 0 100 100" fill="none" xmlns="http://www.w3.org/2000/svg">
<g clip-path="url(#clip0_7087_4064)">
<path d="M55.8052 78.9602C55.8052 72.3328 61.1778 66.9602 67.8052 66.9602H79.8853C86.5127 66.9602 91.8853 72.3328 91.8853 78.9602V83.9036C91.8853 90.531 86.5127 95.9036 79.8853 95.9036H67.8052C61.1778 95.9036 55.8052 90.531 55.8052 83.9036V78.9602Z" fill="white"/>
<circle cx="42.3694" cy="26.9211" r="21.9446" fill="white"/>
<path d="M85.4492 64.3283V59.1797C85.4492 52.718 80.1922 47.4609 73.7305 47.4609C67.2687 47.4609 62.0117 52.718 62.0117 59.1797V64.2621C55.7809 66.3176 51.2695 72.191 51.2695 79.1016V84.375C51.2695 92.9906 58.2789 100 66.8945 100H80.3711C88.9867 100 95.9961 92.9906 95.9961 84.375V79.1016C95.9961 72.2635 91.5787 66.4414 85.4492 64.3283ZM73.7305 55.2734C75.8844 55.2734 77.6367 57.0258 77.6367 59.1797V63.4766H69.8242V59.1797C69.8242 57.0258 71.5766 55.2734 73.7305 55.2734ZM88.1836 84.375C88.1836 88.6828 84.6789 92.1875 80.3711 92.1875H66.8945C62.5867 92.1875 59.082 88.6828 59.082 84.375V79.1016C59.082 74.7937 62.5867 71.2891 66.8945 71.2891H80.3711C84.6789 71.2891 88.1836 74.7937 88.1836 79.1016V84.375ZM42.0898 52.7344C56.6287 52.7344 68.457 40.9061 68.457 26.3672C68.457 11.8283 56.6287 0 42.0898 0C27.551 0 15.7227 11.8283 15.7227 26.3672C15.7227 40.9061 27.551 52.7344 42.0898 52.7344ZM42.0898 7.8125C52.3209 7.8125 60.6445 16.1361 60.6445 26.3672C60.6445 36.5982 52.3209 44.9219 42.0898 44.9219C31.8588 44.9219 23.5352 36.5982 23.5352 26.3672C23.5352 16.1361 31.8588 7.8125 42.0898 7.8125ZM78.7436 81.6406C78.7436 84.3373 76.5574 86.5234 73.8607 86.5234C71.1641 86.5234 68.9779 84.3373 68.9779 81.6406C68.9779 78.9439 71.1641 76.7578 73.8607 76.7578C76.5574 76.7578 78.7436 78.9439 78.7436 81.6406ZM47.3633 64.4531C47.3633 66.6105 45.6145 68.3594 43.457 68.3594H39.5508C24.258 68.3594 11.8164 80.801 11.8164 96.0938C11.8164 98.2512 10.0676 100 7.91016 100C5.75273 100 4.00391 98.2512 4.00391 96.0938C4.00391 76.4932 19.9502 60.5469 39.5508 60.5469H43.457C45.6145 60.5469 47.3633 62.2957 47.3633 64.4531Z" fill="#0F2B4D"/>
</g>
<defs>
<clipPath id="clip0_7087_4064">
<rect width="100" height="100" fill="white"/>
</clipPath>
</defs>
</svg>
