<svg width="100" height="100" viewBox="0 0 100 100" fill="none" xmlns="http://www.w3.org/2000/svg">
<ellipse opacity="0.4" cx="43.4267" cy="35.4159" rx="25.2255" ry="33.3333" fill="white"/>
<ellipse opacity="0.4" cx="43.4267" cy="35.4159" rx="25.2255" ry="33.3333" fill="#1D7883"/>
<path d="M25.2259 25.2217C27.3245 25.2218 29.0257 26.9229 29.0257 29.0215C29.0257 31.1201 27.3245 32.8211 25.2259 32.8213H24.0016C24.0205 38.9699 24.1408 44.049 24.9304 48.3779C25.8185 53.2471 27.4958 56.81 30.6218 59.5752L30.9294 59.8398L31.1208 60.0137L31.1198 60.0127L31.1188 60.0107C31.123 60.0147 31.1297 60.0212 31.1384 60.0293C31.1659 60.0549 31.2156 60.1007 31.2858 60.1631C31.4271 60.2885 31.6513 60.481 31.9489 60.7188C32.5476 61.197 33.4275 61.8441 34.5192 62.4902C36.7492 63.8101 39.6042 64.9746 42.6257 64.9746C44.7243 64.9746 46.4255 66.6767 46.4255 68.7754C46.4253 70.8739 44.7242 72.5752 42.6257 72.5752C37.7289 72.5752 33.5114 70.725 30.6481 69.0303C29.1933 68.1692 28.0212 67.3085 27.2048 66.6562C26.7953 66.3291 26.4711 66.051 26.2409 65.8467C26.1257 65.7444 26.0331 65.6604 25.9655 65.5977C25.9511 65.5843 25.9377 65.572 25.9255 65.5605C20.9329 61.3044 18.5736 55.8806 17.4538 49.7412C16.356 43.7224 16.3962 36.6645 16.3962 29.0215C16.3962 28.0137 16.7969 27.0476 17.5095 26.335C18.222 25.6224 19.1882 25.2217 20.196 25.2217H25.2259Z" fill="#0F2B4D"/>
<path d="M61.2774 25.2217C59.1789 25.2218 57.4776 26.9229 57.4776 29.0215C57.4776 31.1201 59.1789 32.8211 61.2774 32.8213H62.6479C62.629 38.9699 62.5087 44.049 61.7191 48.3779C60.831 53.2471 59.1537 56.81 56.0277 59.5752L55.7201 59.8398L55.5287 60.0137L55.5297 60.0127L55.5307 60.0107C55.5264 60.0147 55.5198 60.0212 55.5111 60.0293C55.4836 60.0549 55.4339 60.1007 55.3637 60.1631C55.2224 60.2885 54.9982 60.481 54.7006 60.7188C54.1019 61.197 53.222 61.8441 52.1303 62.4902C49.9003 63.8101 47.0453 64.9746 44.0238 64.9746C41.9251 64.9746 40.224 66.6767 40.224 68.7754C40.2242 70.8739 41.9253 72.5752 44.0238 72.5752C48.9206 72.5752 53.1381 70.725 56.0014 69.0303C57.4562 68.1692 58.6283 67.3085 59.4447 66.6562C59.8542 66.3291 60.1784 66.051 60.4086 65.8467C60.5238 65.7444 60.6164 65.6604 60.684 65.5977C60.6984 65.5843 60.7118 65.572 60.724 65.5605C65.7166 61.3044 68.0759 55.8806 69.1957 49.7412C70.2935 43.7224 70.2533 36.6645 70.2533 29.0215C70.2533 28.0137 69.8526 27.0476 69.14 26.335C68.4274 25.6224 67.4613 25.2217 66.4535 25.2217H61.2774Z" fill="#0F2B4D"/>
<path d="M39.1925 82.5834C39.1924 77.9716 39.1925 70.9025 39.1925 68.8529C39.1925 66.7543 40.8937 65.0532 42.9923 65.0531C45.091 65.0531 46.7921 66.7542 46.7921 68.8529C46.7921 70.9029 46.7921 77.9715 46.7921 82.5834C46.7921 86.6988 48.4613 90.0107 50.9122 91.3109C53.1849 92.5164 57.8974 92.8849 66.1632 87.0316C67.8758 85.8189 70.2471 86.2235 71.4601 87.9359C72.6729 89.6487 72.2675 92.0209 70.5548 93.2338C61.3692 99.7383 53.3983 101.233 47.3507 98.0248C41.4812 94.9111 39.1925 88.2681 39.1925 82.5834Z" fill="#0F2B4D"/>
<path d="M77.2088 85.371C77.2086 83.5524 75.7335 82.078 73.9149 82.078C72.0964 82.0782 70.6221 83.5525 70.6219 85.371C70.6219 87.1896 72.0963 88.6647 73.9149 88.6649C75.7336 88.6649 77.2088 87.1897 77.2088 85.371ZM84.8084 85.371C84.8084 91.3871 79.931 96.2645 73.9149 96.2645C67.8989 96.2643 63.0223 91.387 63.0223 85.371C63.0225 79.3551 67.8991 74.4786 73.9149 74.4784C79.9309 74.4784 84.8082 79.355 84.8084 85.371Z" fill="#0F2B4D"/>
</svg>
