<svg width="100" height="100" viewBox="0 0 100 100" fill="none" xmlns="http://www.w3.org/2000/svg">
<g clip-path="url(#clip0_7087_5222)">
<circle cx="50" cy="50" r="50" fill="#FBEBEC"/>
</g>
<path d="M69.5869 27.6295C72.061 27.6297 74.0669 29.6354 74.0669 32.1095V56.8179C74.0668 57.9286 73.6611 58.9439 72.9917 59.7267V69.7537L64.2756 71.2309L55.5305 69.7537V61.2979H29.98C27.5058 61.2979 25.5001 59.292 25.5 56.8179V32.1095C25.5 29.6353 27.5058 27.6295 29.98 27.6295H69.5869Z" fill="white"/>
<path d="M64 50C70.8041 50 76.3203 55.5162 76.3203 62.3203C76.3201 69.1243 70.804 74.6396 64 74.6396C57.196 74.6396 51.6799 69.1243 51.6797 62.3203C51.6797 55.5162 57.1959 50 64 50ZM64.2393 65.7275C63.0642 65.7277 62.1113 66.6803 62.1113 67.8555C62.1115 69.0305 63.0642 69.9832 64.2393 69.9834C65.4144 69.9834 66.3671 69.0306 66.3672 67.8555C66.3672 66.6802 65.4145 65.7275 64.2393 65.7275ZM64.2393 55.0967C63.0642 55.0969 62.1113 56.0495 62.1113 57.2246V61.7041C62.1113 62.8792 63.0642 63.8318 64.2393 63.832C65.4145 63.832 66.3672 62.8794 66.3672 61.7041V57.2246C66.3672 56.0493 65.4145 55.0967 64.2393 55.0967Z" fill="#DC3545"/>
<path d="M71.9798 46.64V31.52C71.9798 30.5148 71.1649 29.7 70.1598 29.7H29.2798C28.2746 29.7 27.4598 30.5148 27.4598 31.52V57.28C27.4598 58.2852 28.2746 59.1 29.2798 59.1H45.5198C46.6796 59.1 47.6198 60.0402 47.6198 61.2C47.6198 62.3598 46.6796 63.3 45.5198 63.3H29.2798C25.955 63.3 23.2598 60.6048 23.2598 57.28V31.52C23.2598 28.1952 25.955 25.5 29.2798 25.5H70.1598C73.4845 25.5 76.1798 28.1952 76.1798 31.52V46.64C76.1798 47.7998 75.2396 48.74 74.0798 48.74C72.92 48.74 71.9798 47.7998 71.9798 46.64Z" fill="#0F2B4D"/>
<path d="M30.3998 38.8C30.3998 38.1814 30.9012 37.68 31.5198 37.68H40.4798C41.0983 37.68 41.5998 38.1814 41.5998 38.8V43.84C41.5998 44.4586 41.0983 44.96 40.4798 44.96H31.5198C30.9012 44.96 30.3998 44.4586 30.3998 43.84V38.8Z" fill="#0F2B4D"/>
<path d="M30.3998 52.8C30.3998 52.1814 30.9012 51.68 31.5198 51.68H33.1998C33.8183 51.68 34.3198 52.1814 34.3198 52.8V54.48C34.3198 55.0986 33.8183 55.6 33.1998 55.6H31.5198C30.9012 55.6 30.3998 55.0986 30.3998 54.48V52.8Z" fill="#0F2B4D"/>
<path d="M37.1198 52.8C37.1198 52.1814 37.6212 51.68 38.2398 51.68H48.3198C48.9383 51.68 49.4398 52.1814 49.4398 52.8V54.48C49.4398 55.0986 48.9383 55.6 48.3198 55.6H38.2398C37.6212 55.6 37.1198 55.0986 37.1198 54.48V52.8Z" fill="#0F2B4D"/>
<path d="M44.3998 42.16C44.3998 41.5414 44.9012 41.04 45.5198 41.04H65.6798C66.2983 41.04 66.7998 41.5414 66.7998 42.16V43.84C66.7998 44.4586 66.2983 44.96 65.6798 44.96H45.5198C44.9012 44.96 44.3998 44.4586 44.3998 43.84V42.16Z" fill="#0F2B4D"/>
<defs>
<clipPath id="clip0_7087_5222">
<rect width="100" height="100" fill="white"/>
</clipPath>
</defs>
</svg>
