<svg width="100" height="100" viewBox="0 0 100 100" fill="none" xmlns="http://www.w3.org/2000/svg">
<g clip-path="url(#clip0_7087_4046)">
<path d="M68.1746 27.1969H17.6053L11.8985 28.1481L7.14248 31.3186L3.49658 38.2936V45.4272L7.14248 73.486L10.1545 87.1191L18.5563 93.9357L25.8484 96.3136H72.4546L80.5394 95.2039L89.4167 87.1191L96.2333 39.4033L94.1725 34.0135L89.4167 29.2577L83.3928 27.1969H68.1746Z" fill="white"/>
<path d="M79.3135 27.542C79.3135 25.3849 81.0621 23.6363 83.2192 23.6363C87.464 23.6363 91.5142 25.222 94.6232 28.1012C97.6866 30.9377 99.5776 34.7766 99.9482 38.9105C100.141 41.059 98.5553 42.9568 96.4069 43.1493C96.2884 43.1601 96.1704 43.1652 96.0535 43.1652C94.0539 43.1652 92.3498 41.638 92.168 39.608C91.7577 35.0321 87.827 31.4478 83.2192 31.4478C81.0621 31.4478 79.3135 29.6992 79.3135 27.542ZM91.4964 82.2904C89.5924 81.2765 87.2273 81.9971 86.2128 83.901C83.4914 89.0089 78.206 92.1819 72.4189 92.1819H27.5944C19.6452 92.1819 12.9719 86.2259 12.0718 78.3279L7.86886 41.4478C7.57515 38.8702 8.36469 36.3846 10.0924 34.4491C11.8199 32.5136 14.1999 31.4478 16.7942 31.4478C18.9514 31.4478 20.7 29.6992 20.7 27.542C20.7 25.3849 18.9514 23.6363 16.7942 23.6363C12.0142 23.6363 7.44724 25.6817 4.26446 29.2477C1.08148 32.8138 -0.433553 37.5829 0.107782 42.3325L4.31054 79.2125C5.66076 91.0596 15.6706 99.9936 27.5944 99.9936H72.4191C81.0984 99.9936 89.0257 95.2348 93.1072 87.5741C94.1213 85.6701 93.4001 83.3048 91.4964 82.2904ZM31.8602 43.0668C34.0173 43.0668 35.7659 41.3182 35.7659 39.161V22.074C35.7659 14.2133 42.1612 7.8181 50.0219 7.8181C57.8825 7.8181 64.2778 14.2133 64.2778 22.074V23.6363H47.4831C45.326 23.6363 43.5774 25.3849 43.5774 27.542C43.5774 29.6992 45.326 31.4478 47.4831 31.4478H68.1835C70.3407 31.4478 72.0892 29.6992 72.0892 27.542V22.074C72.0892 9.90591 62.19 0.00663757 50.0219 0.00663757C37.8537 0.00663757 27.9545 9.90591 27.9545 22.074V39.161C27.9545 41.3182 29.7033 43.0668 31.8602 43.0668Z" fill="#0F2B4D"/>
<path fill-rule="evenodd" clip-rule="evenodd" d="M63.6223 48.4372C65.3698 48.4372 67.0145 48.7067 68.5442 49.2585L68.5452 49.2565C70.0592 49.7702 71.3648 50.4577 72.4085 51.3522C73.3658 52.1273 74.0051 53.168 74.0051 54.4528C74.0051 55.4276 73.6138 56.2787 72.9671 56.9635C72.2884 57.6821 71.4098 58.0992 70.3958 58.0993C69.7011 58.0993 69.0521 57.8832 68.4964 57.4665L68.4514 57.4323L68.4085 57.3952C68.1615 57.1791 67.7735 56.9314 67.1956 56.6745L67.1741 56.6657L67.1536 56.6559C66.5752 56.3774 65.9604 56.1503 65.3079 55.9762L65.2864 55.9704L65.2639 55.9635C64.636 55.7752 64.0916 55.694 63.6223 55.694C62.6847 55.694 61.9716 55.8142 61.4436 56.0065C60.9174 56.2074 60.6289 56.438 60.469 56.6403C60.3152 56.8351 60.2366 57.0482 60.2366 57.3395C60.2366 57.7527 60.34 58.0046 60.4827 58.1862C60.7218 58.4275 61.1143 58.6873 61.7424 58.9186C62.4764 59.1623 63.3802 59.3939 64.4651 59.6061C65.9896 59.8862 67.3499 60.2217 68.5383 60.6178C69.787 61.0259 70.883 61.5753 71.7883 62.2936C71.794 62.298 71.8003 62.3029 71.8059 62.3073C71.8084 62.3093 71.8112 62.3112 71.8137 62.3132C72.7569 63.0428 73.4632 63.9776 73.927 65.0905C74.3954 66.1896 74.5979 67.4604 74.5979 68.8512C74.5979 70.7506 74.0649 72.4615 72.9563 73.9089C71.8973 75.2915 70.5088 76.3331 68.8342 77.0426L68.8333 77.0417C67.2031 77.7429 65.4481 78.0866 63.5852 78.0866C61.7383 78.0866 60.0332 77.863 58.4856 77.3932L58.4622 77.3854C56.8632 76.8714 55.3694 75.9966 53.9807 74.7985C53.5239 74.4095 53.1482 73.9459 52.8792 73.4079C52.6148 72.8791 52.4612 72.3054 52.4612 71.7009C52.4613 70.745 52.8089 69.8851 53.4612 69.1921L53.4631 69.1911C54.1691 68.4436 55.0836 68.0544 56.1087 68.0544C56.8202 68.0544 57.4825 68.2582 58.0608 68.6481L58.304 68.8268L58.3098 68.8317L58.3147 68.8366C59.1675 69.5323 59.9764 70.0314 60.7385 70.361C61.4401 70.6538 62.3722 70.8307 63.5852 70.8307C64.3407 70.8307 65.0014 70.718 65.5823 70.5143C66.1764 70.2816 66.5915 70.0097 66.8782 69.7272C67.1005 69.488 67.1555 69.2973 67.1555 69.11C67.1555 68.6953 67.0414 68.4213 66.8508 68.1989C66.6257 67.9363 66.1959 67.6221 65.4231 67.3298L65.4065 67.3239L65.3899 67.3171C64.6289 67.0086 63.5989 66.7483 62.2659 66.5612L62.2551 66.5592C60.8368 66.3491 59.5514 66.0287 58.4133 65.5846L58.384 65.5729C57.2446 65.1004 56.2425 64.4989 55.4055 63.7516L55.384 63.7331L55.3635 63.7135C54.5508 62.9309 53.9263 62.0177 53.5003 60.9831L53.4944 60.9694C53.0688 59.9055 52.8684 58.7503 52.8684 57.5251C52.8684 55.6557 53.348 53.9682 54.3713 52.5417L54.3772 52.5339L54.384 52.5251C55.3961 51.1558 56.7422 50.131 58.3762 49.443C59.9872 48.7647 61.7429 48.4372 63.6223 48.4372Z" fill="#0F2B4D"/>
<path fill-rule="evenodd" clip-rule="evenodd" d="M86.8808 48.7246C87.6361 48.7349 88.3345 48.9763 88.9394 49.4199L88.9385 49.4209C89.568 49.8419 90.017 50.427 90.2861 51.1221L99.3926 72.8115L99.4014 72.833L99.4092 72.8545C99.5817 73.3031 99.6943 73.7841 99.6943 74.2813C99.6942 75.3044 99.3378 76.2513 98.5547 76.9639L98.5556 76.9649C98.5508 76.9694 98.5449 76.973 98.54 76.9775C98.5346 76.9825 98.5299 76.9883 98.5244 76.9932L98.5234 76.9922C97.8648 77.5998 97.0506 77.9649 96.1211 77.9649C95.3468 77.9648 94.6308 77.7208 94.0127 77.2676L93.9931 77.252L93.9736 77.2373C93.401 76.7874 92.9874 76.2005 92.707 75.5381L91.1748 71.9688H82.1181L80.5869 75.5713L80.5849 75.5703C80.3174 76.2607 79.8877 76.8574 79.2793 77.3037L79.2637 77.3154C78.6671 77.7415 77.9802 77.9649 77.2441 77.9649C76.3075 77.9648 75.3289 77.697 74.6308 76.8916C74.0476 76.2187 73.7832 75.4018 73.7832 74.54C73.7832 74.1508 73.8476 73.77 73.957 73.4053L73.9795 73.3311L74.0088 73.2598L83.2256 51.126C83.5209 50.3973 83.9893 49.7726 84.6484 49.3193L84.6836 49.2959C85.3428 48.8693 86.0893 48.665 86.8808 48.7246ZM85.2041 64.7119H88.0605L86.625 61.3672L85.2041 64.7119Z" fill="#0F2B4D"/>
<path fill-rule="evenodd" clip-rule="evenodd" d="M48.3442 48.87C49.3746 48.87 50.3324 49.2134 51.0698 49.9765C51.7949 50.7016 52.1391 51.6242 52.1391 52.6278V74.0214C52.1391 75.0512 51.7658 75.9787 51.0337 76.7109C50.2764 77.4681 49.2957 77.7792 48.27 77.7792C47.2846 77.7791 46.4033 77.4172 45.6782 76.7685L45.6479 76.7402L45.6186 76.7109C44.8865 75.9787 44.5122 75.0513 44.5122 74.0214V66.8974H35.7055V74.0214C35.7055 75.0779 35.2993 76.0139 34.5337 76.7392L34.5024 76.7685C33.7646 77.4286 32.8674 77.7792 31.8735 77.7792C30.8555 77.7792 29.8941 77.458 29.147 76.7109L29.1323 76.6962L29.1177 76.6806C28.4646 75.9891 28.1227 75.1391 28.0825 74.2089L28.0786 74.0214V52.6278C28.0786 51.6109 28.4451 50.6908 29.185 49.9765C29.94 49.2216 30.9027 48.87 31.9477 48.87C32.9623 48.8701 33.854 49.2679 34.56 49.9726C35.3156 50.6764 35.7055 51.5955 35.7055 52.6278V59.6405H44.5122V52.6278C44.5122 51.5836 44.9112 50.6551 45.6841 49.9482C46.417 49.2538 47.3242 48.8701 48.3442 48.87Z" fill="#0F2B4D"/>
</g>
<defs>
<clipPath id="clip0_7087_4046">
<rect width="100" height="100" fill="white"/>
</clipPath>
</defs>
</svg>
