<svg width="100" height="100" viewBox="0 0 100 100" fill="none" xmlns="http://www.w3.org/2000/svg">
<g clip-path="url(#clip0_7087_4058)">
<path d="M22.5865 4.72632L19.5709 6.53589L18.3645 12.2657L22.5865 21.1623L27.8642 27.9477L22.5865 33.0745L11.8806 42.1219L4.94436 52.2247L3.13477 74.5414L7.20641 88.7155L15.3489 94.2947L23.793 96.1041H88.3078V79.5961V69.5183V64.0618L95.402 56.9676L91.2034 50.7421L73.704 33.0745L68.728 27.9477L78.3784 12.2657L76.4182 6.53589L72.1961 4.72632H22.5865Z" fill="white"/>
<path d="M80.4688 68.5547C69.5166 68.5547 60.9375 62.5492 60.9375 54.8828C60.9375 47.2164 69.5166 41.2109 80.4688 41.2109C91.4209 41.2109 100 47.2164 100 54.8828C100 62.5492 91.4209 68.5547 80.4688 68.5547ZM80.4688 49.0234C77.0676 49.0234 73.7953 49.8494 71.4906 51.2898C69.7488 52.3785 68.75 53.6881 68.75 54.8828C68.75 56.0775 69.7488 57.3871 71.4906 58.4758C73.7953 59.9162 77.0676 60.7422 80.4688 60.7422C83.8699 60.7422 87.1422 59.9162 89.4469 58.4758C91.1887 57.3871 92.1875 56.0775 92.1875 54.8828C92.1875 53.6881 91.1887 52.3785 89.4469 51.2898C87.1422 49.8494 83.8699 49.0234 80.4688 49.0234ZM98.1896 94.5699C99.9369 93.3045 100.327 90.8621 99.0619 89.1148C97.7965 87.3676 95.3539 86.977 93.607 88.2424C86.3793 93.4773 74.1674 93.4773 66.9396 88.2424C65.1926 86.977 62.75 87.3676 61.4848 89.1148C60.2193 90.8619 60.61 93.3043 62.357 94.5699C67.1918 98.0715 73.5547 100 80.2734 100C86.9922 100 93.3551 98.0715 98.1896 94.5699ZM98.1896 78.7496C99.9369 77.4842 100.327 75.0418 99.0619 73.2945C97.7965 71.5473 95.3539 71.1566 93.607 72.4221C86.3793 77.657 74.1674 77.657 66.9396 72.4221C65.1926 71.1566 62.75 71.5473 61.4848 73.2945C60.2193 75.0416 60.61 77.484 62.357 78.7496C67.1918 82.2512 73.5547 84.1797 80.2734 84.1797C86.9922 84.1797 93.3551 82.2512 98.1896 78.7496ZM54.1016 96.0938C54.1016 93.9363 52.3527 92.1875 50.1953 92.1875H23.4375C14.8219 92.1875 7.8125 85.1781 7.8125 76.5625V61.6658C7.8125 54.0916 11.2256 47.0602 17.1764 42.3746L31.1275 31.3895C32.7064 30.1461 33.0846 27.9074 32.001 26.2146L22.2852 11.0336C21.6816 10.0906 22.033 9.22793 22.2121 8.90078C22.3912 8.57344 22.9285 7.8125 24.048 7.8125H72.51C73.626 7.8125 74.1637 8.56992 74.3432 8.89551C74.5227 9.22109 74.8754 10.0803 74.2791 11.0236L64.6666 26.2334C63.6068 27.9104 63.9723 30.1156 65.5166 31.3609L71.1807 35.9287C72.86 37.283 75.3191 37.0195 76.6736 35.34C78.0279 33.6607 77.7643 31.2016 76.0852 29.8473L73.1307 27.4646L80.8834 15.1975C82.8119 12.1463 82.9277 8.28672 81.1859 5.12539C79.4441 1.96406 76.1195 0 72.51 0H24.048C20.4268 0 17.0973 1.97344 15.3586 5.1502C13.6201 8.32695 13.7527 12.1949 15.7049 15.2451L23.5113 27.4426L12.3434 36.2363C8.51914 39.2475 5.37441 43.1537 3.24902 47.5324C1.12344 51.9113 0 56.7986 0 61.6658V76.5625C0 89.4859 10.5141 100 23.4375 100H50.1953C52.3527 100 54.1016 98.2512 54.1016 96.0938ZM57.4219 28.3203C57.4219 26.1629 55.673 24.4141 53.5156 24.4141H43.1641C41.0066 24.4141 39.2578 26.1629 39.2578 28.3203C39.2578 30.4777 41.0066 32.2266 43.1641 32.2266H53.5156C55.673 32.2266 57.4219 30.4777 57.4219 28.3203Z" fill="#0F2B4D"/>
</g>
<defs>
<clipPath id="clip0_7087_4058">
<rect width="100" height="100" fill="white"/>
</clipPath>
</defs>
</svg>
