<svg width="100" height="100" viewBox="0 0 100 100" fill="none" xmlns="http://www.w3.org/2000/svg">
<g clip-path="url(#clip0_7087_3999)">
<path d="M8.12695 25.0265C8.12695 13.4285 17.529 4.02649 29.127 4.02649H61.873C73.471 4.02649 82.873 13.4285 82.873 25.0265V75.1815C82.873 86.7795 73.471 96.1815 61.873 96.1815H29.127C17.529 96.1815 8.12695 86.7795 8.12695 75.1815V25.0265Z" fill="white"/>
<path d="M75.2188 56C87.369 56 97.2188 65.8497 97.2188 78C97.2188 90.1503 87.369 100 75.2188 100C63.0685 100 53.2188 90.1503 53.2188 78C53.2188 65.8497 63.0685 56 75.2188 56ZM87.5508 71.6377C86.0621 70.1588 83.6559 70.166 82.1768 71.6543L72.8408 81.0488L68.1514 76.6924C66.6139 75.2645 64.2095 75.3525 62.7812 76.8896C61.3529 78.4271 61.4421 80.8323 62.9795 82.2607L67.8086 86.7461C69.0566 87.9647 70.7471 88.8909 72.7529 88.9219C74.8262 88.9537 76.6203 88.0212 77.9678 86.6738L77.9766 86.665L87.5674 77.0117C89.0464 75.5231 89.0392 73.1169 87.5508 71.6377Z" fill="#27A74A"/>
<path d="M63 0C76.2548 0 87 10.7452 87 24V47.4521C87 49.6613 85.2091 51.4521 83 51.4521C80.7909 51.4521 79 49.6613 79 47.4521V24C79 15.1634 71.8366 8 63 8H28C19.1634 8 12 15.1634 12 24V76C12 84.8365 19.1634 92 28 92H48.3701C50.5791 92.0002 52.3701 93.791 52.3701 96C52.3701 98.209 50.5791 99.9998 48.3701 100H28C14.7452 100 4 89.2548 4 76V24C4 10.7452 14.7452 5.63725e-07 28 0H63Z" fill="#0F2B4D"/>
<path d="M41.5938 69.3359C43.7512 69.3359 45.5 71.0848 45.5 73.2422C45.5 75.3996 43.7512 77.1484 41.5938 77.1484H30.3672C28.2098 77.1484 26.4609 75.3996 26.4609 73.2422C26.4609 71.0848 28.2098 69.3359 30.3672 69.3359H41.5938Z" fill="#0F2B4D"/>
<path d="M46.7734 54.2969C48.9309 54.2969 50.6797 56.0457 50.6797 58.2031C50.6797 60.3605 48.9309 62.1094 46.7734 62.1094H30.3672C28.2098 62.1094 26.4609 60.3605 26.4609 58.2031C26.4609 56.0457 28.2098 54.2969 30.3672 54.2969H46.7734Z" fill="#0F2B4D"/>
<path d="M31.9297 36.1328C34.6264 36.1328 36.8125 38.3189 36.8125 41.0156C36.8125 43.7123 34.6264 45.8984 31.9297 45.8984C29.233 45.8984 27.0469 43.7123 27.0469 41.0156C27.0469 38.3189 29.233 36.1328 31.9297 36.1328Z" fill="#0F2B4D"/>
<path d="M50.6797 15.625C52.8371 15.625 54.5859 17.3738 54.5859 19.5312V26.1719C54.5859 29.4027 57.2145 32.0312 60.4453 32.0312H67.0859C69.2434 32.0312 70.9922 33.7801 70.9922 35.9375C70.9922 38.0949 69.2434 39.8438 67.0859 39.8438H60.4453C52.9066 39.8438 46.7734 33.7105 46.7734 26.1719V19.5312C46.7734 17.3738 48.5223 15.625 50.6797 15.625Z" fill="#0F2B4D"/>
</g>
<defs>
<clipPath id="clip0_7087_3999">
<rect width="100" height="100" fill="white"/>
</clipPath>
</defs>
</svg>
