<svg width="100" height="100" viewBox="0 0 100 100" fill="none" xmlns="http://www.w3.org/2000/svg">
<g clip-path="url(#clip0_7087_5243)">
<circle cx="50" cy="50" r="50" fill="#CBE4E7"/>
</g>
<ellipse opacity="0.4" cx="46.3187" cy="41.8329" rx="14.1263" ry="18.6667" fill="white"/>
<ellipse opacity="0.4" cx="46.3192" cy="41.8329" rx="14.1263" ry="18.6667" fill="#1D7883"/>
<path d="M36.1264 36.1241C37.3016 36.1242 38.2543 37.0768 38.2543 38.252C38.2543 39.4272 37.3016 40.3798 36.1264 40.3799H35.4408C35.4514 43.8231 35.5187 46.6674 35.9609 49.0916C36.4582 51.8184 37.3975 53.8136 39.1481 55.3621L39.3203 55.5103L39.4275 55.6077L39.427 55.6071L39.4264 55.606C39.4288 55.6082 39.4325 55.6119 39.4374 55.6164C39.4528 55.6307 39.4806 55.6564 39.5199 55.6913C39.5991 55.7616 39.7246 55.8694 39.8913 56.0025C40.2265 56.2703 40.7193 56.6327 41.3306 56.9945C42.5794 57.7336 44.1782 58.3858 45.8703 58.3858C47.0455 58.3858 47.9981 59.339 47.9981 60.5142C47.998 61.6894 47.0454 62.6421 45.8703 62.6421C43.1281 62.6421 40.7663 61.606 39.1628 60.657C38.3481 60.1747 37.6917 59.6927 37.2346 59.3275C37.0052 59.1443 36.8237 58.9885 36.6948 58.8741C36.6303 58.8169 36.5784 58.7698 36.5406 58.7347C36.5325 58.7272 36.525 58.7203 36.5181 58.7139C33.7223 56.3304 32.4011 53.2932 31.774 49.8551C31.1592 46.4846 31.1818 42.5321 31.1817 38.252C31.1817 37.6877 31.4061 37.1467 31.8052 36.7476C32.2042 36.3485 32.7453 36.1242 33.3096 36.1241H36.1264Z" fill="#0F2B4D"/>
<path d="M56.3152 36.1241C55.14 36.1242 54.1873 37.0768 54.1873 38.252C54.1873 39.4272 55.14 40.3798 56.3152 40.3799H57.0827C57.0721 43.8231 57.0048 46.6674 56.5626 49.0916C56.0652 51.8184 55.1259 53.8136 53.3754 55.3621L53.2031 55.5103L53.096 55.6077L53.0965 55.6071L53.0971 55.606C53.0947 55.6082 53.091 55.6119 53.0861 55.6164C53.0707 55.6307 53.0429 55.6564 53.0035 55.6913C52.9244 55.7616 52.7989 55.8694 52.6322 56.0025C52.297 56.2703 51.8042 56.6327 51.1928 56.9945C49.9441 57.7336 48.3453 58.3858 46.6532 58.3858C45.478 58.3858 44.5253 59.339 44.5253 60.5142C44.5255 61.6894 45.478 62.6421 46.6532 62.6421C49.3954 62.6421 51.7572 61.606 53.3606 60.657C54.1754 60.1747 54.8317 59.6927 55.2889 59.3275C55.5182 59.1443 55.6998 58.9885 55.8287 58.8741C55.8932 58.8169 55.9451 58.7698 55.9829 58.7347C55.991 58.7272 55.9985 58.7203 56.0053 58.7139C58.8012 56.3304 60.1224 53.2932 60.7495 49.8551C61.3642 46.4846 61.3417 42.5321 61.3417 38.252C61.3417 37.6877 61.1173 37.1467 60.7183 36.7476C60.3193 36.3485 59.7782 36.1242 59.2139 36.1241H56.3152Z" fill="#0F2B4D"/>
<path d="M43.9477 68.2467C43.9477 65.6641 43.9477 61.7054 43.9477 60.5576C43.9477 59.3824 44.9003 58.4298 46.0756 58.4297C47.2508 58.4297 48.2035 59.3824 48.2035 60.5576C48.2035 61.7056 48.2034 65.664 48.2035 68.2467C48.2035 70.5513 49.1382 72.406 50.5107 73.1341C51.7834 73.8092 54.4224 74.0155 59.0513 70.7377C60.0103 70.0586 61.3383 70.2851 62.0175 71.2441C62.6967 72.2033 62.4697 73.5317 61.5106 74.2109C56.3666 77.8534 51.9029 78.6903 48.5163 76.8939C45.2294 75.1502 43.9477 71.4301 43.9477 68.2467Z" fill="#0F2B4D"/>
<path d="M65.2368 69.8077C65.2367 68.7893 64.4106 67.9637 63.3922 67.9637C62.3739 67.9638 61.5483 68.7894 61.5482 69.8077C61.5482 70.8262 62.3738 71.6522 63.3922 71.6524C64.4107 71.6524 65.2368 70.8262 65.2368 69.8077ZM69.4926 69.8077C69.4926 73.1768 66.7612 75.9081 63.3922 75.9081C60.0233 75.908 57.2924 73.1767 57.2924 69.8077C57.2925 66.4389 60.0234 63.708 63.3922 63.7079C66.7612 63.7079 69.4925 66.4388 69.4926 69.8077Z" fill="#0F2B4D"/>
<defs>
<clipPath id="clip0_7087_5243">
<rect width="100" height="100" fill="white"/>
</clipPath>
</defs>
</svg>
