<svg width="100" height="100" viewBox="0 0 100 100" fill="none" xmlns="http://www.w3.org/2000/svg">
<g clip-path="url(#clip0_7087_3995)">
<circle cx="50.0001" cy="26.7914" r="21.236" fill="white"/>
<path d="M52.9297 60.5469C72.5303 60.5469 88.4766 76.4932 88.4766 96.0938C88.4766 98.2512 86.7277 100 84.5703 100C82.4129 100 80.6641 98.2512 80.6641 96.0938C80.6641 80.801 68.2225 68.3594 52.9297 68.3594H47.0703C31.7775 68.3594 19.3359 80.801 19.3359 96.0938C19.3359 98.2512 17.5871 100 15.4297 100C13.2723 100 11.5234 98.2512 11.5234 96.0938C11.5234 76.4932 27.4697 60.5469 47.0703 60.5469H52.9297Z" fill="#0F2B4D"/>
<path fill-rule="evenodd" clip-rule="evenodd" d="M49.6094 0C64.1482 0 75.9766 11.8283 75.9766 26.3672C75.9766 40.9061 64.1482 52.7344 49.6094 52.7344C35.0705 52.7344 23.2422 40.9061 23.2422 26.3672C23.2422 11.8283 35.0705 0 49.6094 0ZM49.6094 7.8125C39.3783 7.8125 31.0547 16.1361 31.0547 26.3672C31.0547 36.5982 39.3783 44.9219 49.6094 44.9219C59.8404 44.9219 68.1641 36.5982 68.1641 26.3672C68.1641 16.1361 59.8404 7.8125 49.6094 7.8125Z" fill="#0F2B4D"/>
</g>
<defs>
<clipPath id="clip0_7087_3995">
<rect width="100" height="100" fill="white"/>
</clipPath>
</defs>
</svg>
