<svg width="100" height="100" viewBox="0 0 100 100" fill="none" xmlns="http://www.w3.org/2000/svg">
<g clip-path="url(#clip0_7087_5234)">
<circle cx="50" cy="50" r="50" fill="#C6DFFF"/>
</g>
<g clip-path="url(#clip1_7087_5234)">
<path d="M28.5479 35.1277C28.5479 28.9421 33.5623 23.9277 39.7479 23.9277H59.8338C66.0193 23.9277 71.0338 28.9421 71.0338 35.1277V64.989C71.0338 71.1746 66.0193 76.189 59.8338 76.189H39.7479C33.5623 76.189 28.5479 71.1746 28.5479 64.989V35.1277Z" fill="white"/>
<path d="M60.0625 22C67.2996 22 73.1875 27.8879 73.1875 35.125V64.875C73.1875 72.1121 67.2996 78 60.0625 78H39.9375C32.7004 78 26.8125 72.1121 26.8125 64.875V35.125C26.8125 27.8879 32.7004 22 39.9375 22H60.0625ZM39.9375 26.375C35.1128 26.375 31.1875 30.3003 31.1875 35.125V64.875C31.1875 69.6998 35.1128 73.625 39.9375 73.625H60.0625C64.8873 73.625 68.8125 69.6998 68.8125 64.875V35.125C68.8125 30.3002 64.8873 26.375 60.0625 26.375H39.9375ZM40.3193 52.2402C40.65 52.2402 41.0208 52.2802 41.4316 52.3604C41.8425 52.4305 42.2337 52.5755 42.6045 52.7959C42.9854 53.0164 43.2965 53.348 43.5371 53.7891C43.7776 54.2301 43.8984 54.8115 43.8984 55.5332C43.8984 56.1146 43.8074 56.6012 43.627 56.9922C43.4466 57.3828 43.2114 57.7036 42.9209 57.9541C42.6402 58.1947 42.3393 58.3804 42.0186 58.5107C41.7078 58.631 41.4115 58.7155 41.1309 58.7656C40.8504 58.8057 40.6301 58.8262 40.4697 58.8262H38.876V62.3145C38.876 62.6352 38.575 62.7959 37.9736 62.7959H37.4619C36.8606 62.7958 36.5596 62.6352 36.5596 62.3145V52.8418C36.5596 52.4409 36.7604 52.2404 37.1611 52.2402H40.3193ZM63.3506 52.2402C63.6512 52.2404 63.8018 52.4911 63.8018 52.9922V53.458C63.8018 53.9591 63.6512 54.2098 63.3506 54.21H60.1172V56.8564H63.2451C63.5459 56.8565 63.6963 57.1072 63.6963 57.6084V58.0742C63.6963 58.5754 63.5459 58.8262 63.2451 58.8262H60.1172V62.3145C60.1172 62.6352 59.8163 62.7959 59.2148 62.7959H58.7041C58.1026 62.7959 57.8018 62.6352 57.8018 62.3145V52.8418C57.8018 52.4408 58.0023 52.2402 58.4033 52.2402H63.3506ZM50.1133 52.2402C51.1457 52.2403 52.0178 52.4455 52.7295 52.8564C53.4512 53.2574 53.9973 53.849 54.3682 54.6309C54.7391 55.4128 54.9248 56.3702 54.9248 57.5029C54.9248 58.355 54.8199 59.1072 54.6094 59.7588C54.3989 60.4102 54.0876 60.9611 53.6768 61.4121C53.2658 61.8532 52.7596 62.1894 52.1582 62.4199C51.5668 62.6505 50.8851 62.7656 50.1133 62.7656H46.8955C46.4945 62.7656 46.2939 62.5651 46.2939 62.1641V52.8418C46.2939 52.4408 46.4945 52.2402 46.8955 52.2402H50.1133ZM48.624 60.7959H50.1133C50.6545 60.7959 51.106 60.6705 51.4668 60.4199C51.8274 60.1693 52.0979 59.7986 52.2783 59.3076C52.4588 58.8164 52.5488 58.2147 52.5488 57.5029C52.5488 56.7912 52.4588 56.1894 52.2783 55.6982C52.0979 55.2073 51.8274 54.8365 51.4668 54.5859C51.106 54.3354 50.6545 54.21 50.1133 54.21H48.624V60.7959ZM38.876 56.8418H40.2139C40.3542 56.8418 40.5 56.826 40.6504 56.7959C40.8106 56.7558 40.9557 56.6907 41.0859 56.6006C41.2163 56.5003 41.3221 56.3648 41.4023 56.1943C41.4824 56.024 41.5225 55.8036 41.5225 55.5332C41.5225 55.1723 41.4519 54.8965 41.3115 54.7061C41.1713 54.5158 41.0011 54.3856 40.8008 54.3154C40.6003 54.2453 40.4043 54.21 40.2139 54.21H38.876V56.8418ZM52.9531 30.75C54.1613 30.75 55.1406 31.7293 55.1406 32.9375V36.6562C55.1406 38.4655 56.6126 39.9375 58.4219 39.9375H62.1406C63.3488 39.9375 64.3281 40.9168 64.3281 42.125C64.3281 43.3332 63.3488 44.3125 62.1406 44.3125H58.4219C54.2002 44.3125 50.7656 40.8779 50.7656 36.6562V32.9375C50.7656 31.7293 51.745 30.75 52.9531 30.75Z" fill="#0F2B4D"/>
</g>
<defs>
<clipPath id="clip0_7087_5234">
<rect width="100" height="100" fill="white"/>
</clipPath>
<clipPath id="clip1_7087_5234">
<rect width="56" height="56" fill="white" transform="translate(22 22)"/>
</clipPath>
</defs>
</svg>
