<svg width="100" height="100" viewBox="0 0 100 100" fill="none" xmlns="http://www.w3.org/2000/svg">
<g clip-path="url(#clip0_7087_5246)">
<circle cx="50" cy="50" r="50" fill="#E9EEB6"/>
</g>
<g clip-path="url(#clip1_7087_5246)">
<path d="M60.1777 37.2303H31.8589L28.6631 37.7629L25.9997 39.5384L23.958 43.4444V47.4392L25.9997 63.1522L27.6865 70.7867L32.3915 74.604L36.475 75.9356H62.5745L67.102 75.3142L72.0733 70.7867L75.8906 44.0658L74.7365 41.0475L72.0733 38.3843L68.6999 37.2303H60.1777Z" fill="white"/>
<path d="M66.4156 37.4236C66.4156 36.2156 67.3948 35.2363 68.6028 35.2363C70.9798 35.2363 73.248 36.1243 74.989 37.7367C76.7045 39.3251 77.7635 41.4749 77.971 43.7899C78.0788 44.993 77.191 46.0558 75.9879 46.1636C75.9215 46.1697 75.8554 46.1725 75.7899 46.1725C74.6702 46.1725 73.7159 45.3173 73.6141 44.1805C73.3843 41.618 71.1831 39.6108 68.6028 39.6108C67.3948 39.6108 66.4156 38.6315 66.4156 37.4236ZM73.238 68.0827C72.1717 67.5149 70.8473 67.9184 70.2792 68.9845C68.7552 71.845 65.7954 73.6219 62.5546 73.6219H37.4528C33.0013 73.6219 29.2643 70.2865 28.7602 65.8636L26.4066 45.2108C26.2421 43.7673 26.6842 42.3754 27.6517 41.2915C28.6191 40.2076 29.9519 39.6108 31.4048 39.6108C32.6128 39.6108 33.592 38.6315 33.592 37.4236C33.592 36.2156 32.6128 35.2363 31.4048 35.2363C28.728 35.2363 26.1705 36.3818 24.3881 38.3787C22.6056 40.3757 21.7572 43.0464 22.0604 45.7062L24.4139 66.359C25.17 72.9934 30.7755 77.9964 37.4528 77.9964H62.5547C67.4151 77.9964 71.8544 75.3315 74.14 71.0415C74.7079 69.9752 74.3041 68.6507 73.238 68.0827ZM57.233 64.1263L53.9073 61.4064C53.898 61.3989 53.8887 61.3913 53.8793 61.3839C50.9439 59.0625 46.794 59.1942 44.0117 61.6965C43.962 61.7413 40.1964 65.8064 40.1964 65.8064C39.376 66.693 39.4296 68.077 40.3163 68.8973C40.7372 69.2867 41.2699 69.4791 41.8012 69.4791C42.3895 69.4791 42.9761 69.2432 43.4072 68.7773L47.0031 64.8911C48.1904 63.8781 49.9196 63.8386 51.1536 64.8053L54.4791 67.5251C54.4884 67.5327 54.4977 67.5402 54.5071 67.5477C57.6661 70.0459 62.2512 69.6581 64.9457 66.6642C64.9539 66.6552 64.962 66.646 64.9702 66.6367L69.9173 60.9499C70.71 60.0385 70.6139 58.657 69.7026 57.8641C68.791 57.0711 67.4095 57.1674 66.6168 58.0788L61.6832 63.75C60.5308 65.018 58.5822 65.1831 57.233 64.1263ZM71.3098 49.5626H65.533C64.325 49.5626 63.3458 50.5418 63.3458 51.7498C63.3458 52.9578 64.325 53.937 65.533 53.937H71.3098C72.5868 53.937 73.6257 54.9759 73.6257 56.2529V62.0297C73.6257 63.2377 74.6049 64.2169 75.8129 64.2169C77.0209 64.2169 78.0001 63.2377 78.0001 62.0297V56.2529C78 52.5639 74.9988 49.5626 71.3098 49.5626ZM39.8417 55.2493C41.0497 55.2493 42.0289 54.2701 42.0289 53.0621V34.3615C42.0289 29.9595 45.6103 26.3781 50.0122 26.3781C54.4142 26.3781 57.9956 29.9595 57.9956 34.3615V35.2363H48.5906C47.3826 35.2363 46.4033 36.2156 46.4033 37.4236C46.4033 38.6315 47.3826 39.6108 48.5906 39.6108H60.1828C61.3908 39.6108 62.37 38.6315 62.37 37.4236V34.3615C62.37 27.5473 56.8264 22.0037 50.0122 22.0037C43.1981 22.0037 37.6545 27.5473 37.6545 34.3615V53.0621C37.6545 54.2701 38.6338 55.2493 39.8417 55.2493Z" fill="#0F2B4D"/>
</g>
<defs>
<clipPath id="clip0_7087_5246">
<rect width="100" height="100" fill="white"/>
</clipPath>
<clipPath id="clip1_7087_5246">
<rect width="56" height="56" fill="white" transform="translate(22 22)"/>
</clipPath>
</defs>
</svg>
