<svg width="100" height="100" viewBox="0 0 100 100" fill="none" xmlns="http://www.w3.org/2000/svg">
<path d="M84.9766 10.0527C89.3946 10.053 92.9766 13.6346 92.9766 18.0527V62.1748C92.9765 64.1582 92.252 65.9713 91.0566 67.3691V85.2744L75.4921 87.9123L59.876 85.2744V70.1748H14.25C9.83186 70.1748 6.25023 66.5929 6.25 62.1748V18.0527C6.25 13.6345 9.83172 10.0527 14.25 10.0527H84.9766Z" fill="white"/>
<path fill-rule="evenodd" clip-rule="evenodd" d="M75 50C87.1503 50 97 59.8497 97 72C97 84.1503 87.1503 94 75 94C62.8497 94 53 84.1503 53 72C53 59.8497 62.8497 50 75 50ZM75.4277 78.084C73.3291 78.0841 71.6279 79.7861 71.6279 81.8848C71.6282 83.9832 73.3293 85.6845 75.4277 85.6846C77.5263 85.6846 79.2273 83.9833 79.2275 81.8848C79.2275 79.7861 77.5264 78.084 75.4277 78.084ZM75.4277 59.1006C73.3292 59.1007 71.6279 60.8018 71.6279 62.9004V70.9004C71.628 72.9989 73.3292 74.7001 75.4277 74.7002C77.5264 74.7002 79.2275 72.999 79.2275 70.9004V62.9004C79.2275 60.8017 77.5264 59.1006 75.4277 59.1006Z" fill="#DC3545"/>
<path d="M89.25 44V17C89.25 15.2051 87.7949 13.75 86 13.75H13C11.2051 13.75 9.75 15.2051 9.75 17V63C9.75 64.7949 11.2051 66.25 13 66.25H42C44.0711 66.25 45.75 67.9289 45.75 70C45.75 72.0711 44.0711 73.75 42 73.75H13C7.06294 73.75 2.25 68.9371 2.25 63V17C2.25 11.0629 7.06294 6.25 13 6.25H86C91.9371 6.25 96.75 11.0629 96.75 17V44C96.75 46.0711 95.0711 47.75 93 47.75C90.9289 47.75 89.25 46.0711 89.25 44Z" fill="#0F2B4D"/>
<path d="M15 30C15 28.8954 15.8954 28 17 28H33C34.1046 28 35 28.8954 35 30V39C35 40.1046 34.1046 41 33 41H17C15.8954 41 15 40.1046 15 39V30Z" fill="#0F2B4D"/>
<path d="M15 55C15 53.8954 15.8954 53 17 53H20C21.1046 53 22 53.8954 22 55V58C22 59.1046 21.1046 60 20 60H17C15.8954 60 15 59.1046 15 58V55Z" fill="#0F2B4D"/>
<path d="M27 55C27 53.8954 27.8954 53 29 53H47C48.1046 53 49 53.8954 49 55V58C49 59.1046 48.1046 60 47 60H29C27.8954 60 27 59.1046 27 58V55Z" fill="#0F2B4D"/>
<path d="M40 36C40 34.8954 40.8954 34 42 34H78C79.1046 34 80 34.8954 80 36V39C80 40.1046 79.1046 41 78 41H42C40.8954 41 40 40.1046 40 39V36Z" fill="#0F2B4D"/>
</svg>
