<svg width="100" height="100" viewBox="0 0 100 100" fill="none" xmlns="http://www.w3.org/2000/svg">
<g clip-path="url(#clip0_7087_4043)">
<path d="M68.1746 27.1969H17.6053L11.8985 28.1481L7.14248 31.3186L3.49658 38.2936V45.4272L7.14248 73.486L10.1545 87.1191L18.5563 93.9357L25.8484 96.3136H72.4546L80.5394 95.2039L89.4167 87.1191L96.2333 39.4033L94.1725 34.0135L89.4167 29.2577L83.3928 27.1969H68.1746Z" fill="white"/>
<path d="M79.3135 27.5421C79.3135 25.3849 81.0621 23.6363 83.2192 23.6363C87.464 23.6363 91.5142 25.2221 94.6232 28.1012C97.6866 30.9377 99.5776 34.7766 99.9482 38.9105C100.141 41.059 98.5553 42.9568 96.4069 43.1494C96.2884 43.1601 96.1704 43.1652 96.0535 43.1652C94.0539 43.1652 92.3498 41.638 92.168 39.608C91.7577 35.0321 87.827 31.4478 83.2192 31.4478C81.0621 31.4478 79.3135 29.6992 79.3135 27.5421ZM91.4964 82.2905C89.5924 81.2765 87.2273 81.9971 86.2128 83.901C83.4914 89.0089 78.206 92.1819 72.4189 92.1819H27.5944C19.6452 92.1819 12.9719 86.2259 12.0718 78.3279L7.86886 41.4478C7.57515 38.8702 8.36469 36.3846 10.0924 34.4492C11.8199 32.5137 14.1999 31.4478 16.7942 31.4478C18.9514 31.4478 20.7 29.6992 20.7 27.5421C20.7 25.3849 18.9514 23.6363 16.7942 23.6363C12.0142 23.6363 7.44724 25.6818 4.26446 29.2477C1.08148 32.8138 -0.433553 37.5829 0.107782 42.3325L4.31054 79.2125C5.66076 91.0596 15.6706 99.9936 27.5944 99.9936H72.4191C81.0984 99.9936 89.0257 95.2348 93.1072 87.5741C94.1213 85.6701 93.4001 83.3048 91.4964 82.2905ZM62.9161 75.2256L56.9774 70.3686C56.9608 70.3551 56.9442 70.3417 56.9274 70.3284C51.6855 66.183 44.275 66.4182 39.3067 70.8867C39.2178 70.9666 32.4935 78.2258 32.4935 78.2258C31.0285 79.809 31.1244 82.2803 32.7078 83.7451C33.4592 84.4406 34.4105 84.7841 35.3594 84.7841C36.4098 84.7841 37.4573 84.3628 38.2271 83.5309L44.6484 76.5912C46.7686 74.7823 49.8565 74.7118 52.0601 76.4381L57.9983 81.2949C58.0149 81.3084 58.0315 81.3218 58.0483 81.3351C63.6894 85.7962 71.8772 85.1038 76.6888 79.7576C76.7035 79.7414 76.7179 79.725 76.7326 79.7084L85.5666 69.5535C86.9822 67.926 86.8105 65.4589 85.1832 64.0431C83.5553 62.6271 81.0884 62.7989 79.6728 64.4264L70.8628 74.5536C68.8049 76.8179 65.3253 77.1126 62.9161 75.2256ZM88.0531 49.2189H77.7375C75.5804 49.2189 73.8318 50.9675 73.8318 53.1246C73.8318 55.2817 75.5804 57.0303 77.7375 57.0303H88.0531C90.3335 57.0303 92.1887 58.8856 92.1887 61.1659V71.4815C92.1887 73.6387 93.9373 75.3873 96.0945 75.3873C98.2516 75.3873 100 73.6387 100 71.4815V61.1659C100 54.5783 94.6407 49.2189 88.0531 49.2189ZM31.8602 59.3738C34.0173 59.3738 35.7659 57.6252 35.7659 55.468V22.074C35.7659 14.2134 42.1612 7.81812 50.0219 7.81812C57.8825 7.81812 64.2778 14.2134 64.2778 22.074V23.6363H47.4831C45.326 23.6363 43.5774 25.3849 43.5774 27.5421C43.5774 29.6992 45.326 31.4478 47.4831 31.4478H68.1835C70.3407 31.4478 72.0892 29.6992 72.0892 27.5421V22.074C72.0892 9.90592 62.19 0.00665283 50.0219 0.00665283C37.8537 0.00665283 27.9545 9.90592 27.9545 22.074V55.468C27.9545 57.6252 29.7033 59.3738 31.8602 59.3738Z" fill="#0F2B4D"/>
</g>
<defs>
<clipPath id="clip0_7087_4043">
<rect width="100" height="100" fill="white"/>
</clipPath>
</defs>
</svg>
