<svg width="100" height="100" viewBox="0 0 100 100" fill="none" xmlns="http://www.w3.org/2000/svg">
<path d="M84.9766 10.0527C89.3946 10.053 92.9766 13.6346 92.9766 18.0527V62.1748C92.9765 64.1582 92.252 65.9713 91.0566 67.3691V85.2744H59.876V70.1748H14.25C9.83186 70.1748 6.25023 66.5929 6.25 62.1748V18.0527C6.25 13.6345 9.83172 10.0527 14.25 10.0527H84.9766Z" fill="white"/>
<path fill-rule="evenodd" clip-rule="evenodd" d="M75 50C87.1503 50 97 59.8497 97 72C97 84.1503 87.1503 94 75 94C62.8497 94 53 84.1503 53 72C53 59.8497 62.8497 50 75 50ZM87.7598 66.2021C86.271 64.7231 83.8639 64.7311 82.3848 66.2197L82.3682 66.2363C82.3573 66.2473 82.3406 66.2648 82.3193 66.2861C82.2754 66.3304 82.2107 66.3952 82.127 66.4795C81.9599 66.6476 81.7171 66.8923 81.4141 67.1973C80.8075 67.8077 79.9589 68.6608 78.9941 69.6318C77.1516 71.4863 74.8815 73.7698 73.0498 75.6133L68.3604 71.2568C66.8228 69.8289 64.4185 69.9169 62.9902 71.4541C61.5619 72.9916 61.6511 75.3968 63.1885 76.8252L68.0176 81.3105C69.2656 82.5291 70.956 83.4554 72.9619 83.4863C75.0352 83.5181 76.8293 82.5857 78.1768 81.2383L78.1855 81.2295C80.0584 79.3446 82.4561 76.9313 84.3857 74.9893C85.3506 74.0182 86.1981 73.1642 86.8047 72.5537C87.1079 72.2485 87.3514 72.0042 87.5186 71.8359C87.6019 71.752 87.6664 71.6864 87.71 71.6426L87.7764 71.5762L87.9111 71.4336C89.2539 69.9377 89.2017 67.6351 87.7598 66.2021Z" fill="#27A74A"/>
<path d="M89.25 44V17C89.25 15.2051 87.7949 13.75 86 13.75H13C11.2051 13.75 9.75 15.2051 9.75 17V63C9.75 64.7949 11.2051 66.25 13 66.25H42C44.0711 66.25 45.75 67.9289 45.75 70C45.75 72.0711 44.0711 73.75 42 73.75H13C7.06294 73.75 2.25 68.9371 2.25 63V17C2.25 11.0629 7.06294 6.25 13 6.25H86C91.9371 6.25 96.75 11.0629 96.75 17V44C96.75 46.0711 95.0711 47.75 93 47.75C90.9289 47.75 89.25 46.0711 89.25 44Z" fill="#0F2B4D"/>
<path d="M15 30C15 28.8954 15.8954 28 17 28H33C34.1046 28 35 28.8954 35 30V39C35 40.1046 34.1046 41 33 41H17C15.8954 41 15 40.1046 15 39V30Z" fill="#0F2B4D"/>
<path d="M15 55C15 53.8954 15.8954 53 17 53H20C21.1046 53 22 53.8954 22 55V58C22 59.1046 21.1046 60 20 60H17C15.8954 60 15 59.1046 15 58V55Z" fill="#0F2B4D"/>
<path d="M27 55C27 53.8954 27.8954 53 29 53H47C48.1046 53 49 53.8954 49 55V58C49 59.1046 48.1046 60 47 60H29C27.8954 60 27 59.1046 27 58V55Z" fill="#0F2B4D"/>
<path d="M40 36C40 34.8954 40.8954 34 42 34H78C79.1046 34 80 34.8954 80 36V39C80 40.1046 79.1046 41 78 41H42C40.8954 41 40 40.1046 40 39V36Z" fill="#0F2B4D"/>
</svg>
