<svg width="100" height="100" viewBox="0 0 100 100" fill="none" xmlns="http://www.w3.org/2000/svg">
<g clip-path="url(#clip0_7087_5237)">
<circle cx="50" cy="50" r="50" fill="#E9F6ED"/>
</g>
<path d="M35.0584 65.9995C28.8728 65.9995 23.8584 60.9851 23.8584 54.7995L23.8584 37.2109C23.8584 31.0253 28.8728 26.0109 35.0584 26.0109L64.5686 26.0109C70.7542 26.0109 75.7686 31.0253 75.7686 37.2109V54.7995C75.7686 60.9851 70.7542 65.9995 64.5686 65.9995H35.0584Z" fill="white"/>
<path d="M75.7686 64.4403C75.7686 70.7139 70.6828 75.7997 64.4092 75.7997C58.1355 75.7997 53.0498 70.7139 53.0498 64.4403C53.0498 58.1667 58.1355 53.0809 64.4092 53.0809C70.6828 53.0809 75.7686 58.1667 75.7686 64.4403Z" fill="white"/>
<path fill-rule="evenodd" clip-rule="evenodd" d="M64.0002 52.24C70.8043 52.24 76.3202 57.7558 76.3202 64.56C76.3202 71.3641 70.8043 76.88 64.0002 76.88C57.196 76.88 51.6802 71.3641 51.6802 64.56C51.6802 57.7558 57.196 52.24 64.0002 52.24ZM71.1456 61.3132C70.312 60.4849 68.964 60.4894 68.1356 61.323L68.1263 61.3323C68.1203 61.3385 68.1109 61.3483 68.099 61.3602C68.0744 61.385 68.0382 61.4213 67.9913 61.4685C67.8977 61.5627 67.7617 61.6997 67.5921 61.8705C67.2524 62.2123 66.7772 62.6901 66.2369 63.2338C65.2051 64.2723 63.9338 65.5511 62.9081 66.5834L60.282 64.1438C59.421 63.3442 58.0746 63.3935 57.2747 64.2543C56.4748 65.1153 56.5248 66.4622 57.3857 67.2621L60.09 69.7739C60.7889 70.4563 61.7356 70.975 62.8588 70.9923C64.0199 71.0101 65.0246 70.488 65.7792 69.7334L65.7841 69.7285C66.8329 68.673 68.1756 67.3215 69.2562 66.234C69.7965 65.6902 70.2711 65.2119 70.6108 64.8701C70.7806 64.6992 70.917 64.5623 71.0106 64.4681C71.0573 64.4211 71.0933 64.3844 71.1178 64.3598L71.1549 64.3226L71.2304 64.2428C71.9824 63.4051 71.9531 62.1157 71.1456 61.3132Z" fill="#27A74A"/>
<path d="M73.6601 49.72V36C73.6601 31.5928 70.0874 28.02 65.6801 28.02H34.3201C29.9129 28.02 26.3401 31.5928 26.3401 36V55.6C26.3401 60.0072 29.9129 63.58 34.3201 63.58H46.0801C47.2399 63.58 48.1801 64.5202 48.1801 65.68C48.1801 66.8398 47.2399 67.78 46.0801 67.78H34.3201C27.5933 67.78 22.1401 62.3268 22.1401 55.6V36C22.1401 29.2732 27.5933 23.82 34.3201 23.82H65.6801C72.407 23.82 77.8601 29.2732 77.8601 36V49.72C77.8601 50.8798 76.9199 51.82 75.7601 51.82C74.6003 51.82 73.6601 50.8798 73.6601 49.72Z" fill="#0F2B4D"/>
<path d="M33.047 50.6956C36.364 50.6956 39.0626 53.3942 39.0626 56.7113C39.0626 57.9194 38.0833 58.8988 36.8751 58.8988C35.667 58.8988 34.6876 57.9194 34.6876 56.7113C34.6876 55.8066 33.9517 55.0706 33.047 55.0706C31.8389 55.0706 30.8595 54.0913 30.8595 52.8831C30.8595 51.675 31.8389 50.6956 33.047 50.6956Z" fill="#0F2B4D"/>
<path fill-rule="evenodd" clip-rule="evenodd" d="M50.0001 37.0238C54.8249 37.0238 58.7501 40.949 58.7501 45.7738C58.7501 50.5985 54.8249 54.5238 50.0001 54.5238C45.1754 54.5238 41.2501 50.5985 41.2501 45.7738C41.2501 40.949 45.1754 37.0238 50.0001 37.0238ZM50.0001 41.32C47.5259 41.32 45.5201 43.3258 45.5201 45.8C45.5201 48.2742 47.5259 50.28 50.0001 50.28C52.4744 50.28 54.4801 48.2742 54.4801 45.8C54.4801 43.3258 52.4744 41.32 50.0001 41.32Z" fill="#0F2B4D"/>
<path d="M36.8751 32.6488C38.0833 32.6488 39.0626 33.6281 39.0626 34.8363C39.0626 38.1533 36.364 40.8519 33.047 40.8519C31.8389 40.8519 30.8595 39.8725 30.8595 38.6644C30.8595 37.4562 31.8389 36.4769 33.047 36.4769C33.9517 36.4769 34.6876 35.7409 34.6876 34.8363C34.6876 33.6281 35.667 32.6488 36.8751 32.6488Z" fill="#0F2B4D"/>
<path d="M63.3439 32.43C64.552 32.43 65.5314 33.4094 65.5314 34.6175C65.5314 35.5221 66.2674 36.2581 67.172 36.2581C68.3802 36.2581 69.3595 37.2375 69.3595 38.4456C69.3595 39.6538 68.3802 40.6331 67.172 40.6331C63.855 40.6331 61.1564 37.9345 61.1564 34.6175C61.1564 33.4094 62.1357 32.43 63.3439 32.43Z" fill="#0F2B4D"/>
<defs>
<clipPath id="clip0_7087_5237">
<rect width="100" height="100" fill="white"/>
</clipPath>
</defs>
</svg>
