<svg width="100" height="100" viewBox="0 0 100 100" fill="none" xmlns="http://www.w3.org/2000/svg">
<g clip-path="url(#clip0_7087_4061)">
<path d="M4.56104 41.3633C4.56104 32.5267 11.7245 25.3633 20.561 25.3633H79.9946C88.8312 25.3633 95.9946 32.5267 95.9946 41.3633V80.1858C95.9946 89.0223 88.8312 96.1858 79.9946 96.1858H20.561C11.7245 96.1858 4.56104 89.0223 4.56104 80.1858V41.3633Z" fill="white"/>
<path d="M68.9453 96.0938C68.9453 98.2512 67.1965 100 65.0391 100H23.4375C10.5141 100 0 89.4859 0 76.5625V44.5312C0 31.6078 10.5141 21.0938 23.4375 21.0938H76.5625C89.4859 21.0938 100 31.6078 100 44.5312C100 46.6887 98.2512 48.4375 96.0938 48.4375C93.9363 48.4375 92.1875 46.6887 92.1875 44.5312C92.1875 35.9156 85.1781 28.9062 76.5625 28.9062H23.4375C14.8219 28.9062 7.8125 35.9156 7.8125 44.5312V76.5625C7.8125 85.1781 14.8219 92.1875 23.4375 92.1875H65.0391C67.1965 92.1875 68.9453 93.9363 68.9453 96.0938ZM19.9219 15.625C22.0793 15.625 23.8281 13.8762 23.8281 11.7188C23.8281 9.56484 25.5805 7.8125 27.7344 7.8125C29.8883 7.8125 31.6406 9.56484 31.6406 11.7188C31.6406 13.8762 33.3895 15.625 35.5469 15.625C37.7043 15.625 39.4531 13.8762 39.4531 11.7188C39.4531 5.25703 34.1961 0 27.7344 0C21.2727 0 16.0156 5.25703 16.0156 11.7188C16.0156 13.8762 17.7645 15.625 19.9219 15.625ZM64.8438 15.625C67.0012 15.625 68.75 13.8762 68.75 11.7188C68.75 9.56484 70.5023 7.8125 72.6562 7.8125C74.8102 7.8125 76.5625 9.56484 76.5625 11.7188C76.5625 13.8762 78.3113 15.625 80.4688 15.625C82.6262 15.625 84.375 13.8762 84.375 11.7188C84.375 5.25703 79.118 0 72.6562 0C66.1945 0 60.9375 5.25703 60.9375 11.7188C60.9375 13.8762 62.6863 15.625 64.8438 15.625ZM25.5859 39.4531C22.8893 39.4531 20.7031 41.6393 20.7031 44.3359C20.7031 47.0326 22.8893 49.2188 25.5859 49.2188C28.2826 49.2188 30.4688 47.0326 30.4688 44.3359C30.4688 41.6393 28.2826 39.4531 25.5859 39.4531ZM42.3828 39.4531C39.6861 39.4531 37.5 41.6393 37.5 44.3359C37.5 47.0326 39.6861 49.2188 42.3828 49.2188C45.0795 49.2188 47.2656 47.0326 47.2656 44.3359C47.2656 41.6393 45.0795 39.4531 42.3828 39.4531ZM59.1797 39.4531C56.483 39.4531 54.2969 41.6393 54.2969 44.3359C54.2969 47.0326 56.483 49.2188 59.1797 49.2188C61.8764 49.2188 64.0625 47.0326 64.0625 44.3359C64.0625 41.6393 61.8764 39.4531 59.1797 39.4531ZM80.4688 44.3359C80.4688 41.6393 78.2826 39.4531 75.5859 39.4531C72.8893 39.4531 70.7031 41.6393 70.7031 44.3359C70.7031 47.0326 72.8893 49.2188 75.5859 49.2188C78.2826 49.2188 80.4688 47.0326 80.4688 44.3359ZM25.5859 56.25C22.8893 56.25 20.7031 58.4361 20.7031 61.1328C20.7031 63.8295 22.8893 66.0156 25.5859 66.0156C28.2826 66.0156 30.4688 63.8295 30.4688 61.1328C30.4688 58.4361 28.2826 56.25 25.5859 56.25ZM25.5859 73.0469C22.8893 73.0469 20.7031 75.233 20.7031 77.9297C20.7031 80.6264 22.8893 82.8125 25.5859 82.8125C28.2826 82.8125 30.4688 80.6264 30.4688 77.9297C30.4688 75.233 28.2826 73.0469 25.5859 73.0469ZM42.3828 56.25C39.6861 56.25 37.5 58.4361 37.5 61.1328C37.5 63.8295 39.6861 66.0156 42.3828 66.0156C45.0795 66.0156 47.2656 63.8295 47.2656 61.1328C47.2656 58.4361 45.0795 56.25 42.3828 56.25ZM42.3828 73.0469C39.6861 73.0469 37.5 75.233 37.5 77.9297C37.5 80.6264 39.6861 82.8125 42.3828 82.8125C45.0795 82.8125 47.2656 80.6264 47.2656 77.9297C47.2656 75.233 45.0795 73.0469 42.3828 73.0469ZM59.1797 56.25C56.483 56.25 54.2969 58.4361 54.2969 61.1328C54.2969 63.8295 56.483 66.0156 59.1797 66.0156C61.8764 66.0156 64.0625 63.8295 64.0625 61.1328C64.0625 58.4361 61.8764 56.25 59.1797 56.25ZM59.1797 73.0469C56.483 73.0469 54.2969 75.233 54.2969 77.9297C54.2969 80.6264 56.483 82.8125 59.1797 82.8125C61.8764 82.8125 64.0625 80.6264 64.0625 77.9297C64.0625 75.233 61.8764 73.0469 59.1797 73.0469ZM87.9016 72.2006C85.0658 72.2006 83.0078 70.8314 83.0078 68.9453C83.0078 67.1504 84.4535 65.69 86.2305 65.69C88.0221 65.69 90.3557 65.8854 94.0811 67.3342C96.0914 68.1158 98.3555 67.1201 99.1375 65.1094C99.9195 63.0988 98.9234 60.8348 96.9127 60.0529C94.9734 59.2988 93.2826 58.8043 91.7969 58.4787V55.4688C91.7969 53.3113 90.048 51.5625 87.8906 51.5625C85.7332 51.5625 83.9844 53.3113 83.9844 55.4688V58.1086C78.973 59.1521 75.1953 63.6143 75.1953 68.9453C75.1953 75.2549 80.6578 80.0131 87.9016 80.0131C90.225 80.0131 92.1875 81.5037 92.1875 83.2684C92.1875 85.0023 90.575 86.5236 88.7369 86.5236C87.3027 86.5236 83.7043 85.9977 80.1539 84.5863C78.1498 83.7898 75.8779 84.7686 75.0811 86.7732C74.284 88.7781 75.2633 91.0494 77.268 91.8463C79.5301 92.7455 81.89 93.3871 83.9844 93.7936V96.0938C83.9844 98.2512 85.7332 100 87.8906 100C90.048 100 91.7969 98.2512 91.7969 96.0938V93.9123C93.583 93.4098 95.2336 92.4705 96.6092 91.1447C98.7957 89.0377 100 86.2402 100 83.2682C100 77.1654 94.5727 72.2006 87.9016 72.2006Z" fill="#0F2B4D"/>
</g>
<defs>
<clipPath id="clip0_7087_4061">
<rect width="100" height="100" fill="white"/>
</clipPath>
</defs>
</svg>
