<svg width="100" height="100" viewBox="0 0 100 100" fill="none" xmlns="http://www.w3.org/2000/svg">
<path d="M23.3184 78.5706C12.2727 78.5706 3.31836 69.6163 3.31836 58.5706L3.31836 27.1624C3.31836 16.1167 12.2727 7.16236 23.3184 7.16236L76.0151 7.16235C87.0608 7.16235 96.0151 16.1167 96.0151 27.1624V58.5706C96.0151 69.6162 87.0608 78.5706 76.0151 78.5706H23.3184Z" fill="white"/>
<path d="M96.0151 75.7863C96.0151 86.9892 86.9334 96.0709 75.7305 96.0709C64.5276 96.0709 55.4458 86.9892 55.4458 75.7863C55.4458 64.5833 64.5276 55.5016 75.7305 55.5016C86.9334 55.5016 96.0151 64.5833 96.0151 75.7863Z" fill="white"/>
<path fill-rule="evenodd" clip-rule="evenodd" d="M75 54C87.1503 54 97 63.8497 97 76C97 88.1503 87.1503 98 75 98C62.8497 98 53 88.1503 53 76C53 63.8497 62.8497 54 75 54ZM87.7598 70.2021C86.271 68.7231 83.8639 68.7311 82.3848 70.2197L82.3682 70.2363C82.3573 70.2473 82.3406 70.2648 82.3193 70.2861C82.2754 70.3304 82.2107 70.3952 82.127 70.4795C81.9599 70.6476 81.7171 70.8923 81.4141 71.1973C80.8075 71.8077 79.9589 72.6608 78.9941 73.6318C77.1516 75.4863 74.8815 77.7698 73.0498 79.6133L68.3604 75.2568C66.8228 73.8289 64.4185 73.9169 62.9902 75.4541C61.5619 76.9916 61.6511 79.3968 63.1885 80.8252L68.0176 85.3105C69.2656 86.5291 70.956 87.4554 72.9619 87.4863C75.0352 87.5181 76.8293 86.5857 78.1768 85.2383L78.1855 85.2295C80.0584 83.3446 82.4561 80.9313 84.3857 78.9893C85.3506 78.0182 86.1981 77.1642 86.8047 76.5537C87.1079 76.2485 87.3514 76.0042 87.5186 75.8359C87.6019 75.752 87.6664 75.6864 87.71 75.6426L87.7764 75.5762L87.9111 75.4336C89.2539 73.9377 89.2017 71.6351 87.7598 70.2021Z" fill="#27A74A"/>
<path d="M92.25 49.5V25C92.25 17.1299 85.8701 10.75 78 10.75H22C14.1299 10.75 7.75 17.1299 7.75 25V60C7.75 67.8701 14.1299 74.25 22 74.25H43C45.0711 74.25 46.75 75.9289 46.75 78C46.75 80.0711 45.0711 81.75 43 81.75H22C9.98781 81.75 0.25 72.0122 0.25 60V25C0.250001 12.9878 9.98781 3.25 22 3.25H78C90.0122 3.25 99.75 12.9878 99.75 25V49.5C99.75 51.5711 98.0711 53.25 96 53.25C93.9289 53.25 92.25 51.5711 92.25 49.5Z" fill="#0F2B4D"/>
<path d="M19.7266 51.2422C25.6498 51.2422 30.4688 56.0611 30.4688 61.9844C30.4688 64.1418 28.7199 65.8906 26.5625 65.8906C24.4051 65.8906 22.6562 64.1418 22.6562 61.9844C22.6562 60.3689 21.342 59.0547 19.7266 59.0547C17.5691 59.0547 15.8203 57.3059 15.8203 55.1484C15.8203 52.991 17.5691 51.2422 19.7266 51.2422Z" fill="#0F2B4D"/>
<path fill-rule="evenodd" clip-rule="evenodd" d="M50 26.8281C58.6156 26.8281 65.625 33.8375 65.625 42.4531C65.625 51.0687 58.6156 58.0781 50 58.0781C41.3844 58.0781 34.375 51.0687 34.375 42.4531C34.375 33.8375 41.3844 26.8281 50 26.8281ZM50 34.5C45.5817 34.5 42 38.0817 42 42.5C42 46.9183 45.5817 50.5 50 50.5C54.4183 50.5 58 46.9183 58 42.5C58 38.0817 54.4183 34.5 50 34.5Z" fill="#0F2B4D"/>
<path d="M26.5625 19.0156C28.7199 19.0156 30.4688 20.7645 30.4688 22.9219C30.4688 28.8451 25.6498 33.6641 19.7266 33.6641C17.5691 33.6641 15.8203 31.9152 15.8203 29.7578C15.8203 27.6004 17.5691 25.8516 19.7266 25.8516C21.342 25.8516 22.6562 24.5373 22.6562 22.9219C22.6562 20.7645 24.4051 19.0156 26.5625 19.0156Z" fill="#0F2B4D"/>
<path d="M73.8281 18.625C75.9855 18.625 77.7344 20.3738 77.7344 22.5312C77.7344 24.1467 79.0486 25.4609 80.6641 25.4609C82.8215 25.4609 84.5703 27.2098 84.5703 29.3672C84.5703 31.5246 82.8215 33.2734 80.6641 33.2734C74.7408 33.2734 69.9219 28.4545 69.9219 22.5312C69.9219 20.3738 71.6707 18.625 73.8281 18.625Z" fill="#0F2B4D"/>
</svg>
