<svg width="100" height="100" viewBox="0 0 100 100" fill="none" xmlns="http://www.w3.org/2000/svg">
<g clip-path="url(#clip0_7087_5228)">
<circle cx="50" cy="50" r="50" fill="#FFF4E5"/>
</g>
<g clip-path="url(#clip1_7087_5228)">
<circle cx="49.7811" cy="36.7655" r="13.035" fill="white"/>
<path d="M69.3594 78C68.1512 78 67.1719 77.0207 67.1719 75.8125C67.1719 67.2485 60.2046 60.2812 51.6406 60.2812H48.3594C39.7954 60.2812 32.8281 67.2485 32.8281 75.8125C32.8281 77.0207 31.8488 78 30.6406 78C29.4325 78 28.4531 77.0207 28.4531 75.8125C28.4531 64.8362 37.383 55.9062 48.3594 55.9062H51.6406C62.617 55.9062 71.5469 64.8362 71.5469 75.8125C71.5469 77.0207 70.5675 78 69.3594 78Z" fill="#0F2B4D"/>
<path d="M49.7812 51.5312C41.6395 51.5312 35.0156 44.9074 35.0156 36.7656C35.0156 28.6239 41.6395 22 49.7812 22C57.923 22 64.5469 28.6239 64.5469 36.7656C64.5469 44.9074 57.923 51.5312 49.7812 51.5312ZM49.7812 26.375C44.0519 26.375 39.3906 31.0362 39.3906 36.7656C39.3906 42.495 44.0519 47.1562 49.7812 47.1562C55.5106 47.1562 60.1719 42.495 60.1719 36.7656C60.1719 31.0362 55.5106 26.375 49.7812 26.375Z" fill="#0F2B4D"/>
</g>
<defs>
<clipPath id="clip0_7087_5228">
<rect width="100" height="100" fill="white"/>
</clipPath>
<clipPath id="clip1_7087_5228">
<rect width="56" height="56" fill="white" transform="translate(22 22)"/>
</clipPath>
</defs>
</svg>
