<svg width="100" height="100" viewBox="0 0 100 100" fill="none" xmlns="http://www.w3.org/2000/svg">
<g clip-path="url(#clip0_7087_4007)">
<path d="M63.5605 3.44238C74.606 3.44265 83.5605 12.3969 83.5605 23.4424V69.4434H91.5586V90.9238H86.8345L78.654 92.5222C76.7676 94.4046 73.5396 94.3137 71.0263 95.3256C68.7196 96.2544 66.1998 96.7656 63.5605 96.7656H27.6924C16.6467 96.7656 7.69238 87.8113 7.69238 76.7656V23.4424C7.69239 12.3967 16.6467 3.44238 27.6924 3.44238H63.5605Z" fill="white"/>
<path fill-rule="evenodd" clip-rule="evenodd" d="M75.2188 56C87.369 56 97.2188 65.8497 97.2188 78C97.2188 90.1503 87.369 100 75.2188 100C63.0685 100 53.2188 90.1503 53.2188 78C53.2188 65.8497 63.0685 56 75.2188 56ZM75.2188 84.3145C73.1202 84.3146 71.419 86.0157 71.4189 88.1143C71.4189 90.2129 73.1202 91.914 75.2188 91.9141C77.3174 91.9141 79.0186 90.2129 79.0186 88.1143C79.0185 86.0156 77.3174 84.3145 75.2188 84.3145ZM75.2188 65.3301C73.1203 65.3302 71.4192 67.0315 71.4189 69.1299V77.1299C71.4189 79.2285 73.1202 80.9296 75.2188 80.9297C77.3174 80.9297 79.0186 79.2286 79.0186 77.1299V69.1299C79.0183 67.0314 77.3173 65.3301 75.2188 65.3301Z" fill="#DC3545"/>
<path d="M63 0C76.2548 0 87 10.7452 87 24V47.4521C87 49.6613 85.2091 51.4521 83 51.4521C80.7909 51.4521 79 49.6613 79 47.4521V24C79 15.1634 71.8366 8 63 8H28C19.1634 8 12 15.1634 12 24V76C12 84.8365 19.1634 92 28 92H48.3701C50.5791 92.0002 52.3701 93.791 52.3701 96C52.3701 98.209 50.5791 99.9998 48.3701 100H28C14.7452 100 4 89.2548 4 76V24C4 10.7452 14.7452 5.63725e-07 28 0H63Z" fill="#0F2B4D"/>
<path d="M41.5938 69.3359C43.7512 69.3359 45.5 71.0848 45.5 73.2422C45.5 75.3996 43.7512 77.1484 41.5938 77.1484H30.3672C28.2098 77.1484 26.4609 75.3996 26.4609 73.2422C26.4609 71.0848 28.2098 69.3359 30.3672 69.3359H41.5938Z" fill="#0F2B4D"/>
<path d="M46.7734 54.2969C48.9309 54.2969 50.6797 56.0457 50.6797 58.2031C50.6797 60.3605 48.9309 62.1094 46.7734 62.1094H30.3672C28.2098 62.1094 26.4609 60.3605 26.4609 58.2031C26.4609 56.0457 28.2098 54.2969 30.3672 54.2969H46.7734Z" fill="#0F2B4D"/>
<path d="M31.9297 36.1328C34.6264 36.1328 36.8125 38.3189 36.8125 41.0156C36.8125 43.7123 34.6264 45.8984 31.9297 45.8984C29.233 45.8984 27.0469 43.7123 27.0469 41.0156C27.0469 38.3189 29.233 36.1328 31.9297 36.1328Z" fill="#0F2B4D"/>
<path d="M50.6797 15.625C52.8371 15.625 54.5859 17.3738 54.5859 19.5312V26.1719C54.5859 29.4027 57.2145 32.0312 60.4453 32.0312H67.0859C69.2434 32.0312 70.9922 33.7801 70.9922 35.9375C70.9922 38.0949 69.2434 39.8438 67.0859 39.8438H60.4453C52.9066 39.8438 46.7734 33.7105 46.7734 26.1719V19.5312C46.7734 17.3738 48.5223 15.625 50.6797 15.625Z" fill="#0F2B4D"/>
</g>
<defs>
<clipPath id="clip0_7087_4007">
<rect width="100" height="100" fill="white"/>
</clipPath>
</defs>
</svg>
