<svg width="100" height="100" viewBox="0 0 100 100" fill="none" xmlns="http://www.w3.org/2000/svg">
<g clip-path="url(#clip0_7087_5219)">
<circle cx="50" cy="50" r="50" fill="#FBEBEC"/>
</g>
<g clip-path="url(#clip1_7087_5219)">
<path d="M57.5938 23.9277C63.7792 23.9279 68.7938 28.9422 68.7938 35.1277V60.8883H73.2727V72.9173H70.6272L66.0461 73.8125C64.9897 74.8666 63.1821 74.8157 61.7746 75.3824C60.4828 75.9025 59.0717 76.1887 57.5938 76.1888H37.5076C31.322 76.1888 26.3076 71.1743 26.3076 64.9888V35.1277C26.3076 28.9421 31.322 23.9277 37.5076 23.9277H57.5938Z" fill="white"/>
<path d="M39.8809 47.7031C41.391 47.7031 42.6152 46.4789 42.6152 44.9688C42.6152 43.4586 41.391 42.2344 39.8809 42.2344C38.3707 42.2344 37.1465 43.4586 37.1465 44.9688C37.1465 46.4789 38.3707 47.7031 39.8809 47.7031Z" fill="#0F2B4D"/>
<path d="M59.5684 44.3125H55.8496C51.628 44.3125 48.1934 40.8779 48.1934 36.6563V32.9375C48.1934 31.7293 49.1727 30.75 50.3809 30.75C51.589 30.75 52.5684 31.7293 52.5684 32.9375V36.6563C52.5684 38.4655 54.0403 39.9375 55.8496 39.9375H59.5684C60.7765 39.9375 61.7559 40.9168 61.7559 42.125C61.7559 43.3332 60.7765 44.3125 59.5684 44.3125Z" fill="#0F2B4D"/>
<path d="M45.2927 65.2031H39.0059C37.7977 65.2031 36.8184 64.2238 36.8184 63.0156C36.8184 61.8075 37.7977 60.8281 39.0059 60.8281H45.2927C46.5009 60.8281 47.4802 61.8075 47.4802 63.0156C47.4802 64.2238 46.5009 65.2031 45.2927 65.2031Z" fill="#0F2B4D"/>
<path d="M48.1934 56.7813H39.0059C37.7977 56.7813 36.8184 55.8019 36.8184 54.5938C36.8184 53.3856 37.7977 52.4063 39.0059 52.4063H48.1934C49.4015 52.4063 50.3809 53.3856 50.3809 54.5938C50.3809 55.8019 49.4015 56.7813 48.1934 56.7813Z" fill="#0F2B4D"/>
<path d="M64.1221 53.3604C70.9261 53.3604 76.4422 58.8757 76.4424 65.6797C76.4424 72.4838 70.9262 78 64.1221 78C57.3181 77.9998 51.8027 72.4837 51.8027 65.6797C51.8029 58.8758 57.3182 53.3606 64.1221 53.3604ZM64.123 69.2158C62.9479 69.2158 61.9943 70.1686 61.9941 71.3438C61.9941 72.519 62.9478 73.4717 64.123 73.4717C65.2981 73.4714 66.251 72.5189 66.251 71.3438C66.2508 70.1688 65.298 69.2161 64.123 69.2158ZM64.123 58.585C62.9478 58.585 61.9952 59.5377 61.9951 60.7129V65.1934C61.9953 66.3684 62.9479 67.3213 64.123 67.3213C65.298 67.3211 66.2508 66.3683 66.251 65.1934V60.7129C66.2509 59.5378 65.2981 58.5852 64.123 58.585Z" fill="#DC3545"/>
<path d="M66.2402 48.5732V35.44C66.2402 30.4915 62.2287 26.48 57.2802 26.48H37.6802C32.7318 26.48 28.7202 30.4915 28.7202 35.44V64.56C28.7202 69.5085 32.7318 73.52 37.6802 73.52H49.0875C50.3245 73.5201 51.3275 74.5229 51.3275 75.76C51.3275 76.9971 50.3245 77.9999 49.0875 78H37.6802C30.2575 78 24.2402 71.9827 24.2402 64.56V35.44C24.2402 28.0173 30.2575 22 37.6802 22H57.2802C64.7029 22 70.7202 28.0173 70.7202 35.44V48.5732C70.7202 49.8103 69.7174 50.8132 68.4802 50.8132C67.2431 50.8132 66.2402 49.8103 66.2402 48.5732Z" fill="#0F2B4D"/>
</g>
<defs>
<clipPath id="clip0_7087_5219">
<rect width="100" height="100" fill="white"/>
</clipPath>
<clipPath id="clip1_7087_5219">
<rect width="56" height="56" fill="white" transform="translate(22 22)"/>
</clipPath>
</defs>
</svg>
