<svg width="100" height="100" viewBox="0 0 100 100" fill="none" xmlns="http://www.w3.org/2000/svg">
<path d="M23.6514 78.2041C12.6057 78.2041 3.65137 69.2498 3.65137 58.2041L3.65137 26.7959C3.65137 15.7502 12.6057 6.7959 23.6514 6.7959L76.3481 6.7959C87.3938 6.7959 96.3481 15.7502 96.3481 26.7959V58.2041C96.3481 69.2498 87.3938 78.2041 76.3481 78.2041H23.6514Z" fill="white"/>
<path d="M94.5984 76.3196C94.5984 87.2523 85.7357 96.115 74.803 96.115C63.8703 96.115 55.0076 87.2523 55.0076 76.3196C55.0076 65.3869 63.8703 56.5242 74.803 56.5242C85.7357 56.5242 94.5984 65.3869 94.5984 76.3196Z" fill="white"/>
<path fill-rule="evenodd" clip-rule="evenodd" d="M75 54C87.1503 54 97 63.8497 97 76C97 88.1503 87.1503 98 75 98C62.8497 98 53 88.1503 53 76C53 63.8497 62.8497 54 75 54ZM75.4277 82.085C73.3291 82.0851 71.6279 83.7861 71.6279 85.8848C71.628 87.9834 73.3292 89.6845 75.4277 89.6846C77.5264 89.6846 79.2275 87.9834 79.2275 85.8848C79.2275 83.7861 77.5264 82.085 75.4277 82.085ZM75.4277 63.1006C73.3291 63.1006 71.6281 64.8018 71.6279 66.9004V74.9004C71.6279 76.9991 73.3291 78.7002 75.4277 78.7002C77.5264 78.7002 79.2275 76.9991 79.2275 74.9004V66.9004C79.2274 64.8018 77.5263 63.1006 75.4277 63.1006Z" fill="#DC3545"/>
<path d="M92.25 49.5V25C92.25 17.1299 85.8701 10.75 78 10.75H22C14.1299 10.75 7.75 17.1299 7.75 25V60C7.75 67.8701 14.1299 74.25 22 74.25H43C45.0711 74.25 46.75 75.9289 46.75 78C46.75 80.0711 45.0711 81.75 43 81.75H22C9.98781 81.75 0.25 72.0122 0.25 60V25C0.250001 12.9878 9.98781 3.25 22 3.25H78C90.0122 3.25 99.75 12.9878 99.75 25V49.5C99.75 51.5711 98.0711 53.25 96 53.25C93.9289 53.25 92.25 51.5711 92.25 49.5Z" fill="#0F2B4D"/>
<path d="M19.7266 51.2422C25.6498 51.2422 30.4688 56.0611 30.4688 61.9844C30.4688 64.1418 28.7199 65.8906 26.5625 65.8906C24.4051 65.8906 22.6562 64.1418 22.6562 61.9844C22.6562 60.3689 21.342 59.0547 19.7266 59.0547C17.5691 59.0547 15.8203 57.3059 15.8203 55.1484C15.8203 52.991 17.5691 51.2422 19.7266 51.2422Z" fill="#0F2B4D"/>
<path fill-rule="evenodd" clip-rule="evenodd" d="M50 26.8281C58.6156 26.8281 65.625 33.8375 65.625 42.4531C65.625 51.0687 58.6156 58.0781 50 58.0781C41.3844 58.0781 34.375 51.0687 34.375 42.4531C34.375 33.8375 41.3844 26.8281 50 26.8281ZM50 34.5C45.5817 34.5 42 38.0817 42 42.5C42 46.9183 45.5817 50.5 50 50.5C54.4183 50.5 58 46.9183 58 42.5C58 38.0817 54.4183 34.5 50 34.5Z" fill="#0F2B4D"/>
<path d="M26.5625 19.0156C28.7199 19.0156 30.4688 20.7645 30.4688 22.9219C30.4688 28.8451 25.6498 33.6641 19.7266 33.6641C17.5691 33.6641 15.8203 31.9152 15.8203 29.7578C15.8203 27.6004 17.5691 25.8516 19.7266 25.8516C21.342 25.8516 22.6562 24.5373 22.6562 22.9219C22.6562 20.7645 24.4051 19.0156 26.5625 19.0156Z" fill="#0F2B4D"/>
<path d="M73.8281 18.625C75.9855 18.625 77.7344 20.3738 77.7344 22.5312C77.7344 24.1467 79.0486 25.4609 80.6641 25.4609C82.8215 25.4609 84.5703 27.2098 84.5703 29.3672C84.5703 31.5246 82.8215 33.2734 80.6641 33.2734C74.7408 33.2734 69.9219 28.4545 69.9219 22.5312C69.9219 20.3738 71.6707 18.625 73.8281 18.625Z" fill="#0F2B4D"/>
</svg>
