<svg width="100" height="100" viewBox="0 0 100 100" fill="none" xmlns="http://www.w3.org/2000/svg">
<g clip-path="url(#clip0_7087_5240)">
<circle cx="50" cy="50" r="50" fill="#FBEBEC"/>
</g>
<path d="M35.2449 65.7943C29.0593 65.7943 24.0449 60.7799 24.0449 54.5943L24.0449 37.0057C24.0449 30.8201 29.0593 25.8057 35.2449 25.8057L64.7551 25.8057C70.9407 25.8057 75.9551 30.8201 75.9551 37.0057V54.5943C75.9551 60.7799 70.9407 65.7943 64.7551 65.7943H35.2449Z" fill="white"/>
<path d="M74.9753 64.739C74.9753 70.8613 70.0121 75.8244 63.8898 75.8244C57.7675 75.8244 52.8044 70.8613 52.8044 64.739C52.8044 58.6167 57.7675 53.6536 63.8898 53.6536C70.0121 53.6536 74.9753 58.6167 74.9753 64.739Z" fill="white"/>
<path fill-rule="evenodd" clip-rule="evenodd" d="M64.0002 52.24C70.8043 52.24 76.3202 57.7558 76.3202 64.56C76.3202 71.3641 70.8043 76.88 64.0002 76.88C57.196 76.88 51.6802 71.3641 51.6802 64.56C51.6802 57.7558 57.196 52.24 64.0002 52.24ZM64.2397 67.9676C63.0645 67.9676 62.1118 68.9202 62.1118 70.0955C62.1118 71.2707 63.0645 72.2233 64.2397 72.2233C65.415 72.2233 66.3676 71.2707 66.3676 70.0955C66.3676 68.9202 65.415 67.9676 64.2397 67.9676ZM64.2397 57.3363C63.0645 57.3363 62.1119 58.289 62.1118 59.4642V63.9442C62.1118 65.1195 63.0644 66.0721 64.2397 66.0721C65.415 66.0721 66.3676 65.1195 66.3676 63.9442V59.4642C66.3675 58.289 65.4149 57.3363 64.2397 57.3363Z" fill="#DC3545"/>
<path d="M73.6601 49.72V36C73.6601 31.5928 70.0874 28.02 65.6801 28.02H34.3201C29.9129 28.02 26.3401 31.5928 26.3401 36V55.6C26.3401 60.0072 29.9129 63.58 34.3201 63.58H46.0801C47.2399 63.58 48.1801 64.5202 48.1801 65.68C48.1801 66.8398 47.2399 67.78 46.0801 67.78H34.3201C27.5933 67.78 22.1401 62.3268 22.1401 55.6V36C22.1401 29.2732 27.5933 23.82 34.3201 23.82H65.6801C72.407 23.82 77.8601 29.2732 77.8601 36V49.72C77.8601 50.8798 76.9199 51.82 75.7601 51.82C74.6003 51.82 73.6601 50.8798 73.6601 49.72Z" fill="#0F2B4D"/>
<path d="M33.047 50.6956C36.364 50.6956 39.0626 53.3942 39.0626 56.7113C39.0626 57.9194 38.0833 58.8988 36.8751 58.8988C35.667 58.8988 34.6876 57.9194 34.6876 56.7113C34.6876 55.8066 33.9517 55.0706 33.047 55.0706C31.8389 55.0706 30.8595 54.0913 30.8595 52.8831C30.8595 51.675 31.8389 50.6956 33.047 50.6956Z" fill="#0F2B4D"/>
<path fill-rule="evenodd" clip-rule="evenodd" d="M50.0001 37.0238C54.8249 37.0238 58.7501 40.949 58.7501 45.7738C58.7501 50.5985 54.8249 54.5238 50.0001 54.5238C45.1754 54.5238 41.2501 50.5985 41.2501 45.7738C41.2501 40.949 45.1754 37.0238 50.0001 37.0238ZM50.0001 41.32C47.5259 41.32 45.5201 43.3258 45.5201 45.8C45.5201 48.2742 47.5259 50.28 50.0001 50.28C52.4744 50.28 54.4801 48.2742 54.4801 45.8C54.4801 43.3258 52.4744 41.32 50.0001 41.32Z" fill="#0F2B4D"/>
<path d="M36.8751 32.6488C38.0833 32.6488 39.0626 33.6281 39.0626 34.8363C39.0626 38.1533 36.364 40.8519 33.047 40.8519C31.8389 40.8519 30.8595 39.8725 30.8595 38.6644C30.8595 37.4562 31.8389 36.4769 33.047 36.4769C33.9517 36.4769 34.6876 35.7409 34.6876 34.8363C34.6876 33.6281 35.667 32.6488 36.8751 32.6488Z" fill="#0F2B4D"/>
<path d="M63.3439 32.43C64.552 32.43 65.5314 33.4094 65.5314 34.6175C65.5314 35.5221 66.2674 36.2581 67.172 36.2581C68.3802 36.2581 69.3595 37.2375 69.3595 38.4456C69.3595 39.6538 68.3802 40.6331 67.172 40.6331C63.855 40.6331 61.1564 37.9345 61.1564 34.6175C61.1564 33.4094 62.1357 32.43 63.3439 32.43Z" fill="#0F2B4D"/>
<defs>
<clipPath id="clip0_7087_5240">
<rect width="100" height="100" fill="white"/>
</clipPath>
</defs>
</svg>
