<svg width="16" height="16" viewBox="0 0 16 16" fill="none" xmlns="http://www.w3.org/2000/svg">
<g clip-path="url(#clip0_1653_5815)">
<path d="M11.25 5.33496C11.25 4.47301 10.9073 3.6466 10.2978 3.03711C9.68836 2.42762 8.86195 2.08496 8 2.08496C7.13804 2.08496 6.31164 2.42762 5.70215 3.03711C5.09265 3.6466 4.75 4.47301 4.75 5.33496C4.75 7.7788 4.22508 9.40506 3.6582 10.4443C3.63158 10.4931 3.60188 10.5388 3.57519 10.585H12.4248C12.3981 10.5388 12.3684 10.4931 12.3418 10.4443C11.7749 9.40506 11.25 7.7788 11.25 5.33496ZM12.75 5.33496C12.75 7.55753 13.2251 8.93149 13.6582 9.72559C13.8758 10.1245 14.0875 10.3852 14.2324 10.5381C14.3049 10.6146 14.3615 10.6649 14.3945 10.6924C14.411 10.7061 14.4219 10.7139 14.4258 10.7168C14.425 10.7163 14.4243 10.7159 14.4228 10.7148C14.422 10.7143 14.421 10.7136 14.4199 10.7129L14.418 10.7119C14.6922 10.8954 14.8134 11.2368 14.7178 11.5527C14.6219 11.8688 14.3304 12.085 14 12.085H2C1.66964 12.085 1.37813 11.8688 1.28222 11.5527C1.18658 11.2368 1.3088 10.8954 1.58301 10.7119L1.58008 10.7129C1.57901 10.7136 1.57798 10.7143 1.57715 10.7148C1.57567 10.7159 1.57497 10.7172 1.57422 10.7178C1.57814 10.7148 1.58903 10.7061 1.60547 10.6924C1.6385 10.6649 1.69509 10.6146 1.76758 10.5381C1.91246 10.3852 2.1242 10.1245 2.34179 9.72559C2.77488 8.93149 3.25 7.55753 3.25 5.33496C3.25 4.07518 3.7508 2.86736 4.6416 1.97656C5.5324 1.08576 6.74022 0.584961 8 0.584961C9.25978 0.584961 10.4676 1.08576 11.3584 1.97656C12.2492 2.86736 12.75 4.07518 12.75 5.33496Z" fill="#60758F"/>
<path d="M8.50485 13.6256C8.71266 13.2674 9.17099 13.1454 9.52926 13.3531C9.88752 13.561 10.0095 14.0193 9.80173 14.3776C9.61859 14.6933 9.35627 14.9561 9.04001 15.1383C8.72375 15.3205 8.36493 15.4156 7.99997 15.4156C7.635 15.4156 7.27619 15.3205 6.95993 15.1383C6.64366 14.9561 6.38134 14.6933 6.19821 14.3776C5.99047 14.0193 6.11242 13.561 6.47067 13.3531C6.82895 13.1454 7.28727 13.2674 7.49508 13.6256C7.54636 13.714 7.62044 13.7875 7.70895 13.8385C7.79743 13.8894 7.89789 13.9156 7.99997 13.9156C8.10204 13.9156 8.2025 13.8894 8.29098 13.8385C8.37949 13.7875 8.45358 13.7139 8.50485 13.6256Z" fill="#60758F"/>
</g>
<defs>
<clipPath id="clip0_1653_5815">
<rect width="16" height="16" fill="white"/>
</clipPath>
</defs>
</svg>
