<svg width="16" height="16" viewBox="0 0 16 16" fill="none" xmlns="http://www.w3.org/2000/svg">
<g clip-path="url(#clip0_1653_5799)">
<path d="M14.584 4C14.5838 3.67798 14.3221 3.41699 14 3.41699H2C1.67809 3.41717 1.41717 3.67809 1.41699 4V12C1.41699 12.3221 1.67798 12.5838 2 12.584H14C14.3222 12.584 14.584 12.3222 14.584 12V4ZM16.084 12C16.084 13.1506 15.1506 14.084 14 14.084H2C0.849556 14.0838 -0.0830078 13.1505 -0.0830078 12V4C-0.082832 2.84966 0.849665 1.91717 2 1.91699H14C15.1505 1.91699 16.0838 2.84956 16.084 4V12Z" fill="#60758F"/>
<path d="M15.334 5.91699C15.748 5.91717 16.084 6.25289 16.084 6.66699C16.084 7.0811 15.748 7.41682 15.334 7.41699H0.666992C0.252779 7.41699 -0.0830078 7.08121 -0.0830078 6.66699C-0.0830078 6.25278 0.252779 5.91699 0.666992 5.91699H15.334Z" fill="#60758F"/>
</g>
<defs>
<clipPath id="clip0_1653_5799">
<rect width="16" height="16" fill="white"/>
</clipPath>
</defs>
</svg>
