<svg width="16" height="16" viewBox="0 0 16 16" fill="none" xmlns="http://www.w3.org/2000/svg">
<path d="M12.584 14V12.667C12.584 12.1587 12.3818 11.671 12.0225 11.3115C11.663 10.9521 11.1753 10.75 10.667 10.75H5.33398C4.82565 10.75 4.33796 10.9521 3.97852 11.3115C3.61907 11.671 3.41699 12.1587 3.41699 12.667V14C3.41699 14.4142 3.08121 14.75 2.66699 14.75C2.25278 14.75 1.91699 14.4142 1.91699 14V12.667C1.91699 11.7608 2.27722 10.8917 2.91797 10.251C3.55872 9.61023 4.42783 9.25 5.33398 9.25H10.667C11.5731 9.25 12.4423 9.61023 13.083 10.251C13.7237 10.8917 14.084 11.7609 14.084 12.667V14C14.084 14.4141 13.748 14.7498 13.334 14.75C12.9198 14.75 12.584 14.4142 12.584 14Z" fill="#60758F"/>
<path d="M9.91663 4.66699C9.91663 3.60855 9.05901 2.75018 8.00061 2.75C6.94206 2.75 6.08362 3.60845 6.08362 4.66699C6.08379 5.72539 6.94217 6.58301 8.00061 6.58301C9.0589 6.58283 9.91645 5.72528 9.91663 4.66699ZM11.4166 4.66699C11.4165 6.55371 9.88733 8.08283 8.00061 8.08301C6.11375 8.08301 4.58379 6.55382 4.58362 4.66699C4.58362 2.78002 6.11364 1.25 8.00061 1.25C9.88743 1.25018 11.4166 2.78013 11.4166 4.66699Z" fill="#60758F"/>
</svg>
