<svg width="16" height="16" viewBox="0 0 16 16" fill="none" xmlns="http://www.w3.org/2000/svg">
<path d="M11.5 11.917C11.6892 11.917 11.8701 11.9884 12.0078 12.1152L12.0645 12.1729L12.9434 13.1768C13.125 13.078 13.2499 12.8883 13.25 12.667V3.33301C13.2498 3.0111 12.9889 2.75018 12.667 2.75H3.33301C3.0111 2.75018 2.75018 3.0111 2.75 3.33301V12.667C2.75012 12.888 2.87441 13.0779 3.05566 13.1768L3.93555 12.1729L3.99219 12.1152C4.12992 11.9884 4.31081 11.917 4.5 11.917C4.68919 11.917 4.87008 11.9884 5.00781 12.1152L5.06445 12.1729L5.66602 12.8604L6.26855 12.1729L6.3252 12.1152C6.46287 11.9884 6.64385 11.9171 6.83301 11.917C7.02236 11.917 7.20402 11.9882 7.3418 12.1152L7.39746 12.1729L8 12.8604L8.60254 12.1729L8.6582 12.1152C8.79598 11.9882 8.97764 11.917 9.16699 11.917C9.35615 11.9171 9.53713 11.9884 9.6748 12.1152L9.73145 12.1729L10.333 12.8604L10.9355 12.1729L10.9922 12.1152C11.1299 11.9884 11.3108 11.917 11.5 11.917ZM14.75 12.667C14.7498 13.8173 13.8173 14.7498 12.667 14.75C12.4509 14.75 12.2449 14.6567 12.1025 14.4941L11.5 13.8047L10.8975 14.4941C10.7551 14.6567 10.5491 14.75 10.333 14.75C10.1169 14.7499 9.9109 14.6568 9.76855 14.4941L9.16602 13.8047L8.56445 14.4941C8.42204 14.6568 8.21621 14.75 8 14.75C7.78379 14.75 7.57796 14.6568 7.43555 14.4941L6.83301 13.8047L6.23145 14.4941C6.0891 14.6568 5.88314 14.7499 5.66699 14.75C5.45085 14.75 5.24495 14.6567 5.10254 14.4941L4.5 13.8047L3.89746 14.4941C3.75505 14.6567 3.54915 14.75 3.33301 14.75C2.18267 14.7498 1.25018 13.8173 1.25 12.667V3.33301C1.25018 2.18267 2.18267 1.25018 3.33301 1.25H12.667C13.8173 1.25018 14.7498 2.18267 14.75 3.33301V12.667Z" fill="#60758F"/>
<path d="M11.25 4.5C11.6642 4.5 12 4.83579 12 5.25C12 5.66421 11.6642 6 11.25 6H4.75C4.33579 6 4 5.66421 4 5.25C4 4.83579 4.33579 4.5 4.75 4.5H11.25Z" fill="#60758F"/>
<path d="M11.25 7.83337C11.6642 7.83337 12 8.16916 12 8.58337C12 8.99759 11.6642 9.33337 11.25 9.33337H4.75C4.33579 9.33337 4 8.99759 4 8.58337C4 8.16916 4.33579 7.83337 4.75 7.83337H11.25Z" fill="#60758F"/>
</svg>
