<svg width="16" height="16" viewBox="0 0 16 16" fill="none" xmlns="http://www.w3.org/2000/svg">
<g clip-path="url(#clip0_2064_1692)">
<path d="M1.33329 13V3C1.33329 1.34315 2.67644 0 4.33329 0H9.25712L9.55399 0.0146484C10.2407 0.0828603 10.886 0.386721 11.3782 0.878906L12.5003 2L13.9339 3.6543C14.4065 4.19972 14.6663 4.89741 14.6663 5.61914V13L14.6624 13.1543C14.5847 14.6884 13.3548 15.9185 11.8206 15.9961L11.6663 16V14.5C12.4947 14.5 13.1663 13.8284 13.1663 13V5.61914C13.1663 5.25826 13.0364 4.90944 12.8001 4.63672L11.3977 3.01855L10.3177 1.93945C10.0364 1.65822 9.65489 1.5 9.25712 1.5H4.33329C3.50486 1.5 2.83329 2.17157 2.83329 3V13C2.83329 13.8284 3.50486 14.5 4.33329 14.5V16L4.17899 15.9961C2.59384 15.9158 1.33329 14.6051 1.33329 13ZM11.6663 14.5V16H4.33329V14.5H11.6663Z" fill="#60758F"/>
<path d="M10.126 8.14612C10.4132 7.84773 10.8881 7.83936 11.1865 8.12659C11.4849 8.41383 11.4942 8.88871 11.207 9.18713L7.999 12.5201L7.94334 12.5719C7.80846 12.6863 7.63646 12.7496 7.45798 12.7496C7.27971 12.7496 7.10837 12.6861 6.97361 12.5719L6.91795 12.5201L5.45994 11.0045C5.17273 10.7061 5.18105 10.2312 5.47947 9.94397C5.77781 9.65684 6.25275 9.66633 6.54002 9.96448L7.45798 10.9176L10.126 8.14612Z" fill="#60758F"/>
<path d="M8.58329 4.33362V2.66663C8.58329 2.25241 8.91908 1.91663 9.33329 1.91663C9.7475 1.91663 10.0833 2.25241 10.0833 2.66663V4.33362C10.0835 4.47154 10.1953 4.58362 10.3333 4.58362H12.0003C12.4143 4.58379 12.7503 4.91951 12.7503 5.33362C12.7501 5.74757 12.4142 6.08344 12.0003 6.08362H10.3333C9.3669 6.08362 8.58347 5.29997 8.58329 4.33362Z" fill="#60758F"/>
</g>
<defs>
<clipPath id="clip0_2064_1692">
<rect width="16" height="16" fill="white"/>
</clipPath>
</defs>
</svg>
