<svg width="16" height="16" viewBox="0 0 16 16" fill="none" xmlns="http://www.w3.org/2000/svg">
<path d="M14.0003 8.00033C14.0003 4.68662 11.314 2.00033 8.00033 2.00033C4.68662 2.00033 2.00033 4.68662 2.00033 8.00033C2.00033 11.314 4.68662 14.0003 8.00033 14.0003C11.314 14.0003 14.0003 11.314 14.0003 8.00033ZM15.3337 8.00033C15.3337 12.0504 12.0504 15.3337 8.00033 15.3337C3.95024 15.3337 0.666992 12.0504 0.666992 8.00033C0.666992 3.95024 3.95024 0.666992 8.00033 0.666992C12.0504 0.666992 15.3337 3.95024 15.3337 8.00033Z" fill="#60758F"/>
<path d="M6.59611 4.36515C7.13895 4.04617 7.77698 3.92934 8.39754 4.03573C9.01814 4.14218 9.58118 4.46487 9.98674 4.94653C10.3921 5.42813 10.6145 6.03773 10.6137 6.66724L10.6052 6.85409C10.5202 7.77049 9.82335 8.38423 9.31681 8.72192C9.02651 8.91545 8.74076 9.05744 8.53035 9.15096C8.42419 9.19815 8.33436 9.23384 8.26994 9.25838C8.23774 9.27065 8.21148 9.28027 8.19246 9.28703C8.18304 9.29038 8.1755 9.29349 8.16968 9.29549C8.16684 9.29647 8.16446 9.29744 8.16252 9.2981C8.16164 9.29839 8.1606 9.29852 8.15991 9.29875L8.15861 9.2994L8.0922 9.31763C7.76243 9.39165 7.42338 9.20505 7.31421 8.87752C7.19814 8.52872 7.38637 8.15129 7.73478 8.03442H7.73608C7.73785 8.03382 7.74117 8.03283 7.74585 8.03117C7.75606 8.02754 7.77305 8.02142 7.79533 8.01294C7.84027 7.99582 7.90738 7.969 7.98869 7.93286C8.15322 7.85974 8.36768 7.75224 8.57723 7.61255C9.03683 7.30615 9.28021 6.97991 9.28036 6.66724V6.66593L9.94702 6.66724H10.169L9.28036 6.66593C9.28082 6.3511 9.16994 6.04613 8.9672 5.80526C8.76442 5.56437 8.48263 5.40276 8.17228 5.34953C7.86198 5.29634 7.54266 5.35472 7.27124 5.51424C6.99985 5.67374 6.79372 5.92434 6.68921 6.22127C6.56703 6.5686 6.18628 6.75166 5.83895 6.62948C5.49168 6.5073 5.30931 6.1265 5.4314 5.77922C5.64038 5.18514 6.05317 4.68424 6.59611 4.36515Z" fill="#60758F"/>
<path d="M8.00684 10.667C8.37503 10.667 8.6735 10.9655 8.6735 11.3337C8.6735 11.7018 8.37503 12.0003 8.00684 12.0003H8.00033C7.63214 12.0003 7.33366 11.7018 7.33366 11.3337C7.33366 10.9655 7.63214 10.667 8.00033 10.667H8.00684Z" fill="#60758F"/>
</svg>
