<svg width="16" height="16" viewBox="0 0 16 16" fill="none" xmlns="http://www.w3.org/2000/svg">
<g clip-path="url(#clip0_1653_5787)">
<path d="M4.80267 9.00684C5.47512 9.07501 5.99993 9.64257 5.99993 10.333V14.333L5.99277 14.4691C5.92913 15.0968 5.43037 15.5955 4.80267 15.6592L4.6666 15.6663H3.33327L3.1972 15.6592C2.5695 15.5955 2.07073 15.0968 2.0071 14.4691L1.99993 14.333V10.333C1.99993 9.64257 2.52475 9.07501 3.1972 9.00684L3.33327 8.99967H4.6666L4.80267 9.00684ZM9.46934 10.3402C10.1418 10.4083 10.6666 10.9759 10.6666 11.6663V14.333L10.6594 14.4691C10.5958 15.0968 10.097 15.5955 9.46934 15.6592L9.33327 15.6663H7.99993L7.86387 15.6592C7.19142 15.591 6.6666 15.0234 6.6666 14.333V11.6663C6.6666 10.9759 7.19142 10.4083 7.86387 10.3402L7.99993 10.333H9.33327L9.46934 10.3402ZM14.136 6.34017C14.8085 6.40834 15.3333 6.97591 15.3333 7.66634V14.333L15.3261 14.4691C15.2625 15.0968 14.7637 15.5955 14.136 15.6592L13.9999 15.6663H12.6666L12.5305 15.6592C11.9028 15.5955 11.4041 15.0968 11.3404 14.4691L11.3333 14.333V7.66634C11.3333 6.97591 11.8581 6.40834 12.5305 6.34017L12.6666 6.33301H13.9999L14.136 6.34017ZM12.6666 14.333H13.9999V7.66634H12.6666V14.333ZM3.33327 14.333H4.6666V10.333H3.33327V14.333ZM7.99993 14.333H9.33327V11.6663H7.99993V14.333ZM15.3469 0.333659C15.3587 0.333893 15.3704 0.334112 15.3821 0.334961L15.4016 0.336263C15.408 0.336908 15.4142 0.338045 15.4205 0.338867C15.4235 0.339265 15.4266 0.339729 15.4296 0.340169C15.506 0.351236 15.5781 0.375139 15.6438 0.409831C15.6472 0.411637 15.6508 0.413168 15.6542 0.415039L15.6894 0.435872C15.6929 0.438128 15.6963 0.440713 15.6998 0.443034C15.7054 0.446709 15.7106 0.450892 15.7161 0.454753C15.7284 0.463442 15.7408 0.47196 15.7525 0.481445C15.7561 0.484346 15.7594 0.487574 15.763 0.49056C15.7748 0.500593 15.7863 0.510984 15.7975 0.52181C15.7998 0.524054 15.8023 0.526037 15.8046 0.52832C15.8067 0.53038 15.8085 0.532751 15.8105 0.534831C15.8355 0.560479 15.8582 0.588123 15.8788 0.617513C15.8828 0.623147 15.8868 0.628713 15.8906 0.63444C15.8967 0.643805 15.9025 0.653401 15.9081 0.663086C15.9118 0.669396 15.9157 0.675564 15.9192 0.681966C15.9267 0.695762 15.9335 0.709922 15.94 0.724284C15.9424 0.729433 15.9444 0.734714 15.9465 0.739909C15.9519 0.752477 15.9563 0.765372 15.9609 0.77832C15.9634 0.785464 15.9658 0.792596 15.968 0.799805C15.972 0.812296 15.9759 0.824769 15.9791 0.837565C15.9804 0.842782 15.9818 0.847949 15.983 0.85319C15.9862 0.867587 15.9892 0.882079 15.9915 0.89681C15.9927 0.90504 15.9938 0.913286 15.9947 0.921549C15.9957 0.929748 15.996 0.938003 15.9967 0.946289C15.9978 0.959749 15.999 0.973161 15.9993 0.986654C15.9994 0.990987 15.9999 0.995321 15.9999 0.999674V4.99967C15.9999 5.36786 15.7015 5.66634 15.3333 5.66634C14.9651 5.66634 14.6666 5.36786 14.6666 4.99967V2.60905L9.47129 7.80436C9.21094 8.0647 8.78893 8.06471 8.52858 7.80436L5.6666 4.94238L1.13795 9.47103C0.877604 9.73137 0.455592 9.73137 0.195247 9.47103C-0.0650801 9.21068 -0.0650843 8.78866 0.195247 8.52832L5.19525 3.52832L5.24603 3.48275C5.50787 3.26919 5.89388 3.28426 6.13795 3.52832L8.99993 6.3903L13.7239 1.66634H11.3333C10.9651 1.66634 10.6666 1.36786 10.6666 0.999674C10.6666 0.631485 10.9651 0.333008 11.3333 0.333008H15.3333L15.3469 0.333659Z" fill="#60758F"/>
</g>
<defs>
<clipPath id="clip0_1653_5787">
<rect width="16" height="16" fill="white"/>
</clipPath>
</defs>
</svg>
