<svg width="16" height="16" viewBox="0 0 16 16" fill="none" xmlns="http://www.w3.org/2000/svg">
<g clip-path="url(#clip0_876_1998)">
<path d="M7.85596 1.30548C7.99851 1.27763 8.14731 1.29171 8.28369 1.34747L15.6167 4.34747C15.8986 4.46278 16.0835 4.73726 16.0835 5.04181V6.04181C16.0835 6.45591 15.7476 6.79163 15.3335 6.79181H12.6665C12.2523 6.79181 11.9165 6.45602 11.9165 6.04181C11.9165 5.62759 12.2523 5.29181 12.6665 5.29181H13.9634L7.99951 2.85138L2.03662 5.29181H3.3335C3.74756 5.29198 4.0835 5.6277 4.0835 6.04181C4.0835 6.45591 3.74756 6.79163 3.3335 6.79181H0.666504C0.25229 6.79181 -0.0834961 6.45602 -0.0834961 6.04181V5.04181C-0.0834961 4.7373 0.10052 4.46281 0.382324 4.34747L7.71631 1.34747L7.85596 1.30548Z" fill="#60758F"/>
<path d="M2.74985 6.04181V14.0418H1.24985V6.04181H2.74985ZM14.7498 6.04181V14.0418H13.2498V6.04181H14.7498Z" fill="#60758F"/>
<path d="M15.2498 13.2084C15.6641 13.2084 15.9998 13.5442 15.9998 13.9584C15.9998 14.3726 15.6641 14.7084 15.2498 14.7084H0.749847C0.335634 14.7084 -0.000152588 14.3726 -0.000152588 13.9584C-0.000152588 13.5442 0.335634 13.2084 0.749847 13.2084H15.2498Z" fill="#60758F"/>
<path d="M7.24985 12.0414V4.70843C7.24985 4.29422 7.58563 3.95843 7.99985 3.95843C8.41406 3.95843 8.74985 4.29422 8.74985 4.70843V12.0414C8.74985 12.4557 8.41406 12.7914 7.99985 12.7914C7.58563 12.7914 7.24985 12.4557 7.24985 12.0414Z" fill="#60758F"/>
<path d="M9.9162 9.54181C9.9162 9.51236 9.90174 9.42288 9.76093 9.3172C9.61581 9.20836 9.38314 9.12481 9.11053 9.12481H6.88885C6.33644 9.12481 5.77735 8.96223 5.33905 8.6336C4.89667 8.30182 4.58331 7.79804 4.58319 7.2088C4.58319 6.61945 4.89662 6.11584 5.33905 5.78399C5.77738 5.45524 6.33634 5.29181 6.88885 5.29181H10.2219C10.6361 5.29181 10.9719 5.62759 10.9719 6.04181C10.9719 6.45602 10.6361 6.79181 10.2219 6.79181H6.88885C6.61625 6.79181 6.38358 6.87438 6.23846 6.98321C6.09755 7.08893 6.08319 7.17935 6.08319 7.2088C6.0833 7.23857 6.09821 7.32813 6.23846 7.43341C6.38358 7.54224 6.61625 7.62481 6.88885 7.62481H9.11053C9.66305 7.62481 10.223 7.78825 10.6613 8.117C11.1036 8.44885 11.4162 8.95257 11.4162 9.54181C11.4162 10.131 11.1036 10.6348 10.6613 10.9666C10.223 11.2954 9.66305 11.4588 9.11053 11.4588H5.33319C4.91909 11.4588 4.58337 11.1229 4.58319 10.7088C4.58319 10.2946 4.91898 9.9588 5.33319 9.9588H9.11053C9.38314 9.9588 9.61581 9.87525 9.76093 9.76642C9.90174 9.66074 9.9162 9.57125 9.9162 9.54181Z" fill="#60758F"/>
</g>
<defs>
<clipPath id="clip0_876_1998">
<rect width="16" height="16" fill="white"/>
</clipPath>
</defs>
</svg>
