<svg width="16" height="16" viewBox="0 0 16 16" fill="none" xmlns="http://www.w3.org/2000/svg">
<g clip-path="url(#clip0_10874_18928)">
<path d="M13.25 6.3665L8 2.28349L2.75 6.3665V13.3333C2.75 13.4879 2.8116 13.636 2.9209 13.7454C3.03022 13.8547 3.17842 13.9162 3.33301 13.9163H12.667C12.8216 13.9162 12.9698 13.8547 13.0791 13.7454C13.1884 13.636 13.25 13.4879 13.25 13.3333V6.3665ZM14.75 13.3333C14.75 13.8858 14.5302 14.4153 14.1396 14.8059C13.749 15.1966 13.2194 15.4162 12.667 15.4163H3.33301C2.78059 15.4162 2.25098 15.1966 1.86035 14.8059C1.46975 14.4153 1.25 13.8858 1.25 13.3333V6.00028C1.25 5.76888 1.35643 5.54961 1.53906 5.40751L7.53906 0.741496L7.64551 0.67216C7.90327 0.533803 8.2239 0.557131 8.46094 0.741496L14.4609 5.40751C14.6436 5.54961 14.75 5.76888 14.75 6.00028V13.3333Z" fill="#60758F"/>
<path d="M9.25 14.6669V8.74992H6.75V14.6669C6.74982 15.081 6.41411 15.4169 6 15.4169C5.58589 15.4169 5.25018 15.081 5.25 14.6669V7.99992L5.25391 7.92277C5.29253 7.5448 5.61183 7.24992 6 7.24992H10C10.4142 7.24992 10.75 7.5857 10.75 7.99992V14.6669C10.7498 15.081 10.4141 15.4169 10 15.4169C9.5859 15.4169 9.25018 15.081 9.25 14.6669Z" fill="#60758F"/>
</g>
<defs>
<clipPath id="clip0_10874_18928">
<rect width="16" height="16" fill="white"/>
</clipPath>
</defs>
</svg>
