<svg width="16" height="16" viewBox="0 0 16 16" fill="none" xmlns="http://www.w3.org/2000/svg">
<g clip-path="url(#clip0_3641_2532)">
<path d="M10.5836 14V12.667C10.5836 12.1587 10.3814 11.671 10.0221 11.3115C9.66265 10.9521 9.17496 10.75 8.66663 10.75H3.33362C2.82529 10.75 2.33759 10.9521 1.97815 11.3115C1.6187 11.671 1.41663 12.1587 1.41663 12.667V14C1.41663 14.4142 1.08084 14.75 0.666626 14.75C0.252412 14.75 -0.083374 14.4142 -0.083374 14V12.667C-0.083374 11.7608 0.276853 10.8917 0.917603 10.251C1.55835 9.61023 2.42746 9.25 3.33362 9.25H8.66663C9.57278 9.25 10.4419 9.61023 11.0826 10.251C11.7233 10.8917 12.0836 11.7609 12.0836 12.667V14C12.0836 14.4141 11.7477 14.7498 11.3336 14.75C10.9194 14.75 10.5836 14.4142 10.5836 14Z" fill="#60758F"/>
<path d="M7.91626 4.66699C7.91626 3.60855 7.05864 2.75018 6.00024 2.75C4.9417 2.75 4.08325 3.60845 4.08325 4.66699C4.08343 5.72539 4.94181 6.58301 6.00024 6.58301C7.05853 6.58283 7.91608 5.72528 7.91626 4.66699ZM9.41626 4.66699C9.41608 6.55371 7.88696 8.08283 6.00024 8.08301C4.11338 8.08301 2.58343 6.55382 2.58325 4.66699C2.58325 2.78002 4.11327 1.25 6.00024 1.25C7.88707 1.25018 9.41626 2.78013 9.41626 4.66699Z" fill="#60758F"/>
<path d="M14.5833 13.9998V12.6667H15.3333L16.0833 12.6658V13.9998C16.0833 14.414 15.7475 14.7498 15.3333 14.7498C14.919 14.7498 14.5833 14.414 14.5833 13.9998ZM12.6067 9.89917C12.7102 9.49814 13.1197 9.25661 13.5208 9.36011C14.2535 9.54931 14.9027 9.9769 15.3665 10.575C15.8302 11.1732 16.0826 11.9089 16.0833 12.6658L14.5833 12.6667C14.5828 12.2422 14.442 11.8294 14.1819 11.4939C13.9217 11.1583 13.5569 10.9194 13.1458 10.8132C12.7447 10.7097 12.5032 10.3002 12.6067 9.89917Z" fill="#60758F"/>
<path d="M11.9215 4.66968C11.9214 4.24422 11.78 3.83097 11.5192 3.49487C11.2583 3.15881 10.8932 2.91885 10.4811 2.81323C10.08 2.71053 9.83762 2.30225 9.94006 1.90112C10.0428 1.5 10.451 1.25766 10.8522 1.36011C11.587 1.54826 12.2386 1.97579 12.7037 2.57495C13.1688 3.17416 13.4214 3.91115 13.4215 4.66968C13.4215 5.42832 13.1689 6.16609 12.7037 6.76538C12.2386 7.36444 11.5869 7.7921 10.8522 7.98022C10.4511 8.08262 10.0428 7.8403 9.94006 7.43921C9.83742 7.03799 10.0799 6.62983 10.4811 6.5271C10.8931 6.42151 11.2583 6.18145 11.5192 5.84546C11.7801 5.50927 11.9215 5.09526 11.9215 4.66968Z" fill="#60758F"/>
</g>
<defs>
<clipPath id="clip0_3641_2532">
<rect width="16" height="16" fill="white"/>
</clipPath>
</defs>
</svg>
