<svg width="16" height="16" viewBox="0 0 16 16" fill="none" xmlns="http://www.w3.org/2000/svg">
<g clip-path="url(#clip0_1653_5781)">
<path d="M10.4814 1.04054C11.1805 0.875484 11.7552 1.12934 12.1286 1.50929C12.4721 1.85906 12.678 2.34569 12.6781 2.76906V4.24692H13.1305C14.235 4.24706 15.1305 5.14246 15.1305 6.24692V13.0139C15.1302 14.1181 14.2348 15.0131 13.1305 15.0132L13.1312 15.0139L2.86556 15.0314H2.86426C1.75979 15.0314 0.864417 14.1359 0.864258 13.0314V4.81724C0.864276 4.11766 1.12497 3.60941 1.55371 3.27817C1.93053 2.98722 2.38622 2.88136 2.63574 2.81919L2.6429 2.81724L2.64941 2.81593L10.4814 1.04054ZM11.0153 2.33872C10.9652 2.32259 10.8925 2.31218 10.7848 2.33807L10.7764 2.34067L2.95345 4.11346C2.66438 4.1856 2.48828 4.24073 2.36816 4.33351C2.29931 4.38676 2.19761 4.48739 2.19759 4.81724V13.0314C2.19775 13.3993 2.49582 13.6971 2.86361 13.6974L13.1292 13.6805H13.1305L13.1982 13.6766C13.5343 13.6426 13.7969 13.3588 13.7972 13.0139V6.24692C13.7972 5.87884 13.4986 5.58039 13.1305 5.58026H4.04264C3.67457 5.58024 3.37614 5.28163 3.37598 4.91359C3.376 4.54543 3.67449 4.24694 4.04264 4.24692H11.3447V2.76906C11.3447 2.76769 11.3442 2.75475 11.3389 2.7313C11.3332 2.70663 11.3231 2.6753 11.3083 2.6408C11.2776 2.56985 11.2319 2.49974 11.1774 2.44419C11.1241 2.38993 11.0691 2.35611 11.0153 2.33872ZM11.9469 8.86086C12.3883 8.86092 12.7489 9.21995 12.749 9.66229C12.749 10.1047 12.3889 10.4643 11.9469 10.4644C11.5049 10.4644 11.1449 10.1048 11.1449 9.66229C11.145 9.2199 11.505 8.86086 11.9469 8.86086Z" fill="#60758F"/>
</g>
<defs>
<clipPath id="clip0_1653_5781">
<rect width="16" height="16" fill="white"/>
</clipPath>
</defs>
</svg>
