<svg width="16" height="16" viewBox="0 0 16 16" fill="none" xmlns="http://www.w3.org/2000/svg">
<path d="M1.91671 13.3333V2.6663C1.9168 2.11388 2.13644 1.58427 2.52706 1.19364C2.91769 0.803019 3.4473 0.583378 3.99972 0.583292H9.3337L9.48019 0.59794C9.62441 0.626736 9.75845 0.69749 9.86398 0.803019L13.864 4.80302C14.0045 4.94366 14.0837 5.13446 14.0837 5.33329V13.3333C14.0837 13.8857 13.8638 14.4153 13.4734 14.8059C13.0827 15.1966 12.5523 15.4163 11.9997 15.4163H3.99972C3.4473 15.4162 2.91769 15.1966 2.52706 14.8059C2.13646 14.4153 1.91671 13.8858 1.91671 13.3333ZM3.41671 13.3333C3.41671 13.4879 3.47831 13.636 3.58761 13.7454C3.69693 13.8547 3.84513 13.9162 3.99972 13.9163H11.9997C12.1544 13.9163 12.3034 13.8548 12.4128 13.7454C12.522 13.636 12.5837 13.4878 12.5837 13.3333V5.64384L9.02316 2.08329H3.99972C3.84513 2.08338 3.69693 2.14487 3.58761 2.25419C3.47829 2.36351 3.4168 2.51171 3.41671 2.6663V13.3333Z" fill="#60758F"/>
<path d="M8.58337 1.33329C8.58337 0.919078 8.91949 0.583292 9.3337 0.583292C9.74792 0.583292 10.0834 0.919078 10.0834 1.33329V4.58329H13.3334C13.7476 4.58329 14.0837 4.91908 14.0837 5.33329C14.0837 5.74751 13.7476 6.08329 13.3334 6.08329H9.33337C8.91915 6.08329 8.58337 5.74751 8.58337 5.33329V1.33329Z" fill="#60758F"/>
<path d="M10.6664 7.91654C11.0806 7.91654 11.4164 8.25233 11.4164 8.66654C11.4164 9.08076 11.0806 9.41654 10.6664 9.41654H5.33337C4.91915 9.41654 4.58337 9.08076 4.58337 8.66654C4.58337 8.25233 4.91915 7.91654 5.33337 7.91654H10.6664Z" fill="#60758F"/>
<path d="M10.6664 10.5833C11.0806 10.5833 11.4164 10.9191 11.4164 11.3333C11.4164 11.7475 11.0806 12.0833 10.6664 12.0833H5.33337C4.91915 12.0833 4.58337 11.7475 4.58337 11.3333C4.58337 10.9191 4.91915 10.5833 5.33337 10.5833H10.6664Z" fill="#60758F"/>
<path d="M6.66637 5.24992C7.08059 5.24992 7.41637 5.5857 7.41637 5.99992C7.41637 6.41413 7.08059 6.74992 6.66637 6.74992H5.33337C4.91915 6.74992 4.58337 6.41413 4.58337 5.99992C4.58337 5.5857 4.91915 5.24992 5.33337 5.24992H6.66637Z" fill="#60758F"/>
</svg>
